M48
;Layer_Color=9474304
;FILE_FORMAT=2:4
INCH,TZ
;TYPE=PLATED
T1F00S00C0.0197
T2F00S00C0.0315
T3F00S00C0.0354
T4F00S00C0.0394
T5F00S00C0.0413
T6F00S00C0.0488
T7F00S00C0.0630
T8F00S00C0.0732
T9F00S00C0.0787
T10F00S00C0.1051
;TYPE=NON_PLATED
T11F00S00C0.1378
%
T01
X2982Y7850
X9500Y7700
X10318Y8200
X8171Y10170
X11550Y12500
X16801Y13800
X18218Y12135
X19504Y12819
X20272Y10734
X17000Y10600
X17056Y6632
X18300Y6600
X16150Y4950
X20700Y6650
X24150Y6500
X25564Y8453
X24860Y10000
X23600Y10050
X21750Y9950
X20703Y11585
X21814Y12928
X23268Y12550
X24100Y13450
X24907Y12007
X26900Y11000
X27367Y10573
X34518Y5150
X60395Y8339
X60078Y13017
X59648Y20393
X46213Y22413
X45854Y24367
X46294Y26325
X46330Y29380
X45990Y29376
X45639Y29368
X45296Y29374
X46673Y29365
X44120Y28805
X42836Y26750
X41860Y25710
X38350Y25000
X38150Y23850
X37125Y24225
X37050Y26050
X37280Y26830
X38862Y29059
X31935Y29268
X31607Y29266
X31248Y29255
X30899Y29266
X30548
X30699Y28949
X31051Y28963
X31413Y28957
X31774Y28952
X31411Y29567
X31070Y29573
X30719
X30060Y29044
X31800Y27000
X33750Y26050
X31550Y23200
X29700Y24200
X28250Y24994
X28300Y26100
X28051Y26551
X27550Y25550
X24400Y26100
X23812Y26518
X23870Y28900
X24100Y24300
X24790Y22777
X26498Y22876
X26452Y19852
X26892Y18836
X26123Y17819
X26269Y16586
X23937Y16005
X22591Y15638
X22416Y15181
X22494Y14569
X22030Y14830
X21188Y14626
X21779Y16264
X21709Y17049
X22050Y17637
X22575Y17260
X22450Y16706
X20760Y17048
X20550Y17450
X21842Y19048
X21700Y19600
X22514Y19900
X22350Y20300
X22860Y22479
X24495Y20929
X25220Y20120
X24214Y18450
X23470Y14300
X28550Y14349
X20685Y24655
X20050Y22650
X18968Y23423
X18446Y23888
X17900Y22500
X18940Y21125
X19210Y20365
X17787Y18638
X17606Y17695
X16768Y16689
X16917Y15944
X17478Y15641
X17887
X18193Y16167
X18189Y14849
X18782Y14236
X19655Y14527
X19569Y15239
X19950Y15700
X19500Y16219
X20100Y17650
X14900Y16600
X15048Y14802
X8000Y17400
X7800Y18450
X9520Y25048
X9450Y25700
X10853Y24746
X13000Y25700
X15800Y26630
X15420Y28181
X13503Y29266
X9459Y29317
X9124Y28482
X12594Y22331
X16870Y24860
X16810Y25670
X19079Y27121
X17869Y30309
X17865Y30663
X17872Y31014
X17858Y31358
X17860Y31713
X16854Y30983
X16523Y31098
X16596Y30746
X16698Y30418
X16352Y30507
X16453Y30172
X16114Y30272
X16195Y29930
X15862Y30024
X15948Y29687
X15615Y29775
X15517Y30110
X15191Y30218
X15432Y30474
X15765Y30363
X15690Y30712
X16006Y30611
X15938Y30959
X16266Y30860
X16194Y31197
X16968Y30649
X12336Y29842
X10698Y30660
X11430Y39215
X11783
X12136
X12489
X12842
X13195
X13548
X13901
X14254
X14607
X14601Y39565
X14248
X13895
X13542
X13189
X12836
X12483
X12130
X11777
X11424
X11420Y39915
X11773
X12126
X12479
X12832
X13185
X13538
X13891
X14244
X14597
X14591Y40265
X14238
X13885
X13532
X13179
X12826
X12473
X12120
X11767
X11414
X23832Y29610
X25475Y31021
X27290Y31203
X30196Y29878
X30539Y29885
X30886Y29876
X31237Y29885
X31586Y29874
X31956Y29880
X31770Y29582
X30372Y29579
X34750Y29800
X35640Y30062
X39374Y30233
X39994Y30806
X41475Y30657
X43352Y29636
X45120Y29669
X45467Y29678
X45811Y29673
X46162Y29680
X46502Y29684
X46845Y29669
X46677Y29975
X46334Y29990
X45994Y29986
X45643Y29979
X45299Y29984
X45466Y30294
X45816Y30281
X46173Y30291
X46518Y30281
X46606Y30930
X46943Y30938
X46776Y31239
X47114Y31243
X46956Y31546
X46604Y31548
X46431Y31233
X45110Y30280
X49670Y30922
X50022Y30921
X50193Y31226
X49848Y31224
X49493Y31221
X49678Y31539
X50026Y31524
X56368Y30800
X56723Y30810
X57071Y30795
X57233Y30490
X56890Y30487
X56538Y30492
X56200Y30488
X56366Y30187
X56715Y30193
X57067Y30191
T02
X12100Y5700
X13100
X14100
X15100
Y8700
X14100
X13100
X12100
T03
X13791Y13412
X15917Y13357
X27050Y13850
Y12850
Y11850
X39998Y6931
Y5931
Y4931
X27050Y14850
Y15850
X15917Y15357
Y16357
Y17357
Y18357
X13791Y18412
Y17412
Y16412
Y15412
Y14412
X15917Y14357
X15600Y20500
X16600
Y21700
X15600
X20136Y38126
X21136
X22136
T04
X31192Y1081
X32192
X33192
X34192
X34200Y7050
X33200
X32200
X31200
Y11050
X32200
X33200
X34200
X36200
X37200
X38200
Y7050
X37200
X36200
X36192Y1081
X37192
X38192
X38200Y15050
X37200
X36200
Y19050
X37200
X38200
X34200
X33200
X32200
X31200
Y15050
X32200
X33200
X34200
T05
X42600Y10126
Y13079
X49500Y13129
Y10176
X56200
Y13129
X56207Y17028
Y19981
X49400Y19931
Y16979
X42600Y16879
Y19831
T06
X8000Y38180
X10000
X15900
X17900
X24500Y38190
X26500
X31801Y38173
X33801
X38894Y38171
X40894
X45479Y38176
X47479
T07
X4292Y2347
X6292
X8292
X10292
X12292
X14292
X16292
X18292
X20292
X22292
X24292
X26292
X52191Y2201
X56191
Y6201
X52191
X54442Y26436
X58442
X6743Y26759
Y22759
X2743
Y26759
X54442Y30436
X58442
X58462Y34858
X54462
Y38858
X58462
T08
X5579Y12950
Y15100
Y17250
X6251Y32579
X8400
X10550
X13551Y32579
X15700
X17850
X21770Y32580
X23920
X26069
X29200Y32579
X31350
X33499
X36600
X38750
X40899
X44000
X46150
X48299
T09
X3538Y11846
Y18972
T10
X1338Y35430
X19450Y35429
X21150
X49113Y35437
T11
X977Y1090
X60204Y941
X1082Y41972
X60150Y42127
M30
