G04*
G04 #@! TF.GenerationSoftware,Altium Limited,Altium Designer,20.0.13 (296)*
G04*
G04 Layer_Color=128*
%FSLAX25Y25*%
%MOIN*%
G70*
G01*
G75*
%ADD22R,0.03340X0.05309*%
%ADD26R,0.03183X0.04403*%
%ADD28R,0.06687X0.03734*%
%ADD29R,0.03734X0.06687*%
%ADD30R,0.02947X0.02947*%
%ADD39R,0.04521X0.01962*%
%ADD47R,0.02947X0.02947*%
%ADD156R,0.07317X0.05191*%
%ADD157R,0.05191X0.07317*%
D22*
X69592Y309425D02*
D03*
X61915D02*
D03*
D26*
X62649Y301968D02*
D03*
X75523D02*
D03*
D28*
X248484Y312542D02*
D03*
Y302503D02*
D03*
X165272Y351547D02*
D03*
Y341507D02*
D03*
D29*
X491665Y326257D02*
D03*
X501705D02*
D03*
X327549Y312354D02*
D03*
X337589D02*
D03*
X100000Y356000D02*
D03*
X89961D02*
D03*
X396046Y314620D02*
D03*
X406085D02*
D03*
D30*
X215000Y152398D02*
D03*
Y158500D02*
D03*
X220000Y158602D02*
D03*
Y152500D02*
D03*
D39*
X224428Y358907D02*
D03*
Y366388D02*
D03*
X232696Y362648D02*
D03*
D47*
X62500Y315500D02*
D03*
X68602D02*
D03*
X232349Y353263D02*
D03*
X226247D02*
D03*
D156*
X235429Y302701D02*
D03*
Y314433D02*
D03*
X508504Y326193D02*
D03*
Y314461D02*
D03*
X90000Y337000D02*
D03*
Y348732D02*
D03*
D157*
X309997Y311772D02*
D03*
X321729D02*
D03*
X164690Y358362D02*
D03*
X152958D02*
D03*
X389606Y310243D02*
D03*
X377873D02*
D03*
M02*
