G04*
G04 #@! TF.GenerationSoftware,Altium Limited,Altium Designer,20.0.13 (296)*
G04*
G04 Layer_Color=32896*
%FSLAX25Y25*%
%MOIN*%
G70*
G01*
G75*
%ADD10C,0.00787*%
%ADD11C,0.00787*%
%ADD13C,0.01000*%
%ADD15C,0.00600*%
%ADD16C,0.01181*%
%ADD17C,0.00866*%
D10*
X0Y-0D02*
X611867D01*
X232329Y306467D02*
Y310567D01*
X238529Y306517D02*
Y310617D01*
X65937Y298621D02*
X72236D01*
X65937Y305314D02*
X72236D01*
X511604Y318327D02*
Y322427D01*
X505404Y318277D02*
Y322377D01*
X313813Y314872D02*
X317913D01*
X313863Y308672D02*
X317963D01*
X156824Y355262D02*
X160924D01*
X156774Y361462D02*
X160874D01*
X86900Y340816D02*
Y344916D01*
X93100Y340866D02*
Y344966D01*
X381739Y307142D02*
X385840D01*
X381690Y313342D02*
X385789D01*
D11*
X66196Y301968D02*
D03*
X496882Y326257D02*
D03*
X332766Y312354D02*
D03*
X95177Y356000D02*
D03*
X401263Y314620D02*
D03*
X248681Y307522D02*
D03*
X165469Y346527D02*
D03*
X65951Y309425D02*
D03*
D13*
X666986Y182489D02*
Y178946D01*
X665215D01*
X664625Y179537D01*
Y180127D01*
X665215Y180718D01*
X666986D01*
X665215D01*
X664625Y181308D01*
Y181898D01*
X665215Y182489D01*
X666986D01*
X662854Y178946D02*
X661673D01*
X661083Y179537D01*
Y180718D01*
X661673Y181308D01*
X662854D01*
X663444Y180718D01*
Y179537D01*
X662854Y178946D01*
X659311Y181898D02*
Y181308D01*
X659902D01*
X658721D01*
X659311D01*
Y179537D01*
X658721Y178946D01*
X656360Y181898D02*
Y181308D01*
X656950D01*
X655769D01*
X656360D01*
Y179537D01*
X655769Y178946D01*
X653408D02*
X652227D01*
X651637Y179537D01*
Y180718D01*
X652227Y181308D01*
X653408D01*
X653998Y180718D01*
Y179537D01*
X653408Y178946D01*
X650456D02*
Y181308D01*
X649866D01*
X649275Y180718D01*
Y178946D01*
Y180718D01*
X648685Y181308D01*
X648095Y180718D01*
Y178946D01*
X641601Y182489D02*
X642781D01*
X643372Y181898D01*
Y179537D01*
X642781Y178946D01*
X641601D01*
X641010Y179537D01*
Y181898D01*
X641601Y182489D01*
X639830Y181308D02*
X638649Y178946D01*
X637468Y181308D01*
X634516Y178946D02*
X635697D01*
X636287Y179537D01*
Y180718D01*
X635697Y181308D01*
X634516D01*
X633926Y180718D01*
Y180127D01*
X636287D01*
X632745Y181308D02*
Y178946D01*
Y180127D01*
X632155Y180718D01*
X631565Y181308D01*
X630974D01*
X629203Y178946D02*
X628022D01*
X628613D01*
Y182489D01*
X629203D01*
X625661Y181308D02*
X624480D01*
X623890Y180718D01*
Y178946D01*
X625661D01*
X626251Y179537D01*
X625661Y180127D01*
X623890D01*
X622709Y181308D02*
Y179537D01*
X622119Y178946D01*
X620348D01*
Y178356D01*
X620938Y177766D01*
X621528D01*
X620348Y178946D02*
Y181308D01*
X677144Y175063D02*
X674783D01*
X675963D01*
Y171520D01*
X671831Y175063D02*
X673012D01*
X673602Y174472D01*
Y172111D01*
X673012Y171520D01*
X671831D01*
X671241Y172111D01*
Y174472D01*
X671831Y175063D01*
X670060Y171520D02*
Y175063D01*
X668289D01*
X667698Y174472D01*
Y173291D01*
X668289Y172701D01*
X670060D01*
X662976Y175063D02*
Y172701D01*
X661795Y171520D01*
X660614Y172701D01*
Y175063D01*
X659433D02*
X658253D01*
X658843D01*
Y171520D01*
X659433D01*
X658253D01*
X654120Y175063D02*
X656482D01*
Y171520D01*
X654120D01*
X656482Y173291D02*
X655301D01*
X652940Y175063D02*
Y171520D01*
X651759Y172701D01*
X650578Y171520D01*
Y175063D01*
X645855Y171520D02*
Y175063D01*
X644084D01*
X643494Y174472D01*
Y173291D01*
X644084Y172701D01*
X645855D01*
X640542Y175063D02*
X641723D01*
X642313Y174472D01*
Y172111D01*
X641723Y171520D01*
X640542D01*
X639952Y172111D01*
Y174472D01*
X640542Y175063D01*
X636409Y174472D02*
X637000Y175063D01*
X638180D01*
X638771Y174472D01*
Y173882D01*
X638180Y173291D01*
X637000D01*
X636409Y172701D01*
Y172111D01*
X637000Y171520D01*
X638180D01*
X638771Y172111D01*
X635229Y175063D02*
X634048D01*
X634638D01*
Y171520D01*
X635229D01*
X634048D01*
X632277Y175063D02*
X629915D01*
X631096D01*
Y171520D01*
X628735Y175063D02*
X627554D01*
X628144D01*
Y171520D01*
X628735D01*
X627554D01*
X625783Y175063D02*
Y172701D01*
X624602Y171520D01*
X623421Y172701D01*
Y175063D01*
X619879D02*
X622241D01*
Y171520D01*
X619879D01*
X622241Y173291D02*
X621060D01*
X208233Y153331D02*
X208823Y153921D01*
X210004D01*
X210594Y153331D01*
Y150970D01*
X210004Y150379D01*
X208823D01*
X208233Y150970D01*
X204691Y153921D02*
X205871Y153331D01*
X207052Y152150D01*
Y150970D01*
X206462Y150379D01*
X205281D01*
X204691Y150970D01*
Y151560D01*
X205281Y152150D01*
X207052D01*
X203510Y153331D02*
X202920Y153921D01*
X201739D01*
X201148Y153331D01*
Y152741D01*
X201739Y152150D01*
X202329D01*
X201739D01*
X201148Y151560D01*
Y150970D01*
X201739Y150379D01*
X202920D01*
X203510Y150970D01*
X159952Y344529D02*
Y348071D01*
X158181D01*
X157591Y347481D01*
Y346300D01*
X158181Y345709D01*
X159952D01*
X158772D02*
X157591Y344529D01*
X154049D02*
X156410D01*
X154049Y346890D01*
Y347481D01*
X154639Y348071D01*
X155820D01*
X156410Y347481D01*
X152868Y348071D02*
X150507D01*
Y347481D01*
X152868Y345119D01*
Y344529D01*
X224990Y311320D02*
X225580Y311911D01*
X226761D01*
X227351Y311320D01*
Y308959D01*
X226761Y308369D01*
X225580D01*
X224990Y308959D01*
X223809Y308369D02*
X222628D01*
X223219D01*
Y311911D01*
X223809Y311320D01*
X80389Y348408D02*
X80980Y348998D01*
X82160D01*
X82751Y348408D01*
Y346047D01*
X82160Y345456D01*
X80980D01*
X80389Y346047D01*
X79208Y348408D02*
X78618Y348998D01*
X77437D01*
X76847Y348408D01*
Y347818D01*
X77437Y347227D01*
X78028D01*
X77437D01*
X76847Y346637D01*
Y346047D01*
X77437Y345456D01*
X78618D01*
X79208Y346047D01*
X55084Y317238D02*
X55674Y317828D01*
X56855D01*
X57445Y317238D01*
Y314877D01*
X56855Y314286D01*
X55674D01*
X55084Y314877D01*
X53903Y314286D02*
X52723D01*
X53313D01*
Y317828D01*
X53903Y317238D01*
X48590Y317828D02*
X50951D01*
Y316057D01*
X49771Y316648D01*
X49180D01*
X48590Y316057D01*
Y314877D01*
X49180Y314286D01*
X50361D01*
X50951Y314877D01*
X261051Y302935D02*
Y306477D01*
X259280D01*
X258690Y305887D01*
Y304706D01*
X259280Y304116D01*
X261051D01*
X259871D02*
X258690Y302935D01*
X255738D02*
Y306477D01*
X257509Y304706D01*
X255148D01*
X402972Y304742D02*
Y308284D01*
X401201D01*
X400610Y307694D01*
Y306513D01*
X401201Y305923D01*
X402972D01*
X401791D02*
X400610Y304742D01*
X397068Y308284D02*
X399430D01*
Y306513D01*
X398249Y307104D01*
X397659D01*
X397068Y306513D01*
Y305333D01*
X397659Y304742D01*
X398839D01*
X399430Y305333D01*
X98330Y363762D02*
Y367304D01*
X96559D01*
X95968Y366714D01*
Y365533D01*
X96559Y364943D01*
X98330D01*
X97149D02*
X95968Y363762D01*
X92426Y367304D02*
X93607Y366714D01*
X94788Y365533D01*
Y364352D01*
X94197Y363762D01*
X93017D01*
X92426Y364352D01*
Y364943D01*
X93017Y365533D01*
X94788D01*
X56507Y308067D02*
Y311609D01*
X54736D01*
X54145Y311019D01*
Y309838D01*
X54736Y309248D01*
X56507D01*
X55326D02*
X54145Y308067D01*
X52965D02*
X51784D01*
X52374D01*
Y311609D01*
X52965Y311019D01*
X50013Y311609D02*
X47651D01*
Y311019D01*
X50013Y308657D01*
Y308067D01*
X337588Y303640D02*
Y307182D01*
X335817D01*
X335227Y306592D01*
Y305411D01*
X335817Y304821D01*
X337588D01*
X336407D02*
X335227Y303640D01*
X331684D02*
X334046D01*
X331684Y306001D01*
Y306592D01*
X332275Y307182D01*
X333455D01*
X334046Y306592D01*
X328142Y307182D02*
X330504D01*
Y305411D01*
X329323Y306001D01*
X328733D01*
X328142Y305411D01*
Y304230D01*
X328733Y303640D01*
X329913D01*
X330504Y304230D01*
X56556Y302925D02*
X54195D01*
Y302335D01*
X56556Y299974D01*
Y299383D01*
X54195D01*
X53014Y302335D02*
X52424Y302925D01*
X51243D01*
X50653Y302335D01*
Y301745D01*
X51243Y301154D01*
X51833D01*
X51243D01*
X50653Y300564D01*
Y299974D01*
X51243Y299383D01*
X52424D01*
X53014Y299974D01*
X159524Y368042D02*
X160115Y368633D01*
X161295D01*
X161886Y368042D01*
Y365681D01*
X161295Y365091D01*
X160115D01*
X159524Y365681D01*
X158344Y365091D02*
X157163D01*
X157753D01*
Y368633D01*
X158344Y368042D01*
X155392D02*
X154801Y368633D01*
X153621D01*
X153030Y368042D01*
Y367452D01*
X153621Y366862D01*
X153030Y366271D01*
Y365681D01*
X153621Y365091D01*
X154801D01*
X155392Y365681D01*
Y366271D01*
X154801Y366862D01*
X155392Y367452D01*
Y368042D01*
X154801Y366862D02*
X153621D01*
X302650Y312183D02*
X303240Y312774D01*
X304421D01*
X305011Y312183D01*
Y309822D01*
X304421Y309232D01*
X303240D01*
X302650Y309822D01*
X301469Y309232D02*
X300288D01*
X300879D01*
Y312774D01*
X301469Y312183D01*
X296156Y312774D02*
X297337Y312183D01*
X298517Y311003D01*
Y309822D01*
X297927Y309232D01*
X296746D01*
X296156Y309822D01*
Y310412D01*
X296746Y311003D01*
X298517D01*
X521654Y327624D02*
X522244Y328214D01*
X523425D01*
X524016Y327624D01*
Y325262D01*
X523425Y324672D01*
X522244D01*
X521654Y325262D01*
X520473Y324672D02*
X519293D01*
X519883D01*
Y328214D01*
X520473Y327624D01*
X517522Y328214D02*
X515160D01*
Y327624D01*
X517522Y325262D01*
Y324672D01*
X500302Y332841D02*
Y336383D01*
X498530D01*
X497940Y335792D01*
Y334612D01*
X498530Y334021D01*
X500302D01*
X499121D02*
X497940Y332841D01*
X494398D02*
X496759D01*
X494398Y335202D01*
Y335792D01*
X494988Y336383D01*
X496169D01*
X496759Y335792D01*
X490856Y336383D02*
X492036Y335792D01*
X493217Y334612D01*
Y333431D01*
X492627Y332841D01*
X491446D01*
X490856Y333431D01*
Y334021D01*
X491446Y334612D01*
X493217D01*
X231225Y348052D02*
X231815Y348642D01*
X232996D01*
X233586Y348052D01*
Y345691D01*
X232996Y345100D01*
X231815D01*
X231225Y345691D01*
X230044Y348052D02*
X229454Y348642D01*
X228273D01*
X227683Y348052D01*
Y347462D01*
X228273Y346871D01*
X228864D01*
X228273D01*
X227683Y346281D01*
Y345691D01*
X228273Y345100D01*
X229454D01*
X230044Y345691D01*
X224731Y345100D02*
Y348642D01*
X226502Y346871D01*
X224141D01*
X218479Y368951D02*
X216118D01*
X217298D01*
Y365409D01*
X212575Y368361D02*
X213166Y368951D01*
X214346D01*
X214937Y368361D01*
Y367771D01*
X214346Y367180D01*
X213166D01*
X212575Y366590D01*
Y366000D01*
X213166Y365409D01*
X214346D01*
X214937Y366000D01*
X211395Y365409D02*
X210214D01*
X210804D01*
Y368951D01*
X211395Y368361D01*
D15*
X213425Y155448D02*
X216575D01*
X218425Y155551D02*
X221574D01*
X65551Y313925D02*
Y317075D01*
X229298Y351689D02*
Y354838D01*
D16*
X228267Y356899D02*
X228857D01*
Y368396D01*
X228267D02*
X228857D01*
X228267Y356899D02*
Y368396D01*
X221968Y356742D02*
X226889D01*
D17*
X-0Y431115D02*
X611867Y431115D01*
X611867Y-0D01*
X-0Y431117D02*
X0Y0D01*
M02*
