G04*
G04 #@! TF.GenerationSoftware,Altium Limited,Altium Designer,20.0.13 (296)*
G04*
G04 Layer_Color=16711935*
%FSLAX25Y25*%
%MOIN*%
G70*
G01*
G75*
%ADD51R,0.04220X0.06189*%
%ADD54R,0.04063X0.05283*%
%ADD56R,0.07567X0.04614*%
%ADD57R,0.04614X0.07567*%
%ADD58R,0.03827X0.03827*%
%ADD67R,0.05401X0.02842*%
%ADD75R,0.03827X0.03827*%
%ADD78R,0.07803X0.07803*%
%ADD79C,0.07803*%
%ADD80R,0.06681X0.06681*%
%ADD81C,0.06681*%
%ADD82R,0.09929X0.09929*%
%ADD83C,0.09929*%
%ADD84C,0.11464*%
%ADD85R,0.06386X0.06386*%
%ADD86C,0.06386*%
%ADD87R,0.06386X0.06386*%
%ADD88C,0.12291*%
%ADD89C,0.05598*%
%ADD90C,0.06417*%
%ADD91R,0.06417X0.06417*%
%ADD92C,0.14260*%
%ADD93C,0.16228*%
%ADD94C,0.04023*%
%ADD95C,0.03630*%
%ADD154R,0.08197X0.06071*%
%ADD155R,0.06071X0.08197*%
D51*
X69592Y309425D02*
D03*
X61915D02*
D03*
D54*
X62649Y301968D02*
D03*
X75523D02*
D03*
D56*
X248484Y312542D02*
D03*
Y302503D02*
D03*
X165272Y351547D02*
D03*
Y341507D02*
D03*
D57*
X491665Y326257D02*
D03*
X501705D02*
D03*
X327549Y312354D02*
D03*
X337589D02*
D03*
X100000Y356000D02*
D03*
X89961D02*
D03*
X396046Y314620D02*
D03*
X406085D02*
D03*
D58*
X215000Y152398D02*
D03*
Y158500D02*
D03*
X220000Y158602D02*
D03*
Y152500D02*
D03*
D67*
X224428Y358907D02*
D03*
Y366388D02*
D03*
X232696Y362648D02*
D03*
D75*
X62500Y315500D02*
D03*
X68602D02*
D03*
X232349Y353263D02*
D03*
X226247D02*
D03*
D78*
X474790Y381756D02*
D03*
X408941Y381712D02*
D03*
X338012Y381734D02*
D03*
X100000Y381800D02*
D03*
X265000Y381900D02*
D03*
X179000Y381800D02*
D03*
D79*
X454790Y381756D02*
D03*
X388941Y381712D02*
D03*
X318012Y381734D02*
D03*
X80000Y381800D02*
D03*
X245000Y381900D02*
D03*
X159000Y381800D02*
D03*
D80*
X562000Y131287D02*
D03*
X562067Y170279D02*
D03*
X494000Y169787D02*
D03*
X426000Y130787D02*
D03*
X495000Y131287D02*
D03*
X426000Y168787D02*
D03*
D81*
X562000Y101760D02*
D03*
X562067Y199807D02*
D03*
X494000Y199315D02*
D03*
X426000Y101260D02*
D03*
X495000Y101760D02*
D03*
X426000Y198315D02*
D03*
D82*
X584416Y264357D02*
D03*
X561915Y22008D02*
D03*
X584618Y348583D02*
D03*
X27433Y267587D02*
D03*
D83*
X544416Y264357D02*
D03*
X584416Y304357D02*
D03*
X544416D02*
D03*
X262921Y23469D02*
D03*
X242921D02*
D03*
X222921D02*
D03*
X202921D02*
D03*
X182921D02*
D03*
X162921D02*
D03*
X142921D02*
D03*
X122921D02*
D03*
X102921D02*
D03*
X82921D02*
D03*
X62921D02*
D03*
X42921D02*
D03*
X521915Y22008D02*
D03*
X561915Y62008D02*
D03*
X521915D02*
D03*
X544618Y348583D02*
D03*
X584618Y388583D02*
D03*
X544618D02*
D03*
X67433Y267587D02*
D03*
X27433Y227587D02*
D03*
X67433D02*
D03*
D84*
X292000Y325787D02*
D03*
X313496D02*
D03*
X334992D02*
D03*
X55791Y129504D02*
D03*
Y151000D02*
D03*
Y172496D02*
D03*
X178500Y325787D02*
D03*
X157004D02*
D03*
X135508D02*
D03*
X62508Y325787D02*
D03*
X84004D02*
D03*
X105500D02*
D03*
X440000D02*
D03*
X461496D02*
D03*
X482992D02*
D03*
X260692Y325800D02*
D03*
X239196D02*
D03*
X217700D02*
D03*
X366000Y325787D02*
D03*
X387496D02*
D03*
X408992D02*
D03*
D85*
X221362Y381261D02*
D03*
X166000Y205000D02*
D03*
Y217000D02*
D03*
D86*
X211362Y381261D02*
D03*
X201362D02*
D03*
X156000Y205000D02*
D03*
X270500Y128500D02*
D03*
Y138500D02*
D03*
Y148500D02*
D03*
Y158500D02*
D03*
X137906Y134122D02*
D03*
Y144122D02*
D03*
Y154122D02*
D03*
Y164122D02*
D03*
Y174122D02*
D03*
X399981Y69307D02*
D03*
Y59307D02*
D03*
X159165Y173571D02*
D03*
Y163571D02*
D03*
Y153571D02*
D03*
Y143571D02*
D03*
Y133571D02*
D03*
X156000Y217000D02*
D03*
D87*
X270500Y118500D02*
D03*
X137906Y184122D02*
D03*
X399981Y49307D02*
D03*
X159165Y183571D02*
D03*
D88*
X35385Y118462D02*
D03*
Y189722D02*
D03*
D89*
X151000Y57000D02*
D03*
X141000D02*
D03*
X131000D02*
D03*
X121000D02*
D03*
Y87000D02*
D03*
X131000D02*
D03*
X141000D02*
D03*
X151000D02*
D03*
D90*
X311915Y10810D02*
D03*
X321915D02*
D03*
X331915D02*
D03*
X341915D02*
D03*
X361915D02*
D03*
X371915D02*
D03*
X312000Y110500D02*
D03*
X322000D02*
D03*
X332000D02*
D03*
X342000D02*
D03*
X362000D02*
D03*
X372000D02*
D03*
X312000Y150500D02*
D03*
X322000D02*
D03*
X332000D02*
D03*
X342000D02*
D03*
X362000D02*
D03*
X372000D02*
D03*
Y190500D02*
D03*
X362000D02*
D03*
X342000D02*
D03*
X332000D02*
D03*
X322000D02*
D03*
X312000D02*
D03*
X372000Y70500D02*
D03*
X362000D02*
D03*
X342000D02*
D03*
X332000D02*
D03*
X322000D02*
D03*
X312000D02*
D03*
D91*
X381915Y10810D02*
D03*
X382000Y110500D02*
D03*
Y150500D02*
D03*
Y190500D02*
D03*
Y70500D02*
D03*
D92*
X9771Y10901D02*
D03*
X602040Y9408D02*
D03*
X601505Y421266D02*
D03*
X10823Y419715D02*
D03*
D93*
X211500Y354287D02*
D03*
X13382Y354302D02*
D03*
X194500Y354287D02*
D03*
X491131Y354371D02*
D03*
D94*
X164528Y301723D02*
D03*
X163523Y305066D02*
D03*
X154321Y304741D02*
D03*
X169677Y306491D02*
D03*
X161946Y299299D02*
D03*
X168540Y309826D02*
D03*
X165961Y307460D02*
D03*
X165233Y310979D02*
D03*
X161137Y302717D02*
D03*
X158619Y300239D02*
D03*
X156152Y297751D02*
D03*
X162664Y308602D02*
D03*
X160055Y306115D02*
D03*
X155171Y301099D02*
D03*
X157648Y303627D02*
D03*
X161936Y311970D02*
D03*
X159378Y309593D02*
D03*
X156900Y307116D02*
D03*
X151915Y302181D02*
D03*
X166983Y304183D02*
D03*
X159479Y296871D02*
D03*
X465183Y302812D02*
D03*
X461730Y302905D02*
D03*
X466770Y299750D02*
D03*
X463336Y299900D02*
D03*
X306995Y289486D02*
D03*
X178576Y313579D02*
D03*
X178720Y310139D02*
D03*
X178648Y306627D02*
D03*
X178692Y303086D02*
D03*
X178603Y317132D02*
D03*
X466733Y293647D02*
D03*
X310507Y289631D02*
D03*
X314131Y289574D02*
D03*
X317736Y289516D02*
D03*
X319347Y292680D02*
D03*
X312482Y292546D02*
D03*
X316068Y292661D02*
D03*
X308993D02*
D03*
X305484D02*
D03*
X303719Y295786D02*
D03*
X317698Y295824D02*
D03*
X314112Y295671D02*
D03*
X310699Y295728D02*
D03*
X307190D02*
D03*
X319558Y298797D02*
D03*
X315857Y298739D02*
D03*
X312367Y298854D02*
D03*
X308858Y298758D02*
D03*
X305388Y298854D02*
D03*
X301956Y298777D02*
D03*
X452957Y293740D02*
D03*
X459901Y293759D02*
D03*
X463298Y293796D02*
D03*
X456392Y293684D02*
D03*
X454674Y296782D02*
D03*
X468450Y296689D02*
D03*
X461618Y296801D02*
D03*
X465016Y296838D02*
D03*
X458109Y296726D02*
D03*
X451202Y296689D02*
D03*
X456429Y299788D02*
D03*
X458165Y302812D02*
D03*
X454656Y302942D02*
D03*
X494926Y312210D02*
D03*
X496698Y309218D02*
D03*
X572325Y304904D02*
D03*
X501932Y312259D02*
D03*
X498477Y312236D02*
D03*
X464308Y312334D02*
D03*
X466059Y309296D02*
D03*
X466038Y315480D02*
D03*
X469560Y315456D02*
D03*
X561995Y304882D02*
D03*
X565377Y304917D02*
D03*
X563661Y301867D02*
D03*
X567149Y301925D02*
D03*
X563680Y308004D02*
D03*
X567227Y308098D02*
D03*
X570707Y307946D02*
D03*
X568900Y304870D02*
D03*
X570672Y301914D02*
D03*
X496776Y315391D02*
D03*
X500256Y315239D02*
D03*
X500221Y309206D02*
D03*
X469425Y309379D02*
D03*
X471141Y312429D02*
D03*
X467760Y312394D02*
D03*
X451100Y302800D02*
D03*
X128362Y395648D02*
D03*
X117772D02*
D03*
X121302D02*
D03*
X124832D02*
D03*
X114242D02*
D03*
X138952D02*
D03*
X142482D02*
D03*
X146012D02*
D03*
X131892D02*
D03*
X135422D02*
D03*
X135480Y392151D02*
D03*
X131950D02*
D03*
X146069D02*
D03*
X142540D02*
D03*
X139009D02*
D03*
X114300D02*
D03*
X124890D02*
D03*
X121360D02*
D03*
X117830D02*
D03*
X128420D02*
D03*
X128319Y399149D02*
D03*
X117729D02*
D03*
X121259D02*
D03*
X124789D02*
D03*
X114199D02*
D03*
X138909D02*
D03*
X142439D02*
D03*
X145969D02*
D03*
X131849D02*
D03*
X135379D02*
D03*
X135321Y402647D02*
D03*
X131791D02*
D03*
X145911D02*
D03*
X142381D02*
D03*
X138851D02*
D03*
X114142D02*
D03*
X124732D02*
D03*
X121202D02*
D03*
X117672D02*
D03*
X128261D02*
D03*
X459938Y299863D02*
D03*
X452994Y299844D02*
D03*
X345177Y51500D02*
D03*
X80000Y174000D02*
D03*
D95*
X603946Y83388D02*
D03*
X261228Y178194D02*
D03*
X234700Y143000D02*
D03*
X108526Y247464D02*
D03*
X168100Y256700D02*
D03*
X91240Y284822D02*
D03*
X388615Y290586D02*
D03*
X441199Y288053D02*
D03*
X94592Y293172D02*
D03*
X238700Y289000D02*
D03*
X238319Y296100D02*
D03*
X154199Y281811D02*
D03*
X135035Y292659D02*
D03*
X244947Y209286D02*
D03*
X252199Y201199D02*
D03*
X228605Y224793D02*
D03*
X206850Y246547D02*
D03*
X123363Y298419D02*
D03*
X414749Y306565D02*
D03*
X272903Y312032D02*
D03*
X255641Y84534D02*
D03*
X254748Y310209D02*
D03*
X300597Y290436D02*
D03*
X356399Y300625D02*
D03*
X202720Y107337D02*
D03*
X393742Y302334D02*
D03*
X596477Y203928D02*
D03*
X600780Y130171D02*
D03*
X268925Y188362D02*
D03*
X347500Y298000D02*
D03*
X158000Y266300D02*
D03*
X381500Y238500D02*
D03*
X399939Y308064D02*
D03*
X273666Y105731D02*
D03*
X269000Y110000D02*
D03*
X262694Y165861D02*
D03*
X81708Y101697D02*
D03*
X207032Y115846D02*
D03*
X249070Y120070D02*
D03*
X182182Y121346D02*
D03*
X236000Y100500D02*
D03*
X170000Y106000D02*
D03*
X106985Y306601D02*
D03*
X264977Y228755D02*
D03*
X247899Y227773D02*
D03*
X238116Y265182D02*
D03*
X433516Y296362D02*
D03*
X211883Y146256D02*
D03*
X218138Y129282D02*
D03*
X462131Y224134D02*
D03*
X458541Y243674D02*
D03*
X462942Y263254D02*
D03*
X125940Y223308D02*
D03*
X95195Y250478D02*
D03*
X195039Y128189D02*
D03*
X177874Y186383D02*
D03*
X225905Y156378D02*
D03*
X225748Y172598D02*
D03*
X224164Y151808D02*
D03*
X232682Y125500D02*
D03*
X241000Y134500D02*
D03*
X95000Y77000D02*
D03*
X168008Y138000D02*
D03*
X174778Y156413D02*
D03*
X181935Y161671D02*
D03*
X178868Y156413D02*
D03*
X29823Y78500D02*
D03*
X372800Y268300D02*
D03*
X207600Y170480D02*
D03*
X167680Y166887D02*
D03*
X285500Y143493D02*
D03*
X224941Y145687D02*
D03*
X280511Y265511D02*
D03*
X264518Y198518D02*
D03*
X181890Y148490D02*
D03*
X187820Y142360D02*
D03*
X169168Y159437D02*
D03*
X176060Y176950D02*
D03*
X201000Y176500D02*
D03*
X217787Y162638D02*
D03*
X224500Y167060D02*
D03*
X220500Y176370D02*
D03*
X196547Y145269D02*
D03*
X195690Y152390D02*
D03*
X184461Y238884D02*
D03*
X189680Y234230D02*
D03*
X218417Y190475D02*
D03*
X192102Y203650D02*
D03*
X189398Y211252D02*
D03*
X370500Y260500D02*
D03*
X371250Y242250D02*
D03*
X383500Y250000D02*
D03*
X190787Y271213D02*
D03*
X217092Y170489D02*
D03*
X239372Y160051D02*
D03*
X242142Y184500D02*
D03*
X168700Y248600D02*
D03*
X220301Y148301D02*
D03*
X199500Y157000D02*
D03*
X195000Y162190D02*
D03*
X94500Y257000D02*
D03*
X200500Y226500D02*
D03*
X205500Y174500D02*
D03*
X115500Y125000D02*
D03*
X217500Y99500D02*
D03*
X418602Y257102D02*
D03*
X207000Y66500D02*
D03*
X130000Y257000D02*
D03*
X217000Y196000D02*
D03*
X225142Y199000D02*
D03*
X223500Y203000D02*
D03*
X315500Y232000D02*
D03*
X297000Y242000D02*
D03*
X161500Y49500D02*
D03*
X170559Y66323D02*
D03*
X103177Y82000D02*
D03*
X150478Y148017D02*
D03*
X241000Y243000D02*
D03*
X428360Y267500D02*
D03*
X248602Y100000D02*
D03*
X241500Y65000D02*
D03*
X78000Y184500D02*
D03*
X318000Y270000D02*
D03*
X275500Y255500D02*
D03*
X283000Y261000D02*
D03*
X282500Y249941D02*
D03*
X337500Y260500D02*
D03*
X244000Y261000D02*
D03*
X149000Y166000D02*
D03*
X183000Y66000D02*
D03*
X179000Y225000D02*
D03*
D154*
X235429Y302701D02*
D03*
Y314433D02*
D03*
X508504Y326193D02*
D03*
Y314461D02*
D03*
X90000Y337000D02*
D03*
Y348732D02*
D03*
D155*
X309997Y311772D02*
D03*
X321729D02*
D03*
X164690Y358362D02*
D03*
X152958D02*
D03*
X389606Y310243D02*
D03*
X377873D02*
D03*
M02*
