G04*
G04 #@! TF.GenerationSoftware,Altium Limited,Altium Designer,20.0.13 (296)*
G04*
G04 Layer_Color=8421504*
%FSLAX43Y43*%
%MOMM*%
G71*
G01*
G75*
%ADD20R,1.348X0.848*%
%ADD21R,0.848X1.348*%
%ADD22R,0.559X1.461*%
%ADD23R,0.548X1.478*%
%ADD24R,1.818X1.478*%
%ADD25R,0.808X1.118*%
%ADD26R,1.118X0.808*%
%ADD27R,1.698X0.948*%
%ADD28R,0.948X1.698*%
%ADD29R,0.748X0.748*%
%ADD30R,0.998X0.498*%
%ADD31R,1.198X1.398*%
%ADD32R,0.498X0.748*%
%ADD33R,1.198X0.498*%
%ADD34R,3.248X1.148*%
%ADD35R,2.148X4.698*%
%ADD36R,1.098X0.498*%
%ADD37R,3.048X12.398*%
%ADD38R,1.148X0.498*%
%ADD39R,1.488X4.338*%
%ADD40R,1.488X0.538*%
%ADD41R,1.198X2.598*%
%ADD42R,1.423X0.548*%
%ADD43R,1.422X0.914*%
%ADD44R,0.198X1.373*%
%ADD45R,1.373X0.198*%
%ADD46R,0.748X0.748*%
%ADD47R,0.914X1.422*%
%ADD48R,0.748X0.498*%
D20*
X69299Y77948D02*
D03*
Y75998D02*
D03*
X37778Y73554D02*
D03*
Y71604D02*
D03*
X21769Y74355D02*
D03*
Y72405D02*
D03*
X56988Y73851D02*
D03*
Y75801D02*
D03*
X90532Y77639D02*
D03*
Y79589D02*
D03*
X112757Y78287D02*
D03*
Y80237D02*
D03*
X38214Y80601D02*
D03*
Y78651D02*
D03*
X77636Y78789D02*
D03*
Y76839D02*
D03*
X55222Y80024D02*
D03*
Y78074D02*
D03*
X17272Y17186D02*
D03*
Y19136D02*
D03*
X46482Y53594D02*
D03*
Y55544D02*
D03*
X71628Y62021D02*
D03*
Y60071D02*
D03*
X43307Y13163D02*
D03*
Y15113D02*
D03*
X46609Y15158D02*
D03*
Y13208D02*
D03*
X61844Y78080D02*
D03*
Y76130D02*
D03*
X65278Y61005D02*
D03*
Y59055D02*
D03*
X101727Y65278D02*
D03*
Y67228D02*
D03*
X62992Y60878D02*
D03*
Y58928D02*
D03*
X31115Y64561D02*
D03*
Y62611D02*
D03*
X29028Y64667D02*
D03*
Y62717D02*
D03*
X103759Y65278D02*
D03*
Y67228D02*
D03*
X66609Y66898D02*
D03*
Y64948D02*
D03*
X31031Y46472D02*
D03*
Y48422D02*
D03*
X64770Y24556D02*
D03*
Y22606D02*
D03*
X57277Y14478D02*
D03*
Y16428D02*
D03*
X50292Y20365D02*
D03*
Y18415D02*
D03*
X73660Y51267D02*
D03*
Y49317D02*
D03*
X44628Y67967D02*
D03*
Y66017D02*
D03*
X5670Y18079D02*
D03*
Y16129D02*
D03*
X71120Y27854D02*
D03*
Y29804D02*
D03*
X72517Y41316D02*
D03*
Y43266D02*
D03*
X59944Y30144D02*
D03*
Y28194D02*
D03*
X52959Y52787D02*
D03*
Y54737D02*
D03*
X57658Y53930D02*
D03*
Y55880D02*
D03*
X55372Y54782D02*
D03*
Y52832D02*
D03*
X53086Y49063D02*
D03*
Y51013D02*
D03*
X50241Y56312D02*
D03*
Y54362D02*
D03*
X50419Y49276D02*
D03*
Y51226D02*
D03*
X25908Y18288D02*
D03*
Y16338D02*
D03*
X20574Y24429D02*
D03*
Y22479D02*
D03*
X21463Y15322D02*
D03*
Y17272D02*
D03*
X113928Y57489D02*
D03*
Y59439D02*
D03*
X115962Y54908D02*
D03*
Y56858D02*
D03*
X110120Y58591D02*
D03*
Y60541D02*
D03*
X109358Y65576D02*
D03*
Y63626D02*
D03*
X18923Y44323D02*
D03*
Y42373D02*
D03*
Y38944D02*
D03*
Y40894D02*
D03*
X33344Y78187D02*
D03*
Y80137D02*
D03*
X59219Y76164D02*
D03*
Y78114D02*
D03*
X30861Y24511D02*
D03*
Y26461D02*
D03*
X33401Y26502D02*
D03*
Y24552D02*
D03*
X35941D02*
D03*
Y26502D02*
D03*
X38533Y26450D02*
D03*
Y24500D02*
D03*
X68528Y66917D02*
D03*
Y64967D02*
D03*
X42805Y37973D02*
D03*
Y36023D02*
D03*
X27940Y27559D02*
D03*
Y29509D02*
D03*
X19273Y17260D02*
D03*
Y15310D02*
D03*
X23622Y16465D02*
D03*
Y18415D02*
D03*
D21*
X115289Y73101D02*
D03*
X113339D02*
D03*
X98682Y75276D02*
D03*
X96732D02*
D03*
X68107Y18036D02*
D03*
X70057D02*
D03*
X53340Y25781D02*
D03*
X51390D02*
D03*
X45167Y51562D02*
D03*
X47117D02*
D03*
X62357Y62484D02*
D03*
X64307D02*
D03*
X73406Y60071D02*
D03*
X75356D02*
D03*
X49976Y25780D02*
D03*
X48026D02*
D03*
X66428Y40367D02*
D03*
X64478D02*
D03*
X64471Y37338D02*
D03*
X66421D02*
D03*
X24937Y20955D02*
D03*
X22987D02*
D03*
X16637Y21082D02*
D03*
X18587D02*
D03*
X32086Y55245D02*
D03*
X34036D02*
D03*
X35941Y57277D02*
D03*
X33991D02*
D03*
X107696Y66804D02*
D03*
X105746D02*
D03*
X67900Y43434D02*
D03*
X69850D02*
D03*
X10033Y23368D02*
D03*
X8083D02*
D03*
X60411Y50546D02*
D03*
X58461D02*
D03*
X46199Y61643D02*
D03*
X44249D02*
D03*
X44844Y59309D02*
D03*
X46794D02*
D03*
X45552Y33020D02*
D03*
X43602D02*
D03*
X111939Y60877D02*
D03*
X113889D02*
D03*
X102067Y63373D02*
D03*
X100117D02*
D03*
X84664Y10414D02*
D03*
X86614D02*
D03*
X90170Y10541D02*
D03*
X88220D02*
D03*
X31383Y77877D02*
D03*
X29433D02*
D03*
X109728Y77597D02*
D03*
X107778D02*
D03*
X70755Y76925D02*
D03*
X72705D02*
D03*
X107418Y81279D02*
D03*
X109368D02*
D03*
X19259Y78232D02*
D03*
X21209D02*
D03*
X97019Y79842D02*
D03*
X95069D02*
D03*
X19257Y75946D02*
D03*
X21207D02*
D03*
X97005Y77355D02*
D03*
X95055D02*
D03*
X70739Y78867D02*
D03*
X72689D02*
D03*
X48342Y30734D02*
D03*
X50292D02*
D03*
X84278Y66267D02*
D03*
X82328D02*
D03*
X84582Y13081D02*
D03*
X86532D02*
D03*
X101981Y60706D02*
D03*
X100031D02*
D03*
X65958Y32893D02*
D03*
X64008D02*
D03*
D22*
X25398Y72377D02*
D03*
X26668D02*
D03*
X27938D02*
D03*
X31748D02*
D03*
X33018D02*
D03*
X34288D02*
D03*
Y66929D02*
D03*
X33018D02*
D03*
X31748D02*
D03*
X30478D02*
D03*
X29208D02*
D03*
X27938D02*
D03*
X26668D02*
D03*
X25398D02*
D03*
X100201Y75241D02*
D03*
X101471D02*
D03*
X102741D02*
D03*
X106551D02*
D03*
X107821D02*
D03*
X109091D02*
D03*
Y69793D02*
D03*
X107821D02*
D03*
X106551D02*
D03*
X105281D02*
D03*
X104011D02*
D03*
X102741D02*
D03*
X101471D02*
D03*
X100201D02*
D03*
X63117Y74282D02*
D03*
X64387D02*
D03*
X65657D02*
D03*
X69467D02*
D03*
X70737D02*
D03*
X72007D02*
D03*
Y68834D02*
D03*
X70737D02*
D03*
X69467D02*
D03*
X68197D02*
D03*
X66927D02*
D03*
X65657D02*
D03*
X64387D02*
D03*
X63117D02*
D03*
D23*
X45922Y69509D02*
D03*
X44652D02*
D03*
X43382D02*
D03*
X42112D02*
D03*
X85598Y68865D02*
D03*
X84328D02*
D03*
X83058D02*
D03*
X81788D02*
D03*
X119615Y69485D02*
D03*
X120885D02*
D03*
X122155D02*
D03*
X123425D02*
D03*
D24*
X42747Y75289D02*
D03*
X45287D02*
D03*
X82423Y74645D02*
D03*
X84963D02*
D03*
X122790Y75265D02*
D03*
X120250D02*
D03*
D25*
X28529Y79632D02*
D03*
X31799D02*
D03*
X106578Y79444D02*
D03*
X109848D02*
D03*
X61320Y80020D02*
D03*
X58050D02*
D03*
D26*
X93590Y80502D02*
D03*
Y77232D02*
D03*
X17670Y76528D02*
D03*
Y79798D02*
D03*
X74494Y80330D02*
D03*
Y77060D02*
D03*
X88709Y80737D02*
D03*
Y77467D02*
D03*
X114587Y78294D02*
D03*
Y81564D02*
D03*
X36401Y80617D02*
D03*
Y77347D02*
D03*
X79641Y80072D02*
D03*
Y76802D02*
D03*
X53341Y79922D02*
D03*
Y76652D02*
D03*
D27*
X152381Y39420D02*
D03*
Y41970D02*
D03*
X153342Y27060D02*
D03*
Y29610D02*
D03*
X153429Y22516D02*
D03*
Y25066D02*
D03*
X152468Y34573D02*
D03*
Y37123D02*
D03*
X151376Y53712D02*
D03*
Y56262D02*
D03*
X151290Y58083D02*
D03*
Y60633D02*
D03*
X69469Y19812D02*
D03*
Y22362D02*
D03*
D28*
X104157Y12386D02*
D03*
X106707D02*
D03*
X106775Y14960D02*
D03*
X104225D02*
D03*
X106788Y17575D02*
D03*
X104238D02*
D03*
D29*
X91944Y77677D02*
D03*
Y79227D02*
D03*
X111184Y78600D02*
D03*
Y80150D02*
D03*
X34822Y78600D02*
D03*
Y80150D02*
D03*
X76272Y76839D02*
D03*
Y78389D02*
D03*
X56765Y78553D02*
D03*
Y80103D02*
D03*
X62611Y34824D02*
D03*
Y33274D02*
D03*
X57912Y30581D02*
D03*
Y32131D02*
D03*
X51689Y30734D02*
D03*
Y32284D02*
D03*
X86995Y69167D02*
D03*
Y67617D02*
D03*
X47028Y69567D02*
D03*
Y68017D02*
D03*
X116063Y60268D02*
D03*
Y58718D02*
D03*
X54483Y30848D02*
D03*
Y32398D02*
D03*
X53086Y30594D02*
D03*
Y32144D02*
D03*
X44577Y36729D02*
D03*
Y35179D02*
D03*
X112025Y59112D02*
D03*
Y57562D02*
D03*
X45847Y36589D02*
D03*
Y35039D02*
D03*
X73282Y74743D02*
D03*
Y73193D02*
D03*
X111259Y76506D02*
D03*
Y74956D02*
D03*
X35927Y73189D02*
D03*
Y71639D02*
D03*
X7575Y18872D02*
D03*
Y17322D02*
D03*
X56388Y30480D02*
D03*
Y32030D02*
D03*
X64528Y42167D02*
D03*
Y43717D02*
D03*
X25328Y63567D02*
D03*
Y65117D02*
D03*
D30*
X25568Y13015D02*
D03*
X23368Y12065D02*
D03*
Y13965D02*
D03*
X17358Y13650D02*
D03*
Y11750D02*
D03*
X19558Y12700D02*
D03*
D31*
X28884Y48387D02*
D03*
Y50927D02*
D03*
X19884D02*
D03*
Y48387D02*
D03*
D32*
X33086Y50967D02*
D03*
X32136Y53467D02*
D03*
X34036D02*
D03*
D33*
X63559Y29149D02*
D03*
X65659Y30099D02*
D03*
Y28199D02*
D03*
D34*
X91247Y75038D02*
D03*
Y69038D02*
D03*
D35*
X57301Y20380D02*
D03*
X61301D02*
D03*
D36*
X52501Y20480D02*
D03*
Y19530D02*
D03*
Y18580D02*
D03*
X55001D02*
D03*
Y19530D02*
D03*
Y20480D02*
D03*
D37*
X126801Y10160D02*
D03*
X111451D02*
D03*
D38*
X4289Y22667D02*
D03*
Y20767D02*
D03*
X6289Y21717D02*
D03*
D39*
X130565Y58845D02*
D03*
Y63945D02*
D03*
D40*
X118775Y65840D02*
D03*
Y64570D02*
D03*
Y63300D02*
D03*
Y62030D02*
D03*
Y60760D02*
D03*
Y59490D02*
D03*
Y58220D02*
D03*
Y56950D02*
D03*
D41*
X78994Y11049D02*
D03*
X74394D02*
D03*
X74267Y14224D02*
D03*
X78867D02*
D03*
D42*
X9689Y15494D02*
D03*
Y16764D02*
D03*
Y18034D02*
D03*
Y19304D02*
D03*
X15113D02*
D03*
Y18034D02*
D03*
Y16764D02*
D03*
Y15494D02*
D03*
X64828Y44857D02*
D03*
Y46127D02*
D03*
Y47397D02*
D03*
Y48667D02*
D03*
X70252D02*
D03*
Y47397D02*
D03*
Y46127D02*
D03*
Y44857D02*
D03*
D43*
X74843Y75278D02*
D03*
Y73246D02*
D03*
X112722Y74596D02*
D03*
Y76628D02*
D03*
X64353Y18130D02*
D03*
Y20162D02*
D03*
X66369Y18186D02*
D03*
Y20218D02*
D03*
D44*
X49728Y35167D02*
D03*
X50228D02*
D03*
X50728D02*
D03*
X51228D02*
D03*
X51728D02*
D03*
X52228D02*
D03*
X52728D02*
D03*
X53228D02*
D03*
X53728D02*
D03*
X54228D02*
D03*
X54728D02*
D03*
X55228D02*
D03*
X55728D02*
D03*
X56228D02*
D03*
X56728D02*
D03*
X57228D02*
D03*
Y46643D02*
D03*
X56728D02*
D03*
X56228D02*
D03*
X55728D02*
D03*
X55228D02*
D03*
X54728D02*
D03*
X54228D02*
D03*
X53728D02*
D03*
X53228D02*
D03*
X52728D02*
D03*
X52228D02*
D03*
X51728D02*
D03*
X51228D02*
D03*
X50728D02*
D03*
X50228D02*
D03*
X49728D02*
D03*
D45*
X59216Y37155D02*
D03*
Y37655D02*
D03*
Y38155D02*
D03*
Y38655D02*
D03*
Y39155D02*
D03*
Y39655D02*
D03*
Y40155D02*
D03*
Y40655D02*
D03*
Y41155D02*
D03*
Y41655D02*
D03*
Y42155D02*
D03*
Y42655D02*
D03*
Y43155D02*
D03*
Y43655D02*
D03*
Y44155D02*
D03*
Y44655D02*
D03*
X47740D02*
D03*
Y44155D02*
D03*
Y43655D02*
D03*
Y43155D02*
D03*
Y42655D02*
D03*
Y42155D02*
D03*
Y41655D02*
D03*
Y41155D02*
D03*
Y40655D02*
D03*
Y40155D02*
D03*
Y39655D02*
D03*
Y39155D02*
D03*
Y38655D02*
D03*
Y38155D02*
D03*
Y37655D02*
D03*
Y37155D02*
D03*
D46*
X58902Y11811D02*
D03*
X60452D02*
D03*
X59970Y52197D02*
D03*
X58420D02*
D03*
X62624Y36195D02*
D03*
X61074D02*
D03*
X122935Y67703D02*
D03*
X121385D02*
D03*
X46355Y45974D02*
D03*
X47905D02*
D03*
X46977Y33528D02*
D03*
X48527D02*
D03*
X60706Y46863D02*
D03*
X59156D02*
D03*
X51689Y33655D02*
D03*
X50139D02*
D03*
X47091Y34925D02*
D03*
X48641D02*
D03*
X62624Y37846D02*
D03*
X61074D02*
D03*
X61836Y43942D02*
D03*
X63386D02*
D03*
X60732Y45593D02*
D03*
X59182D02*
D03*
X59817Y35179D02*
D03*
X58267D02*
D03*
X47892Y47244D02*
D03*
X46342D02*
D03*
X61836Y42672D02*
D03*
X63386D02*
D03*
X110475Y55924D02*
D03*
X112025D02*
D03*
X67310Y76073D02*
D03*
X65760D02*
D03*
X104405Y77074D02*
D03*
X102855D02*
D03*
X29617Y74422D02*
D03*
X28067D02*
D03*
X53441Y17145D02*
D03*
X54991D02*
D03*
X59817Y33782D02*
D03*
X58267D02*
D03*
X68326Y23876D02*
D03*
X69876D02*
D03*
X68326Y25273D02*
D03*
X69876D02*
D03*
X60426Y68580D02*
D03*
X61976D02*
D03*
X97178Y69567D02*
D03*
X98728D02*
D03*
X61315Y39624D02*
D03*
X62865D02*
D03*
X61653Y40811D02*
D03*
X63203D02*
D03*
D47*
X67691Y77851D02*
D03*
X65659D02*
D03*
X104775Y78740D02*
D03*
X102743D02*
D03*
X30099Y76073D02*
D03*
X28067D02*
D03*
X37770Y74843D02*
D03*
X35738D02*
D03*
X65024Y26670D02*
D03*
X67056D02*
D03*
X52701Y22180D02*
D03*
X54733D02*
D03*
X54991Y15240D02*
D03*
X52959D02*
D03*
D48*
X67203Y61021D02*
D03*
Y59121D02*
D03*
X69703Y60071D02*
D03*
M02*
