G04*
G04 #@! TF.GenerationSoftware,Altium Limited,Altium Designer,20.0.13 (296)*
G04*
G04 Layer_Color=128*
%FSLAX43Y43*%
%MOMM*%
G71*
G01*
G75*
%ADD21R,0.848X1.348*%
%ADD25R,0.808X1.118*%
%ADD27R,1.698X0.948*%
%ADD28R,0.948X1.698*%
%ADD29R,0.748X0.748*%
%ADD38R,1.148X0.498*%
%ADD46R,0.748X0.748*%
%ADD155R,1.858X1.318*%
%ADD156R,1.318X1.858*%
D21*
X17676Y78594D02*
D03*
X15726D02*
D03*
D25*
X15913Y76700D02*
D03*
X19183D02*
D03*
D27*
X63115Y79386D02*
D03*
Y76836D02*
D03*
X41979Y89293D02*
D03*
Y86743D02*
D03*
D28*
X124883Y82869D02*
D03*
X127433D02*
D03*
X83198Y79338D02*
D03*
X85748D02*
D03*
X25400Y90424D02*
D03*
X22850D02*
D03*
X100596Y79914D02*
D03*
X103146D02*
D03*
D29*
X54610Y38709D02*
D03*
Y40259D02*
D03*
X55880Y40285D02*
D03*
Y38735D02*
D03*
D38*
X57005Y91162D02*
D03*
Y93062D02*
D03*
X59105Y92112D02*
D03*
D46*
X15875Y80137D02*
D03*
X17425D02*
D03*
X59017Y89729D02*
D03*
X57467D02*
D03*
D155*
X59799Y76886D02*
D03*
Y79866D02*
D03*
X129160Y82853D02*
D03*
Y79873D02*
D03*
X22860Y85598D02*
D03*
Y88578D02*
D03*
D156*
X78739Y79190D02*
D03*
X81719D02*
D03*
X41831Y91024D02*
D03*
X38851D02*
D03*
X98960Y78802D02*
D03*
X95980D02*
D03*
M02*
