G04*
G04 #@! TF.GenerationSoftware,Altium Limited,Altium Designer,20.0.13 (296)*
G04*
G04 Layer_Color=8388736*
%FSLAX43Y43*%
%MOMM*%
G71*
G01*
G75*
%ADD22R,0.559X1.461*%
%ADD49R,1.572X1.072*%
%ADD50R,1.072X1.572*%
%ADD51R,0.772X1.702*%
%ADD52R,2.042X1.702*%
%ADD53R,1.032X1.342*%
%ADD54R,1.342X1.032*%
%ADD55R,1.922X1.172*%
%ADD56R,1.172X1.922*%
%ADD57R,0.972X0.972*%
%ADD58R,1.222X0.722*%
%ADD59R,1.422X1.622*%
%ADD60R,0.722X0.972*%
%ADD61R,1.422X0.722*%
%ADD62R,3.472X1.372*%
%ADD63R,2.372X4.922*%
%ADD64R,1.322X0.722*%
%ADD65R,3.272X12.622*%
%ADD66R,1.372X0.722*%
%ADD67R,1.712X4.562*%
%ADD68R,1.712X0.762*%
%ADD69R,1.422X2.822*%
%ADD70R,1.647X0.772*%
%ADD71R,1.646X1.138*%
%ADD72R,0.422X1.597*%
%ADD73R,1.597X0.422*%
%ADD74R,0.972X0.972*%
%ADD75R,1.138X1.646*%
%ADD76R,0.972X0.722*%
%ADD77R,1.982X1.982*%
%ADD78C,1.982*%
%ADD79R,1.697X1.697*%
%ADD80C,1.697*%
%ADD81R,2.522X2.522*%
%ADD82C,2.522*%
%ADD83C,2.912*%
%ADD84R,1.622X1.622*%
%ADD85C,1.622*%
%ADD86R,1.622X1.622*%
%ADD87C,3.122*%
%ADD88C,1.422*%
%ADD89C,1.630*%
%ADD90R,1.630X1.630*%
%ADD91C,3.622*%
%ADD92C,4.122*%
%ADD93C,1.022*%
%ADD94C,0.922*%
D22*
X25398Y72377D02*
D03*
X26668D02*
D03*
X27938D02*
D03*
X31748D02*
D03*
X33018D02*
D03*
X34288D02*
D03*
Y66929D02*
D03*
X33018D02*
D03*
X31748D02*
D03*
X30478D02*
D03*
X29208D02*
D03*
X27938D02*
D03*
X26668D02*
D03*
X25398D02*
D03*
X100201Y75241D02*
D03*
X101471D02*
D03*
X102741D02*
D03*
X106551D02*
D03*
X107821D02*
D03*
X109091D02*
D03*
Y69793D02*
D03*
X107821D02*
D03*
X106551D02*
D03*
X105281D02*
D03*
X104011D02*
D03*
X102741D02*
D03*
X101471D02*
D03*
X100201D02*
D03*
X63117Y74282D02*
D03*
X64387D02*
D03*
X65657D02*
D03*
X69467D02*
D03*
X70737D02*
D03*
X72007D02*
D03*
Y68834D02*
D03*
X70737D02*
D03*
X69467D02*
D03*
X68197D02*
D03*
X66927D02*
D03*
X65657D02*
D03*
X64387D02*
D03*
X63117D02*
D03*
D49*
X69299Y77948D02*
D03*
Y75998D02*
D03*
X37778Y73554D02*
D03*
Y71604D02*
D03*
X21769Y74355D02*
D03*
Y72405D02*
D03*
X56988Y73851D02*
D03*
Y75801D02*
D03*
X90532Y77639D02*
D03*
Y79589D02*
D03*
X112757Y78287D02*
D03*
Y80237D02*
D03*
X38214Y80601D02*
D03*
Y78651D02*
D03*
X77636Y78789D02*
D03*
Y76839D02*
D03*
X55222Y80024D02*
D03*
Y78074D02*
D03*
X17272Y17186D02*
D03*
Y19136D02*
D03*
X46482Y53594D02*
D03*
Y55544D02*
D03*
X71628Y62021D02*
D03*
Y60071D02*
D03*
X43307Y13163D02*
D03*
Y15113D02*
D03*
X46609Y15158D02*
D03*
Y13208D02*
D03*
X61844Y78080D02*
D03*
Y76130D02*
D03*
X65278Y61005D02*
D03*
Y59055D02*
D03*
X101727Y65278D02*
D03*
Y67228D02*
D03*
X62992Y60878D02*
D03*
Y58928D02*
D03*
X31115Y64561D02*
D03*
Y62611D02*
D03*
X29028Y64667D02*
D03*
Y62717D02*
D03*
X103759Y65278D02*
D03*
Y67228D02*
D03*
X66609Y66898D02*
D03*
Y64948D02*
D03*
X31031Y46472D02*
D03*
Y48422D02*
D03*
X64770Y24556D02*
D03*
Y22606D02*
D03*
X57277Y14478D02*
D03*
Y16428D02*
D03*
X50292Y20365D02*
D03*
Y18415D02*
D03*
X73660Y51267D02*
D03*
Y49317D02*
D03*
X44628Y67967D02*
D03*
Y66017D02*
D03*
X5670Y18079D02*
D03*
Y16129D02*
D03*
X71120Y27854D02*
D03*
Y29804D02*
D03*
X72517Y41316D02*
D03*
Y43266D02*
D03*
X59944Y30144D02*
D03*
Y28194D02*
D03*
X52959Y52787D02*
D03*
Y54737D02*
D03*
X57658Y53930D02*
D03*
Y55880D02*
D03*
X55372Y54782D02*
D03*
Y52832D02*
D03*
X53086Y49063D02*
D03*
Y51013D02*
D03*
X50241Y56312D02*
D03*
Y54362D02*
D03*
X50419Y49276D02*
D03*
Y51226D02*
D03*
X25908Y18288D02*
D03*
Y16338D02*
D03*
X20574Y24429D02*
D03*
Y22479D02*
D03*
X21463Y15322D02*
D03*
Y17272D02*
D03*
X113928Y57489D02*
D03*
Y59439D02*
D03*
X115962Y54908D02*
D03*
Y56858D02*
D03*
X110120Y58591D02*
D03*
Y60541D02*
D03*
X109358Y65576D02*
D03*
Y63626D02*
D03*
X18923Y44323D02*
D03*
Y42373D02*
D03*
Y38944D02*
D03*
Y40894D02*
D03*
X33344Y78187D02*
D03*
Y80137D02*
D03*
X59219Y76164D02*
D03*
Y78114D02*
D03*
X30861Y24511D02*
D03*
Y26461D02*
D03*
X33401Y26502D02*
D03*
Y24552D02*
D03*
X35941D02*
D03*
Y26502D02*
D03*
X38533Y26450D02*
D03*
Y24500D02*
D03*
X68528Y66917D02*
D03*
Y64967D02*
D03*
X42805Y37973D02*
D03*
Y36023D02*
D03*
X27940Y27559D02*
D03*
Y29509D02*
D03*
X19273Y17260D02*
D03*
Y15310D02*
D03*
X23622Y16465D02*
D03*
Y18415D02*
D03*
D50*
X115289Y73101D02*
D03*
X113339D02*
D03*
X98682Y75276D02*
D03*
X96732D02*
D03*
X68107Y18036D02*
D03*
X70057D02*
D03*
X53340Y25781D02*
D03*
X51390D02*
D03*
X45167Y51562D02*
D03*
X47117D02*
D03*
X62357Y62484D02*
D03*
X64307D02*
D03*
X73406Y60071D02*
D03*
X75356D02*
D03*
X49976Y25780D02*
D03*
X48026D02*
D03*
X66428Y40367D02*
D03*
X64478D02*
D03*
X64471Y37338D02*
D03*
X66421D02*
D03*
X24937Y20955D02*
D03*
X22987D02*
D03*
X16637Y21082D02*
D03*
X18587D02*
D03*
X32086Y55245D02*
D03*
X34036D02*
D03*
X35941Y57277D02*
D03*
X33991D02*
D03*
X107696Y66804D02*
D03*
X105746D02*
D03*
X67900Y43434D02*
D03*
X69850D02*
D03*
X10033Y23368D02*
D03*
X8083D02*
D03*
X60411Y50546D02*
D03*
X58461D02*
D03*
X46199Y61643D02*
D03*
X44249D02*
D03*
X44844Y59309D02*
D03*
X46794D02*
D03*
X45552Y33020D02*
D03*
X43602D02*
D03*
X111939Y60877D02*
D03*
X113889D02*
D03*
X102067Y63373D02*
D03*
X100117D02*
D03*
X84664Y10414D02*
D03*
X86614D02*
D03*
X90170Y10541D02*
D03*
X88220D02*
D03*
X31383Y77877D02*
D03*
X29433D02*
D03*
X109728Y77597D02*
D03*
X107778D02*
D03*
X70755Y76925D02*
D03*
X72705D02*
D03*
X107418Y81279D02*
D03*
X109368D02*
D03*
X19259Y78232D02*
D03*
X21209D02*
D03*
X97019Y79842D02*
D03*
X95069D02*
D03*
X19257Y75946D02*
D03*
X21207D02*
D03*
X97005Y77355D02*
D03*
X95055D02*
D03*
X70739Y78867D02*
D03*
X72689D02*
D03*
X48342Y30734D02*
D03*
X50292D02*
D03*
X84278Y66267D02*
D03*
X82328D02*
D03*
X84582Y13081D02*
D03*
X86532D02*
D03*
X101981Y60706D02*
D03*
X100031D02*
D03*
X65958Y32893D02*
D03*
X64008D02*
D03*
D51*
X45922Y69509D02*
D03*
X44652D02*
D03*
X43382D02*
D03*
X42112D02*
D03*
X85598Y68865D02*
D03*
X84328D02*
D03*
X83058D02*
D03*
X81788D02*
D03*
X119615Y69485D02*
D03*
X120885D02*
D03*
X122155D02*
D03*
X123425D02*
D03*
D52*
X42747Y75289D02*
D03*
X45287D02*
D03*
X82423Y74645D02*
D03*
X84963D02*
D03*
X122790Y75265D02*
D03*
X120250D02*
D03*
D53*
X28529Y79632D02*
D03*
X31799D02*
D03*
X106578Y79444D02*
D03*
X109848D02*
D03*
X61320Y80020D02*
D03*
X58050D02*
D03*
D54*
X93590Y80502D02*
D03*
Y77232D02*
D03*
X17670Y76528D02*
D03*
Y79798D02*
D03*
X74494Y80330D02*
D03*
Y77060D02*
D03*
X88709Y80737D02*
D03*
Y77467D02*
D03*
X114587Y78294D02*
D03*
Y81564D02*
D03*
X36401Y80617D02*
D03*
Y77347D02*
D03*
X79641Y80072D02*
D03*
Y76802D02*
D03*
X53341Y79922D02*
D03*
Y76652D02*
D03*
D55*
X152381Y39420D02*
D03*
Y41970D02*
D03*
X153342Y27060D02*
D03*
Y29610D02*
D03*
X153429Y22516D02*
D03*
Y25066D02*
D03*
X152468Y34573D02*
D03*
Y37123D02*
D03*
X151376Y53712D02*
D03*
Y56262D02*
D03*
X151290Y58083D02*
D03*
Y60633D02*
D03*
X69469Y19812D02*
D03*
Y22362D02*
D03*
D56*
X104157Y12386D02*
D03*
X106707D02*
D03*
X106775Y14960D02*
D03*
X104225D02*
D03*
X106788Y17575D02*
D03*
X104238D02*
D03*
D57*
X91944Y77677D02*
D03*
Y79227D02*
D03*
X111184Y78600D02*
D03*
Y80150D02*
D03*
X34822Y78600D02*
D03*
Y80150D02*
D03*
X76272Y76839D02*
D03*
Y78389D02*
D03*
X56765Y78553D02*
D03*
Y80103D02*
D03*
X62611Y34824D02*
D03*
Y33274D02*
D03*
X57912Y30581D02*
D03*
Y32131D02*
D03*
X51689Y30734D02*
D03*
Y32284D02*
D03*
X86995Y69167D02*
D03*
Y67617D02*
D03*
X47028Y69567D02*
D03*
Y68017D02*
D03*
X116063Y60268D02*
D03*
Y58718D02*
D03*
X54483Y30848D02*
D03*
Y32398D02*
D03*
X53086Y30594D02*
D03*
Y32144D02*
D03*
X44577Y36729D02*
D03*
Y35179D02*
D03*
X112025Y59112D02*
D03*
Y57562D02*
D03*
X45847Y36589D02*
D03*
Y35039D02*
D03*
X73282Y74743D02*
D03*
Y73193D02*
D03*
X111259Y76506D02*
D03*
Y74956D02*
D03*
X35927Y73189D02*
D03*
Y71639D02*
D03*
X7575Y18872D02*
D03*
Y17322D02*
D03*
X56388Y30480D02*
D03*
Y32030D02*
D03*
X64528Y42167D02*
D03*
Y43717D02*
D03*
X25328Y63567D02*
D03*
Y65117D02*
D03*
D58*
X25568Y13015D02*
D03*
X23368Y12065D02*
D03*
Y13965D02*
D03*
X17358Y13650D02*
D03*
Y11750D02*
D03*
X19558Y12700D02*
D03*
D59*
X28884Y48387D02*
D03*
Y50927D02*
D03*
X19884D02*
D03*
Y48387D02*
D03*
D60*
X33086Y50967D02*
D03*
X32136Y53467D02*
D03*
X34036D02*
D03*
D61*
X63559Y29149D02*
D03*
X65659Y30099D02*
D03*
Y28199D02*
D03*
D62*
X91247Y75038D02*
D03*
Y69038D02*
D03*
D63*
X57301Y20380D02*
D03*
X61301D02*
D03*
D64*
X52501Y20480D02*
D03*
Y19530D02*
D03*
Y18580D02*
D03*
X55001D02*
D03*
Y19530D02*
D03*
Y20480D02*
D03*
D65*
X126801Y10160D02*
D03*
X111451D02*
D03*
D66*
X4289Y22667D02*
D03*
Y20767D02*
D03*
X6289Y21717D02*
D03*
D67*
X130565Y58845D02*
D03*
Y63945D02*
D03*
D68*
X118775Y65840D02*
D03*
Y64570D02*
D03*
Y63300D02*
D03*
Y62030D02*
D03*
Y60760D02*
D03*
Y59490D02*
D03*
Y58220D02*
D03*
Y56950D02*
D03*
D69*
X78994Y11049D02*
D03*
X74394D02*
D03*
X74267Y14224D02*
D03*
X78867D02*
D03*
D70*
X9689Y15494D02*
D03*
Y16764D02*
D03*
Y18034D02*
D03*
Y19304D02*
D03*
X15113D02*
D03*
Y18034D02*
D03*
Y16764D02*
D03*
Y15494D02*
D03*
X64828Y44857D02*
D03*
Y46127D02*
D03*
Y47397D02*
D03*
Y48667D02*
D03*
X70252D02*
D03*
Y47397D02*
D03*
Y46127D02*
D03*
Y44857D02*
D03*
D71*
X74843Y75278D02*
D03*
Y73246D02*
D03*
X112722Y74596D02*
D03*
Y76628D02*
D03*
X64353Y18130D02*
D03*
Y20162D02*
D03*
X66369Y18186D02*
D03*
Y20218D02*
D03*
D72*
X49728Y35167D02*
D03*
X50228D02*
D03*
X50728D02*
D03*
X51228D02*
D03*
X51728D02*
D03*
X52228D02*
D03*
X52728D02*
D03*
X53228D02*
D03*
X53728D02*
D03*
X54228D02*
D03*
X54728D02*
D03*
X55228D02*
D03*
X55728D02*
D03*
X56228D02*
D03*
X56728D02*
D03*
X57228D02*
D03*
Y46643D02*
D03*
X56728D02*
D03*
X56228D02*
D03*
X55728D02*
D03*
X55228D02*
D03*
X54728D02*
D03*
X54228D02*
D03*
X53728D02*
D03*
X53228D02*
D03*
X52728D02*
D03*
X52228D02*
D03*
X51728D02*
D03*
X51228D02*
D03*
X50728D02*
D03*
X50228D02*
D03*
X49728D02*
D03*
D73*
X59216Y37155D02*
D03*
Y37655D02*
D03*
Y38155D02*
D03*
Y38655D02*
D03*
Y39155D02*
D03*
Y39655D02*
D03*
Y40155D02*
D03*
Y40655D02*
D03*
Y41155D02*
D03*
Y41655D02*
D03*
Y42155D02*
D03*
Y42655D02*
D03*
Y43155D02*
D03*
Y43655D02*
D03*
Y44155D02*
D03*
Y44655D02*
D03*
X47740D02*
D03*
Y44155D02*
D03*
Y43655D02*
D03*
Y43155D02*
D03*
Y42655D02*
D03*
Y42155D02*
D03*
Y41655D02*
D03*
Y41155D02*
D03*
Y40655D02*
D03*
Y40155D02*
D03*
Y39655D02*
D03*
Y39155D02*
D03*
Y38655D02*
D03*
Y38155D02*
D03*
Y37655D02*
D03*
Y37155D02*
D03*
D74*
X58902Y11811D02*
D03*
X60452D02*
D03*
X59970Y52197D02*
D03*
X58420D02*
D03*
X62624Y36195D02*
D03*
X61074D02*
D03*
X122935Y67703D02*
D03*
X121385D02*
D03*
X46355Y45974D02*
D03*
X47905D02*
D03*
X46977Y33528D02*
D03*
X48527D02*
D03*
X60706Y46863D02*
D03*
X59156D02*
D03*
X51689Y33655D02*
D03*
X50139D02*
D03*
X47091Y34925D02*
D03*
X48641D02*
D03*
X62624Y37846D02*
D03*
X61074D02*
D03*
X61836Y43942D02*
D03*
X63386D02*
D03*
X60732Y45593D02*
D03*
X59182D02*
D03*
X59817Y35179D02*
D03*
X58267D02*
D03*
X47892Y47244D02*
D03*
X46342D02*
D03*
X61836Y42672D02*
D03*
X63386D02*
D03*
X110475Y55924D02*
D03*
X112025D02*
D03*
X67310Y76073D02*
D03*
X65760D02*
D03*
X104405Y77074D02*
D03*
X102855D02*
D03*
X29617Y74422D02*
D03*
X28067D02*
D03*
X53441Y17145D02*
D03*
X54991D02*
D03*
X59817Y33782D02*
D03*
X58267D02*
D03*
X68326Y23876D02*
D03*
X69876D02*
D03*
X68326Y25273D02*
D03*
X69876D02*
D03*
X60426Y68580D02*
D03*
X61976D02*
D03*
X97178Y69567D02*
D03*
X98728D02*
D03*
X61315Y39624D02*
D03*
X62865D02*
D03*
X61653Y40811D02*
D03*
X63203D02*
D03*
D75*
X67691Y77851D02*
D03*
X65659D02*
D03*
X104775Y78740D02*
D03*
X102743D02*
D03*
X30099Y76073D02*
D03*
X28067D02*
D03*
X37770Y74843D02*
D03*
X35738D02*
D03*
X65024Y26670D02*
D03*
X67056D02*
D03*
X52701Y22180D02*
D03*
X54733D02*
D03*
X54991Y15240D02*
D03*
X52959D02*
D03*
D76*
X67203Y61021D02*
D03*
Y59121D02*
D03*
X69703Y60071D02*
D03*
D77*
X120597Y96966D02*
D03*
X103871Y96955D02*
D03*
X85855Y96960D02*
D03*
X25400Y96977D02*
D03*
X67310Y97003D02*
D03*
X45466Y96977D02*
D03*
D78*
X115517Y96966D02*
D03*
X98791Y96955D02*
D03*
X80775Y96960D02*
D03*
X20320Y96977D02*
D03*
X62230Y97003D02*
D03*
X40386Y96977D02*
D03*
D79*
X142748Y33347D02*
D03*
X142765Y43251D02*
D03*
X125476Y43126D02*
D03*
X108204Y33220D02*
D03*
X125730Y33347D02*
D03*
X108204Y42872D02*
D03*
D80*
X142748Y25847D02*
D03*
X142765Y50751D02*
D03*
X125476Y50626D02*
D03*
X108204Y25720D02*
D03*
X125730Y25847D02*
D03*
X108204Y50372D02*
D03*
D81*
X148442Y67147D02*
D03*
X142726Y5590D02*
D03*
X148493Y88540D02*
D03*
X6968Y67967D02*
D03*
D82*
X138282Y67147D02*
D03*
X148442Y77307D02*
D03*
X138282D02*
D03*
X66782Y5961D02*
D03*
X61702D02*
D03*
X56622D02*
D03*
X51542D02*
D03*
X46462D02*
D03*
X41382D02*
D03*
X36302D02*
D03*
X31222D02*
D03*
X26142D02*
D03*
X21062D02*
D03*
X15982D02*
D03*
X10902D02*
D03*
X132566Y5590D02*
D03*
X142726Y15750D02*
D03*
X132566D02*
D03*
X138333Y88540D02*
D03*
X148493Y98700D02*
D03*
X138333D02*
D03*
X17128Y67967D02*
D03*
X6968Y57807D02*
D03*
X17128D02*
D03*
D83*
X74168Y82750D02*
D03*
X79628D02*
D03*
X85088D02*
D03*
X14171Y32894D02*
D03*
Y38354D02*
D03*
Y43814D02*
D03*
X45339Y82750D02*
D03*
X39879D02*
D03*
X34419D02*
D03*
X15877Y82750D02*
D03*
X21337D02*
D03*
X26797D02*
D03*
X111760D02*
D03*
X117220D02*
D03*
X122680D02*
D03*
X66216Y82753D02*
D03*
X60756D02*
D03*
X55296D02*
D03*
X92964Y82750D02*
D03*
X98424D02*
D03*
X103884D02*
D03*
D84*
X56226Y96840D02*
D03*
X42164Y52070D02*
D03*
Y55118D02*
D03*
D85*
X53686Y96840D02*
D03*
X51146D02*
D03*
X39624Y52070D02*
D03*
X68707Y32639D02*
D03*
Y35179D02*
D03*
Y37719D02*
D03*
Y40259D02*
D03*
X35028Y34067D02*
D03*
Y36607D02*
D03*
Y39147D02*
D03*
Y41687D02*
D03*
Y44227D02*
D03*
X101595Y17604D02*
D03*
Y15064D02*
D03*
X40428Y44087D02*
D03*
Y41547D02*
D03*
Y39007D02*
D03*
Y36467D02*
D03*
Y33927D02*
D03*
X39624Y55118D02*
D03*
D86*
X68707Y30099D02*
D03*
X35028Y46767D02*
D03*
X101595Y12524D02*
D03*
X40428Y46627D02*
D03*
D87*
X8988Y30089D02*
D03*
Y48189D02*
D03*
D88*
X38354Y14478D02*
D03*
X35814D02*
D03*
X33274D02*
D03*
X30734D02*
D03*
Y22098D02*
D03*
X33274D02*
D03*
X35814D02*
D03*
X38354D02*
D03*
D89*
X79226Y2746D02*
D03*
X81766D02*
D03*
X84306D02*
D03*
X86846D02*
D03*
X91926D02*
D03*
X94466D02*
D03*
X79248Y28067D02*
D03*
X81788D02*
D03*
X84328D02*
D03*
X86868D02*
D03*
X91948D02*
D03*
X94488D02*
D03*
X79248Y38227D02*
D03*
X81788D02*
D03*
X84328D02*
D03*
X86868D02*
D03*
X91948D02*
D03*
X94488D02*
D03*
Y48387D02*
D03*
X91948D02*
D03*
X86868D02*
D03*
X84328D02*
D03*
X81788D02*
D03*
X79248D02*
D03*
X94488Y17907D02*
D03*
X91948D02*
D03*
X86868D02*
D03*
X84328D02*
D03*
X81788D02*
D03*
X79248D02*
D03*
D90*
X97006Y2746D02*
D03*
X97028Y28067D02*
D03*
Y38227D02*
D03*
Y48387D02*
D03*
Y17907D02*
D03*
D91*
X2482Y2769D02*
D03*
X152918Y2389D02*
D03*
X152782Y107002D02*
D03*
X2749Y106608D02*
D03*
D92*
X53721Y89989D02*
D03*
X3399Y89993D02*
D03*
X49403Y89989D02*
D03*
X124747Y90010D02*
D03*
D93*
X41790Y76638D02*
D03*
X41535Y77487D02*
D03*
X39198Y77404D02*
D03*
X43098Y77849D02*
D03*
X41134Y76022D02*
D03*
X42809Y78696D02*
D03*
X42154Y78095D02*
D03*
X41969Y78989D02*
D03*
X40929Y76890D02*
D03*
X40289Y76261D02*
D03*
X39663Y75629D02*
D03*
X41317Y78385D02*
D03*
X40654Y77753D02*
D03*
X39413Y76479D02*
D03*
X40043Y77121D02*
D03*
X41132Y79240D02*
D03*
X40482Y78637D02*
D03*
X39853Y78007D02*
D03*
X38586Y76754D02*
D03*
X42414Y77262D02*
D03*
X40508Y75405D02*
D03*
X118157Y76914D02*
D03*
X117279Y76938D02*
D03*
X118560Y76137D02*
D03*
X117687Y76175D02*
D03*
X77977Y73529D02*
D03*
X45358Y79649D02*
D03*
X45395Y78775D02*
D03*
X45377Y77883D02*
D03*
X45388Y76984D02*
D03*
X45365Y80552D02*
D03*
X118550Y74586D02*
D03*
X78869Y73566D02*
D03*
X79789Y73552D02*
D03*
X80705Y73537D02*
D03*
X81114Y74341D02*
D03*
X79370Y74307D02*
D03*
X80281Y74336D02*
D03*
X78484D02*
D03*
X77593D02*
D03*
X77145Y75130D02*
D03*
X80695Y75139D02*
D03*
X79784Y75100D02*
D03*
X78918Y75115D02*
D03*
X78026D02*
D03*
X81168Y75894D02*
D03*
X80228Y75880D02*
D03*
X79341Y75909D02*
D03*
X78450Y75885D02*
D03*
X77568Y75909D02*
D03*
X76697Y75889D02*
D03*
X115051Y74610D02*
D03*
X116815Y74615D02*
D03*
X117678Y74624D02*
D03*
X115923Y74596D02*
D03*
X115487Y75383D02*
D03*
X118986Y75359D02*
D03*
X117251Y75388D02*
D03*
X118114Y75397D02*
D03*
X116360Y75369D02*
D03*
X114605Y75359D02*
D03*
X115933Y76146D02*
D03*
X116374Y76914D02*
D03*
X115482Y76947D02*
D03*
X125711Y79301D02*
D03*
X126161Y78541D02*
D03*
X145371Y77446D02*
D03*
X127491Y79314D02*
D03*
X126613Y79308D02*
D03*
X117934Y79333D02*
D03*
X118379Y78561D02*
D03*
X118374Y80132D02*
D03*
X119268Y80126D02*
D03*
X142747Y77440D02*
D03*
X143606Y77449D02*
D03*
X143170Y76674D02*
D03*
X144056Y76689D02*
D03*
X143175Y78233D02*
D03*
X144076Y78257D02*
D03*
X144960Y78218D02*
D03*
X144501Y77437D02*
D03*
X144951Y76686D02*
D03*
X126181Y80109D02*
D03*
X127065Y80071D02*
D03*
X127056Y78538D02*
D03*
X119234Y78582D02*
D03*
X119670Y79357D02*
D03*
X118811Y79348D02*
D03*
X114579Y76911D02*
D03*
X32604Y100495D02*
D03*
X29914D02*
D03*
X30811D02*
D03*
X31707D02*
D03*
X29018D02*
D03*
X35294D02*
D03*
X36190D02*
D03*
X37087D02*
D03*
X33501D02*
D03*
X34397D02*
D03*
X34412Y99606D02*
D03*
X33515D02*
D03*
X37102D02*
D03*
X36205D02*
D03*
X35308D02*
D03*
X29032D02*
D03*
X31722D02*
D03*
X30825D02*
D03*
X29929D02*
D03*
X32619D02*
D03*
X32593Y101384D02*
D03*
X29903D02*
D03*
X30800D02*
D03*
X31696D02*
D03*
X29007D02*
D03*
X35283D02*
D03*
X36179D02*
D03*
X37076D02*
D03*
X33490D02*
D03*
X34386D02*
D03*
X34372Y102272D02*
D03*
X33475D02*
D03*
X37061D02*
D03*
X36165D02*
D03*
X35268D02*
D03*
X28992D02*
D03*
X31682D02*
D03*
X30785D02*
D03*
X29889D02*
D03*
X32578D02*
D03*
X116824Y76165D02*
D03*
X115061Y76160D02*
D03*
X87675Y13081D02*
D03*
X20320Y44196D02*
D03*
D94*
X153402Y21181D02*
D03*
X66352Y45261D02*
D03*
X59614Y36322D02*
D03*
X27566Y62856D02*
D03*
X42697Y65202D02*
D03*
X23175Y72345D02*
D03*
X98708Y73809D02*
D03*
X112064Y73165D02*
D03*
X24026Y74466D02*
D03*
X60630Y73406D02*
D03*
X60533Y75209D02*
D03*
X39167Y71580D02*
D03*
X34299Y74335D02*
D03*
X62216Y53159D02*
D03*
X64058Y51104D02*
D03*
X58066Y57097D02*
D03*
X52540Y62623D02*
D03*
X31334Y75798D02*
D03*
X105346Y77868D02*
D03*
X69317Y79256D02*
D03*
X64933Y21472D02*
D03*
X64706Y78793D02*
D03*
X76352Y73771D02*
D03*
X90525Y76359D02*
D03*
X51491Y27264D02*
D03*
X100010Y76793D02*
D03*
X151505Y51798D02*
D03*
X152598Y33063D02*
D03*
X68307Y47844D02*
D03*
X88265Y75692D02*
D03*
X40132Y67640D02*
D03*
X96901Y60579D02*
D03*
X101585Y78248D02*
D03*
X69511Y26856D02*
D03*
X68326Y27940D02*
D03*
X66724Y42129D02*
D03*
X20754Y25831D02*
D03*
X52586Y29425D02*
D03*
X63264Y30498D02*
D03*
X46274Y30822D02*
D03*
X59944Y25527D02*
D03*
X43180Y26924D02*
D03*
X27174Y77877D02*
D03*
X67304Y58104D02*
D03*
X62966Y57854D02*
D03*
X60481Y67356D02*
D03*
X110113Y75276D02*
D03*
X53818Y37149D02*
D03*
X55407Y32838D02*
D03*
X117381Y56930D02*
D03*
X116470Y61893D02*
D03*
X117587Y66867D02*
D03*
X31989Y56720D02*
D03*
X24180Y63621D02*
D03*
X49540Y32560D02*
D03*
X45180Y47341D02*
D03*
X57380Y39720D02*
D03*
X57340Y43840D02*
D03*
X56938Y38559D02*
D03*
X59101Y31877D02*
D03*
X61214Y34163D02*
D03*
X24130Y19558D02*
D03*
X42674Y35052D02*
D03*
X44394Y39729D02*
D03*
X46211Y41065D02*
D03*
X45432Y39729D02*
D03*
X7575Y19939D02*
D03*
X94691Y68148D02*
D03*
X52730Y43302D02*
D03*
X42591Y42389D02*
D03*
X72517Y36447D02*
D03*
X57135Y37005D02*
D03*
X71250Y67440D02*
D03*
X67188Y50424D02*
D03*
X46200Y37716D02*
D03*
X47706Y36159D02*
D03*
X42969Y40497D02*
D03*
X44719Y44945D02*
D03*
X51054Y44831D02*
D03*
X55318Y41310D02*
D03*
X57023Y42433D02*
D03*
X56007Y44798D02*
D03*
X49923Y36898D02*
D03*
X49705Y38707D02*
D03*
X46853Y60676D02*
D03*
X48179Y59494D02*
D03*
X55478Y48381D02*
D03*
X48794Y51727D02*
D03*
X48107Y53658D02*
D03*
X94107Y66167D02*
D03*
X94297Y61532D02*
D03*
X97409Y63500D02*
D03*
X48460Y68888D02*
D03*
X55141Y43304D02*
D03*
X60801Y40653D02*
D03*
X61504Y46863D02*
D03*
X42850Y63144D02*
D03*
X55957Y37669D02*
D03*
X50673Y39878D02*
D03*
X49530Y41196D02*
D03*
X24003Y65278D02*
D03*
X50927Y57531D02*
D03*
X52197Y44323D02*
D03*
X29337Y31750D02*
D03*
X55245Y25273D02*
D03*
X106325Y65304D02*
D03*
X52578Y16891D02*
D03*
X33020Y65278D02*
D03*
X55118Y49784D02*
D03*
X57186Y50546D02*
D03*
X56769Y51562D02*
D03*
X80137Y58928D02*
D03*
X75438Y61468D02*
D03*
X41021Y12573D02*
D03*
X43322Y16846D02*
D03*
X26207Y20828D02*
D03*
X38221Y37596D02*
D03*
X61214Y61722D02*
D03*
X108804Y67945D02*
D03*
X63145Y25400D02*
D03*
X61341Y16510D02*
D03*
X19812Y46863D02*
D03*
X80772Y68580D02*
D03*
X69977Y64897D02*
D03*
X71882Y66294D02*
D03*
X71755Y63485D02*
D03*
X85725Y66167D02*
D03*
X61976Y66294D02*
D03*
X37846Y42164D02*
D03*
X46482Y16764D02*
D03*
X45466Y57150D02*
D03*
M02*
