G04*
G04 #@! TF.GenerationSoftware,Altium Limited,Altium Designer,20.0.13 (296)*
G04*
G04 Layer_Physical_Order=4*
G04 Layer_Color=16711680*
%FSLAX43Y43*%
%MOMM*%
G71*
G01*
G75*
%ADD12C,0.254*%
%ADD15C,0.300*%
%ADD96R,0.950X1.450*%
%ADD99R,0.910X1.220*%
%ADD101R,1.800X1.050*%
%ADD102R,1.050X1.800*%
%ADD103R,0.850X0.850*%
%ADD112R,1.250X0.600*%
%ADD120R,0.850X0.850*%
%ADD123C,0.500*%
%ADD124C,0.400*%
%ADD125C,2.000*%
%ADD126C,0.600*%
%ADD127C,1.500*%
%ADD128C,3.000*%
%ADD129C,6.000*%
%ADD130R,1.860X1.860*%
%ADD131C,1.860*%
%ADD132R,1.575X1.575*%
%ADD133C,1.575*%
%ADD134R,2.400X2.400*%
%ADD135C,2.400*%
%ADD136C,2.790*%
%ADD137R,1.500X1.500*%
%ADD138C,1.500*%
%ADD139R,1.500X1.500*%
%ADD140C,3.000*%
%ADD141C,1.300*%
%ADD142C,1.508*%
%ADD143R,1.508X1.508*%
%ADD144C,3.500*%
%ADD145C,4.000*%
%ADD146C,0.900*%
%ADD147C,0.800*%
%ADD149R,1.960X1.420*%
%ADD150R,1.420X1.960*%
%ADD151C,1.000*%
%ADD152C,0.350*%
G36*
X37119Y103050D02*
X37627Y102542D01*
X37627Y88417D01*
X42008Y84036D01*
X42008Y81528D01*
X40325Y79845D01*
X25681Y79845D01*
X24320Y81207D01*
Y84388D01*
X24340D01*
Y85074D01*
X28574Y89307D01*
X28574Y102504D01*
X29119Y103050D01*
X37119Y103050D01*
D02*
G37*
G36*
X151436Y92163D02*
Y87185D01*
X149103Y84852D01*
X64012Y84848D01*
X63244Y85616D01*
X63244Y93973D01*
X64337Y95065D01*
X148534D01*
X151436Y92163D01*
D02*
G37*
%LPC*%
G36*
X34419Y84654D02*
X34048Y84618D01*
X33690Y84509D01*
X33361Y84333D01*
X33073Y84096D01*
X32836Y83808D01*
X32660Y83479D01*
X32551Y83121D01*
X32515Y82750D01*
X32551Y82378D01*
X32660Y82021D01*
X32836Y81692D01*
X33073Y81404D01*
X33361Y81167D01*
X33690Y80991D01*
X34048Y80882D01*
X34419Y80846D01*
X34791Y80882D01*
X35148Y80991D01*
X35477Y81167D01*
X35765Y81404D01*
X36002Y81692D01*
X36178Y82021D01*
X36287Y82378D01*
X36323Y82750D01*
X36287Y83121D01*
X36178Y83479D01*
X36002Y83808D01*
X35765Y84096D01*
X35477Y84333D01*
X35148Y84509D01*
X34791Y84618D01*
X34419Y84654D01*
D02*
G37*
G36*
X124747Y92522D02*
X124257Y92474D01*
X123786Y92331D01*
X123352Y92099D01*
X122971Y91786D01*
X122659Y91406D01*
X122427Y90971D01*
X122284Y90500D01*
X122235Y90010D01*
X122284Y89520D01*
X122427Y89049D01*
X122659Y88614D01*
X122971Y88234D01*
X123352Y87921D01*
X123786Y87689D01*
X124257Y87546D01*
X124747Y87498D01*
X125237Y87546D01*
X125709Y87689D01*
X126143Y87921D01*
X126524Y88234D01*
X126836Y88614D01*
X127068Y89049D01*
X127211Y89520D01*
X127259Y90010D01*
X127211Y90500D01*
X127068Y90971D01*
X126836Y91406D01*
X126524Y91786D01*
X126143Y92099D01*
X125709Y92331D01*
X125237Y92474D01*
X124747Y92522D01*
D02*
G37*
%LPD*%
D12*
X157678Y39258D02*
Y38358D01*
X158128D01*
X158278Y38508D01*
Y38658D01*
X158128Y38808D01*
X157678D01*
X158128D01*
X158278Y38958D01*
Y39108D01*
X158128Y39258D01*
X157678D01*
X158728Y38358D02*
X159028D01*
X159178Y38508D01*
Y38808D01*
X159028Y38958D01*
X158728D01*
X158578Y38808D01*
Y38508D01*
X158728Y38358D01*
X159628Y39108D02*
Y38958D01*
X159478D01*
X159778D01*
X159628D01*
Y38508D01*
X159778Y38358D01*
X160377Y39108D02*
Y38958D01*
X160227D01*
X160527D01*
X160377D01*
Y38508D01*
X160527Y38358D01*
X161127D02*
X161427D01*
X161577Y38508D01*
Y38808D01*
X161427Y38958D01*
X161127D01*
X160977Y38808D01*
Y38508D01*
X161127Y38358D01*
X161877D02*
Y38958D01*
X162027D01*
X162177Y38808D01*
Y38358D01*
Y38808D01*
X162327Y38958D01*
X162477Y38808D01*
Y38358D01*
X163676Y39258D02*
Y38358D01*
X164276D01*
X164726Y38958D02*
X165026D01*
X165176Y38808D01*
Y38358D01*
X164726D01*
X164576Y38508D01*
X164726Y38658D01*
X165176D01*
X165476Y38958D02*
Y38508D01*
X165626Y38358D01*
X166076D01*
Y38208D01*
X165926Y38059D01*
X165776D01*
X166076Y38358D02*
Y38958D01*
X166825Y38358D02*
X166525D01*
X166375Y38508D01*
Y38808D01*
X166525Y38958D01*
X166825D01*
X166975Y38808D01*
Y38658D01*
X166375D01*
X167275Y38958D02*
Y38358D01*
Y38658D01*
X167425Y38808D01*
X167575Y38958D01*
X167725D01*
X157559Y37372D02*
X158159D01*
X157859D01*
Y36472D01*
X158909Y37372D02*
X158609D01*
X158459Y37222D01*
Y36622D01*
X158609Y36472D01*
X158909D01*
X159059Y36622D01*
Y37222D01*
X158909Y37372D01*
X159359Y36472D02*
Y37372D01*
X159809D01*
X159959Y37222D01*
Y36922D01*
X159809Y36772D01*
X159359D01*
X161158Y37372D02*
Y36772D01*
X161458Y36472D01*
X161758Y36772D01*
Y37372D01*
X162058D02*
X162358D01*
X162208D01*
Y36472D01*
X162058D01*
X162358D01*
X163407Y37372D02*
X162808D01*
Y36472D01*
X163407D01*
X162808Y36922D02*
X163108D01*
X163707Y37372D02*
Y36472D01*
X164007Y36772D01*
X164307Y36472D01*
Y37372D01*
X165507Y36472D02*
Y37372D01*
X165957D01*
X166107Y37222D01*
Y36922D01*
X165957Y36772D01*
X165507D01*
X166856Y37372D02*
X166556D01*
X166406Y37222D01*
Y36622D01*
X166556Y36472D01*
X166856D01*
X167006Y36622D01*
Y37222D01*
X166856Y37372D01*
X167906Y37222D02*
X167756Y37372D01*
X167456D01*
X167306Y37222D01*
Y37072D01*
X167456Y36922D01*
X167756D01*
X167906Y36772D01*
Y36622D01*
X167756Y36472D01*
X167456D01*
X167306Y36622D01*
X168206Y37372D02*
X168506D01*
X168356D01*
Y36472D01*
X168206D01*
X168506D01*
X168956Y37372D02*
X169555D01*
X169256D01*
Y36472D01*
X169855Y37372D02*
X170155D01*
X170005D01*
Y36472D01*
X169855D01*
X170155D01*
X170605Y37372D02*
Y36772D01*
X170905Y36472D01*
X171205Y36772D01*
Y37372D01*
X172105D02*
X171505D01*
Y36472D01*
X172105D01*
X171505Y36922D02*
X171805D01*
X125122Y10460D02*
X124822D01*
X124972D01*
Y9560D01*
X125122D01*
X124822D01*
X124372D02*
Y10460D01*
X123772Y9560D01*
Y10460D01*
X122872D02*
X123472D01*
Y10010D01*
X123172D01*
X123472D01*
Y9560D01*
X122572Y10460D02*
X122273D01*
X122423D01*
Y9560D01*
X122572D01*
X122273D01*
X121823Y10460D02*
Y9560D01*
X121223D01*
X120923Y10460D02*
X120623D01*
X120773D01*
Y9560D01*
X120923D01*
X120623D01*
X119274Y10460D02*
X118674D01*
X118974D01*
Y9560D01*
X117774Y10460D02*
X118374D01*
Y9560D01*
X117774D01*
X118374Y10010D02*
X118074D01*
X116874Y10310D02*
X117024Y10460D01*
X117324D01*
X117474Y10310D01*
Y9710D01*
X117324Y9560D01*
X117024D01*
X116874Y9710D01*
X116574Y10460D02*
Y9560D01*
Y10010D01*
X115975D01*
Y10460D01*
Y9560D01*
X115675D02*
Y10460D01*
X115075Y9560D01*
Y10460D01*
X114325D02*
X114625D01*
X114775Y10310D01*
Y9710D01*
X114625Y9560D01*
X114325D01*
X114175Y9710D01*
Y10310D01*
X114325Y10460D01*
X113875D02*
Y9560D01*
X113275D01*
X112526Y10460D02*
X112826D01*
X112976Y10310D01*
Y9710D01*
X112826Y9560D01*
X112526D01*
X112376Y9710D01*
Y10310D01*
X112526Y10460D01*
X111476Y10310D02*
X111626Y10460D01*
X111926D01*
X112076Y10310D01*
Y9710D01*
X111926Y9560D01*
X111626D01*
X111476Y9710D01*
Y10010D01*
X111776D01*
X111176Y10460D02*
X110876D01*
X111026D01*
Y9560D01*
X111176D01*
X110876D01*
X109827Y10460D02*
X110426D01*
Y9560D01*
X109827D01*
X110426Y10010D02*
X110127D01*
X108927Y10310D02*
X109077Y10460D01*
X109377D01*
X109527Y10310D01*
Y10160D01*
X109377Y10010D01*
X109077D01*
X108927Y9860D01*
Y9710D01*
X109077Y9560D01*
X109377D01*
X109527Y9710D01*
X122040Y4963D02*
Y4363D01*
X121740Y4063D01*
X121440Y4363D01*
Y4963D01*
X120690Y4063D02*
X120990D01*
X121140Y4213D01*
Y4513D01*
X120990Y4663D01*
X120690D01*
X120540Y4513D01*
Y4363D01*
X121140D01*
X120240Y4663D02*
Y4063D01*
Y4363D01*
X120090Y4513D01*
X119940Y4663D01*
X119790D01*
X119340Y4063D02*
Y4213D01*
X119190D01*
Y4063D01*
X119340D01*
X117691D02*
X117391D01*
X117541D01*
Y4963D01*
X117691Y4813D01*
X116941Y4063D02*
Y4213D01*
X116791D01*
Y4063D01*
X116941D01*
X116191Y4813D02*
X116041Y4963D01*
X115742D01*
X115592Y4813D01*
Y4213D01*
X115742Y4063D01*
X116041D01*
X116191Y4213D01*
Y4813D01*
X115292D02*
X115142Y4963D01*
X114842D01*
X114692Y4813D01*
Y4213D01*
X114842Y4063D01*
X115142D01*
X115292Y4213D01*
Y4813D01*
X121551Y7660D02*
Y6760D01*
X121102D01*
X120952Y6910D01*
Y7060D01*
X121102Y7210D01*
X121551D01*
X121102D01*
X120952Y7360D01*
Y7510D01*
X121102Y7660D01*
X121551D01*
X120652Y6760D02*
Y7660D01*
X120202D01*
X120052Y7510D01*
Y7210D01*
X120202Y7060D01*
X120652D01*
X120352D02*
X120052Y6760D01*
X119752D02*
Y7660D01*
X119452Y7360D01*
X119152Y7660D01*
Y6760D01*
X118253Y7510D02*
X118403Y7660D01*
X118702D01*
X118852Y7510D01*
Y6910D01*
X118702Y6760D01*
X118403D01*
X118253Y6910D01*
X117953Y7210D02*
X117353D01*
X116603Y6760D02*
Y7660D01*
X117053Y7210D01*
X116453D01*
X116153Y7510D02*
X116003Y7660D01*
X115703D01*
X115553Y7510D01*
Y7360D01*
X115703Y7210D01*
X115553Y7060D01*
Y6910D01*
X115703Y6760D01*
X116003D01*
X116153Y6910D01*
Y7060D01*
X116003Y7210D01*
X116153Y7360D01*
Y7510D01*
X116003Y7210D02*
X115703D01*
X115254D02*
X114654D01*
X114354Y6760D02*
X114054D01*
X114204D01*
Y7660D01*
X114354Y7510D01*
X113604D02*
X113454Y7660D01*
X113154D01*
X113004Y7510D01*
Y6910D01*
X113154Y6760D01*
X113454D01*
X113604Y6910D01*
Y7510D01*
D15*
X52540Y62623D02*
X52552Y62611D01*
X60325D01*
X64058Y51104D02*
X72644Y59690D01*
X55906Y57097D02*
X58066D01*
X66782Y5961D02*
X66839Y6018D01*
X59944Y24845D02*
X66839Y17950D01*
Y6018D02*
Y17950D01*
X59944Y24845D02*
Y25527D01*
X35814Y22098D02*
X35873Y22157D01*
Y23990D01*
X45450Y33567D01*
X26207Y20828D02*
X26262Y20883D01*
X39332D02*
X40115Y21666D01*
X26262Y20883D02*
X39332D01*
X40115Y21666D02*
Y22686D01*
X48002Y30573D02*
Y32380D01*
X40115Y22686D02*
X48002Y30573D01*
X57365Y30880D02*
X61106D01*
X55407Y32838D02*
X57365Y30880D01*
X61106D02*
X66675Y36449D01*
X51491Y27264D02*
Y29413D01*
X53546Y31468D01*
X65405Y60579D02*
X96901D01*
X116044Y59690D02*
X117587Y61233D01*
X72644Y59690D02*
X116044D01*
X72515Y36449D02*
X72517Y36447D01*
X66675Y36449D02*
X72515D01*
X55867Y40272D02*
X55880Y40259D01*
X56847D01*
X46482Y25410D02*
X52388Y31316D01*
X43322Y22957D02*
X51888Y31523D01*
X42164Y22506D02*
X51201Y31543D01*
X41148Y22197D02*
X50539Y31588D01*
Y33057D01*
X41148Y14550D02*
Y22197D01*
X51201Y31543D02*
Y32652D01*
X42164Y13589D02*
Y22506D01*
X51888Y31523D02*
Y31949D01*
X43322Y16846D02*
Y22957D01*
X52388Y31316D02*
Y31645D01*
X46482Y16764D02*
Y25410D01*
X51888Y31949D02*
X55957Y36018D01*
Y37669D01*
X52388Y31645D02*
X55140Y34397D01*
X55588D01*
X51201Y32652D02*
X53068Y34520D01*
Y42876D01*
X52730Y43214D02*
X53068Y42876D01*
X52730Y43214D02*
Y43302D01*
X50539Y33057D02*
X51980Y34498D01*
Y43613D01*
X53546Y31468D02*
Y32096D01*
X55347Y33897D01*
X55795D01*
X57885Y36694D02*
Y37612D01*
X43180Y26924D02*
Y28788D01*
X50673Y36281D01*
X56007Y44798D02*
X62966Y51757D01*
Y57854D01*
X39624Y13026D02*
X41148Y14550D01*
X39624Y9283D02*
Y13026D01*
X51423Y35801D02*
Y40189D01*
X48002Y32380D02*
X51423Y35801D01*
X55588Y34397D02*
X57885Y36694D01*
X55795Y33897D02*
X60801Y38902D01*
Y40653D01*
X117587Y61233D02*
Y66867D01*
X55473Y57531D02*
X55906Y57097D01*
X62731Y50292D02*
X67056D01*
X56527Y44088D02*
X62731Y50292D01*
X56527Y43629D02*
Y44088D01*
X56938Y38559D02*
X57885Y37612D01*
X56762Y38735D02*
X56938Y38559D01*
X59101Y31877D02*
X59133Y31909D01*
X60020D01*
X65278Y37166D01*
Y46228D01*
X49530Y41196D02*
X50415D01*
X51423Y40189D01*
X24130Y20766D02*
X36257Y32893D01*
X24130Y19558D02*
Y20766D01*
X43644Y34836D02*
Y40111D01*
X30906Y22098D02*
X43644Y34836D01*
X30734Y22098D02*
X30906D01*
X46030Y41118D02*
X46083Y41065D01*
X44650Y41118D02*
X46030D01*
X45432Y39729D02*
X45450Y39711D01*
X46083Y41065D02*
X46211D01*
X45450Y33567D02*
Y39711D01*
X44394Y34107D02*
Y39729D01*
X52197Y43829D02*
Y44323D01*
X51980Y43613D02*
X52197Y43829D01*
X42591Y42154D02*
Y42389D01*
X40788Y40351D02*
X42591Y42154D01*
X67056Y50292D02*
X67188Y50424D01*
X46200Y32865D02*
Y37716D01*
X33307Y23020D02*
X44394Y34107D01*
X42969Y37452D02*
Y40497D01*
X43644Y40111D02*
X44650Y41118D01*
X40428Y39017D02*
X44719Y43308D01*
Y44945D01*
X40428Y39007D02*
Y39017D01*
X38354Y25019D02*
X46200Y32865D01*
X55318Y42420D02*
X56527Y43629D01*
X55318Y41310D02*
Y42420D01*
X57023Y40435D02*
Y42433D01*
X56847Y40259D02*
X57023Y40435D01*
X50673Y36281D02*
Y39878D01*
X55835Y51562D02*
X56769D01*
X48179Y59219D02*
X55835Y51562D01*
X48179Y59219D02*
Y59494D01*
X46853Y59485D02*
X55792Y50546D01*
X46853Y59485D02*
Y60676D01*
X55792Y50546D02*
X57186D01*
X52114Y51727D02*
X55461Y48381D01*
X55478D01*
X48794Y51727D02*
X52114D01*
X51244Y53658D02*
X55118Y49784D01*
X48107Y53658D02*
X51244D01*
X75438Y61468D02*
X94234D01*
X94297Y61532D01*
X71762Y63493D02*
X97401D01*
X97409Y63500D01*
X71755Y63485D02*
X71762Y63493D01*
X55141Y43304D02*
Y43411D01*
X45466Y53086D02*
X55141Y43411D01*
X55880Y38735D02*
X56762D01*
X54610Y37973D02*
Y38709D01*
Y37973D02*
X54914Y37669D01*
X55957D01*
X42850Y63144D02*
X42926Y63221D01*
X43536D01*
X38354Y22098D02*
Y25019D01*
X33307Y22131D02*
Y23020D01*
X33274Y22098D02*
X33307Y22131D01*
X50927Y57531D02*
X55473D01*
X41649Y13074D02*
X42164Y13589D01*
X41129Y12573D02*
X41630Y13074D01*
X41649D01*
X41021Y12573D02*
X41129D01*
X65278Y46228D02*
X77978Y58928D01*
X80137D01*
X62611Y63373D02*
X65405Y60579D01*
X36302Y5961D02*
X39624Y9283D01*
X45466Y53086D02*
Y57150D01*
X36257Y32893D02*
X37338D01*
X36514Y40832D02*
X37846Y42164D01*
X36514Y35553D02*
Y40832D01*
X35028Y34067D02*
X36514Y35553D01*
X40216Y40351D02*
X40788D01*
X38262Y37637D02*
Y38396D01*
X38221Y37596D02*
X38262Y37637D01*
Y38396D02*
X40216Y40351D01*
X40651Y35134D02*
X42969Y37452D01*
X39579Y35134D02*
X40651D01*
X37338Y32893D02*
X39579Y35134D01*
X60325Y62611D02*
X61214Y61722D01*
X43536Y63221D02*
X43688Y63373D01*
X62611D01*
D96*
X17676Y78594D02*
D03*
X15726D02*
D03*
D99*
X15913Y76700D02*
D03*
X19183D02*
D03*
D101*
X63115Y79386D02*
D03*
Y76836D02*
D03*
X41979Y89293D02*
D03*
Y86743D02*
D03*
D102*
X124883Y82869D02*
D03*
X127433D02*
D03*
X83198Y79338D02*
D03*
X85748D02*
D03*
X25400Y90424D02*
D03*
X22850D02*
D03*
X100596Y79914D02*
D03*
X103146D02*
D03*
D103*
X54610Y38709D02*
D03*
Y40259D02*
D03*
X55880Y40285D02*
D03*
Y38735D02*
D03*
D112*
X57005Y91162D02*
D03*
Y93062D02*
D03*
X59105Y92112D02*
D03*
D120*
X15875Y80137D02*
D03*
X17425D02*
D03*
X59017Y89729D02*
D03*
X57467D02*
D03*
D123*
X100596Y79742D02*
Y79914D01*
X98960Y78802D02*
Y79007D01*
X99420Y79467D01*
X100321D01*
X100596Y79742D01*
X24003Y65278D02*
X25073D01*
X27495Y62856D02*
X27573D01*
X25073Y65278D02*
X27495Y62856D01*
X31011Y66294D02*
X48387D01*
X27573Y62856D02*
X31011Y66294D01*
X17425Y80137D02*
X17551Y80011D01*
Y78720D02*
X17676Y78594D01*
X17551Y78720D02*
Y80011D01*
X41831Y89441D02*
Y91024D01*
X24026Y74466D02*
Y74626D01*
X22709Y75943D02*
X24026Y74626D01*
X22709Y75943D02*
Y78740D01*
X37096Y90965D02*
X39315D01*
X106325Y65304D02*
X113059D01*
X116470Y61893D01*
X105462Y66167D02*
X106325Y65304D01*
X69405Y27940D02*
X70268Y28803D01*
Y33618D01*
X68326Y27940D02*
X69405D01*
X68707Y35179D02*
X70268Y33618D01*
X57005Y93062D02*
Y93918D01*
X56710Y94213D02*
X57005Y93918D01*
X53773Y94213D02*
X56710D01*
X51146Y96840D02*
X53773Y94213D01*
X57005Y93062D02*
X57034Y93092D01*
X51146Y96840D02*
X51322Y97017D01*
X52586Y29425D02*
X55245Y26766D01*
Y25273D02*
Y26766D01*
Y25273D02*
X56515Y26543D01*
X17825Y77055D02*
Y78740D01*
X26719Y82750D02*
X26797D01*
X17825Y78740D02*
X22709D01*
X26719Y82750D01*
X18118Y76762D02*
X19129D01*
X17825Y77055D02*
X18118Y76762D01*
X15905Y76944D02*
X15935Y76914D01*
X15905Y76944D02*
Y78710D01*
X15875Y78740D02*
X15905Y78710D01*
X94107Y66167D02*
X105462D01*
X85725D02*
X94107D01*
X85644D02*
X85725D01*
X48460Y66367D02*
Y68888D01*
X48387Y66294D02*
X48460Y66367D01*
X54610Y40259D02*
X54623Y40272D01*
X55867D01*
X62002Y26543D02*
X63145Y25400D01*
X56515Y26543D02*
X62002D01*
X55245Y7338D02*
Y25273D01*
X26142Y5447D02*
X27840Y3749D01*
X58613D01*
X59309Y4445D01*
X55245Y7338D02*
X56622Y5961D01*
X26142Y5447D02*
Y5961D01*
X59309Y9307D02*
X61341Y11339D01*
Y16510D01*
X48387Y66294D02*
X61976D01*
X59309Y4445D02*
Y9307D01*
X71882Y66294D02*
X85517D01*
X69977D02*
X71882D01*
X61976D02*
X69977D01*
Y64897D02*
Y66294D01*
X92615Y82401D02*
X92964Y82750D01*
X55286Y82718D02*
X55372Y82632D01*
X22860Y84273D02*
Y85598D01*
X21337Y82750D02*
X22860Y84273D01*
X22850Y88588D02*
Y90424D01*
Y88588D02*
X22860Y88578D01*
X42280Y86614D02*
X45538D01*
X34419Y82750D02*
X34798Y83129D01*
X15875Y80137D02*
Y82748D01*
Y78740D02*
Y80137D01*
Y82748D02*
X15877Y82750D01*
D124*
X69850Y5938D02*
Y17576D01*
X63853Y3810D02*
X67722D01*
X69850Y5938D01*
X66352Y45261D02*
X66394Y45304D01*
X74470Y22196D02*
Y39139D01*
X66394Y45304D02*
X68306D01*
X74470Y39139D01*
X110044Y75345D02*
X110113Y75276D01*
X88352Y75692D02*
X88699Y75345D01*
X88265Y75692D02*
X88352D01*
X88699Y75345D02*
X110044D01*
X148475Y98683D02*
X148493Y98700D01*
X69850Y17576D02*
X74470Y22196D01*
X61702Y5961D02*
X63853Y3810D01*
D125*
X45538Y86614D02*
Y91876D01*
Y82949D02*
Y86614D01*
X40386Y97028D02*
X45538Y91876D01*
D126*
X34325Y74309D02*
X75813D01*
X34299Y74335D02*
X34325Y74309D01*
X75813D02*
X76352Y73771D01*
X25400Y90424D02*
X28904D01*
X14171Y43814D02*
X14553Y44196D01*
X20320D01*
D127*
X45388Y76984D02*
Y77883D01*
Y80552D02*
Y82701D01*
Y78775D02*
Y79649D01*
Y80552D01*
Y77883D02*
Y78775D01*
X45339Y82750D02*
X45538Y82949D01*
X45339Y82750D02*
X45388Y82701D01*
X94669Y42872D02*
X108204D01*
X39879Y82750D02*
Y82750D01*
X115570Y97028D02*
X115639Y97097D01*
X94488Y2921D02*
Y17907D01*
Y38227D02*
Y43053D01*
Y28067D02*
Y38227D01*
Y17907D02*
Y28067D01*
Y43053D02*
Y48387D01*
X79381Y82997D02*
X79628Y82750D01*
X21337D02*
Y83099D01*
X117193Y82777D02*
X117220Y82750D01*
D128*
X85748Y96854D02*
X85855Y96960D01*
X85748Y94255D02*
Y96558D01*
X62230Y97003D02*
X62937D01*
X64694Y92686D02*
Y95245D01*
X62937Y97003D02*
X64694Y95245D01*
X129160Y79275D02*
X131655D01*
X138212Y77372D02*
X144076D01*
X148235D01*
X126161Y79275D02*
X129160D01*
X118374D02*
X126161D01*
X117220Y80332D02*
X117897Y79655D01*
X117220Y80332D02*
Y82750D01*
X106979Y79655D02*
X117897D01*
X106130Y80504D02*
X106979Y79655D01*
X133558Y77372D02*
X138212D01*
X103884Y82750D02*
X106130Y80504D01*
X131655Y79275D02*
X133558Y77372D01*
D129*
X66212Y84316D02*
Y85411D01*
X79634Y84349D02*
Y85444D01*
D130*
X120597Y96966D02*
D03*
X103871Y96955D02*
D03*
X85855Y96960D02*
D03*
X25400Y96977D02*
D03*
X67310Y97003D02*
D03*
X45466Y96977D02*
D03*
D131*
X115517Y96966D02*
D03*
X98791Y96955D02*
D03*
X80775Y96960D02*
D03*
X20320Y96977D02*
D03*
X62230Y97003D02*
D03*
X40386Y96977D02*
D03*
D132*
X142748Y33347D02*
D03*
X142765Y43251D02*
D03*
X125476Y43126D02*
D03*
X108204Y33220D02*
D03*
X125730Y33347D02*
D03*
X108204Y42872D02*
D03*
D133*
X142748Y25847D02*
D03*
X142765Y50751D02*
D03*
X125476Y50626D02*
D03*
X108204Y25720D02*
D03*
X125730Y25847D02*
D03*
X108204Y50372D02*
D03*
D134*
X148442Y67147D02*
D03*
X142726Y5590D02*
D03*
X148493Y88540D02*
D03*
X6968Y67967D02*
D03*
D135*
X138282Y67147D02*
D03*
X148442Y77307D02*
D03*
X138282D02*
D03*
X66782Y5961D02*
D03*
X61702D02*
D03*
X56622D02*
D03*
X51542D02*
D03*
X46462D02*
D03*
X41382D02*
D03*
X36302D02*
D03*
X31222D02*
D03*
X26142D02*
D03*
X21062D02*
D03*
X15982D02*
D03*
X10902D02*
D03*
X132566Y5590D02*
D03*
X142726Y15750D02*
D03*
X132566D02*
D03*
X138333Y88540D02*
D03*
X148493Y98700D02*
D03*
X138333D02*
D03*
X17128Y67967D02*
D03*
X6968Y57807D02*
D03*
X17128D02*
D03*
D136*
X74168Y82750D02*
D03*
X79628D02*
D03*
X85088D02*
D03*
X14171Y32894D02*
D03*
Y38354D02*
D03*
Y43814D02*
D03*
X45339Y82750D02*
D03*
X39879D02*
D03*
X34419D02*
D03*
X15877Y82750D02*
D03*
X21337D02*
D03*
X26797D02*
D03*
X111760D02*
D03*
X117220D02*
D03*
X122680D02*
D03*
X66216Y82753D02*
D03*
X60756D02*
D03*
X55296D02*
D03*
X92964Y82750D02*
D03*
X98424D02*
D03*
X103884D02*
D03*
D137*
X56226Y96840D02*
D03*
X42164Y52070D02*
D03*
Y55118D02*
D03*
D138*
X53686Y96840D02*
D03*
X51146D02*
D03*
X39624Y52070D02*
D03*
X68707Y32639D02*
D03*
Y35179D02*
D03*
Y37719D02*
D03*
Y40259D02*
D03*
X35028Y34067D02*
D03*
Y36607D02*
D03*
Y39147D02*
D03*
Y41687D02*
D03*
Y44227D02*
D03*
X101595Y17604D02*
D03*
Y15064D02*
D03*
X40428Y44087D02*
D03*
Y41547D02*
D03*
Y39007D02*
D03*
Y36467D02*
D03*
Y33927D02*
D03*
X39624Y55118D02*
D03*
D139*
X68707Y30099D02*
D03*
X35028Y46767D02*
D03*
X101595Y12524D02*
D03*
X40428Y46627D02*
D03*
D140*
X8988Y30089D02*
D03*
Y48189D02*
D03*
D141*
X38354Y14478D02*
D03*
X35814D02*
D03*
X33274D02*
D03*
X30734D02*
D03*
Y22098D02*
D03*
X33274D02*
D03*
X35814D02*
D03*
X38354D02*
D03*
D142*
X79226Y2746D02*
D03*
X81766D02*
D03*
X84306D02*
D03*
X86846D02*
D03*
X91926D02*
D03*
X94466D02*
D03*
X79248Y28067D02*
D03*
X81788D02*
D03*
X84328D02*
D03*
X86868D02*
D03*
X91948D02*
D03*
X94488D02*
D03*
X79248Y38227D02*
D03*
X81788D02*
D03*
X84328D02*
D03*
X86868D02*
D03*
X91948D02*
D03*
X94488D02*
D03*
Y48387D02*
D03*
X91948D02*
D03*
X86868D02*
D03*
X84328D02*
D03*
X81788D02*
D03*
X79248D02*
D03*
X94488Y17907D02*
D03*
X91948D02*
D03*
X86868D02*
D03*
X84328D02*
D03*
X81788D02*
D03*
X79248D02*
D03*
D143*
X97006Y2746D02*
D03*
X97028Y28067D02*
D03*
Y38227D02*
D03*
Y48387D02*
D03*
Y17907D02*
D03*
D144*
X2482Y2769D02*
D03*
X152918Y2389D02*
D03*
X152782Y107002D02*
D03*
X2749Y106608D02*
D03*
D145*
X53721Y89989D02*
D03*
X3399Y89993D02*
D03*
X49403Y89989D02*
D03*
X124747Y90010D02*
D03*
D146*
X41790Y76638D02*
D03*
X41535Y77487D02*
D03*
X39198Y77404D02*
D03*
X43098Y77849D02*
D03*
X41134Y76022D02*
D03*
X42809Y78696D02*
D03*
X42154Y78095D02*
D03*
X41969Y78989D02*
D03*
X40929Y76890D02*
D03*
X40289Y76261D02*
D03*
X39663Y75629D02*
D03*
X41317Y78385D02*
D03*
X40654Y77753D02*
D03*
X39413Y76479D02*
D03*
X40043Y77121D02*
D03*
X41132Y79240D02*
D03*
X40482Y78637D02*
D03*
X39853Y78007D02*
D03*
X38586Y76754D02*
D03*
X42414Y77262D02*
D03*
X40508Y75405D02*
D03*
X118157Y76914D02*
D03*
X117279Y76938D02*
D03*
X118560Y76137D02*
D03*
X117687Y76175D02*
D03*
X77977Y73529D02*
D03*
X45358Y79649D02*
D03*
X45395Y78775D02*
D03*
X45377Y77883D02*
D03*
X45388Y76984D02*
D03*
X45365Y80552D02*
D03*
X118550Y74586D02*
D03*
X78869Y73566D02*
D03*
X79789Y73552D02*
D03*
X80705Y73537D02*
D03*
X81114Y74341D02*
D03*
X79370Y74307D02*
D03*
X80281Y74336D02*
D03*
X78484D02*
D03*
X77593D02*
D03*
X77145Y75130D02*
D03*
X80695Y75139D02*
D03*
X79784Y75100D02*
D03*
X78918Y75115D02*
D03*
X78026D02*
D03*
X81168Y75894D02*
D03*
X80228Y75880D02*
D03*
X79341Y75909D02*
D03*
X78450Y75885D02*
D03*
X77568Y75909D02*
D03*
X76697Y75889D02*
D03*
X115051Y74610D02*
D03*
X116815Y74615D02*
D03*
X117678Y74624D02*
D03*
X115923Y74596D02*
D03*
X115487Y75383D02*
D03*
X118986Y75359D02*
D03*
X117251Y75388D02*
D03*
X118114Y75397D02*
D03*
X116360Y75369D02*
D03*
X114605Y75359D02*
D03*
X115933Y76146D02*
D03*
X116374Y76914D02*
D03*
X115482Y76947D02*
D03*
X125711Y79301D02*
D03*
X126161Y78541D02*
D03*
X145371Y77446D02*
D03*
X127491Y79314D02*
D03*
X126613Y79308D02*
D03*
X117934Y79333D02*
D03*
X118379Y78561D02*
D03*
X118374Y80132D02*
D03*
X119268Y80126D02*
D03*
X142747Y77440D02*
D03*
X143606Y77449D02*
D03*
X143170Y76674D02*
D03*
X144056Y76689D02*
D03*
X143175Y78233D02*
D03*
X144076Y78257D02*
D03*
X144960Y78218D02*
D03*
X144501Y77437D02*
D03*
X144951Y76686D02*
D03*
X126181Y80109D02*
D03*
X127065Y80071D02*
D03*
X127056Y78538D02*
D03*
X119234Y78582D02*
D03*
X119670Y79357D02*
D03*
X118811Y79348D02*
D03*
X114579Y76911D02*
D03*
X32604Y100495D02*
D03*
X29914D02*
D03*
X30811D02*
D03*
X31707D02*
D03*
X29018D02*
D03*
X35294D02*
D03*
X36190D02*
D03*
X37087D02*
D03*
X33501D02*
D03*
X34397D02*
D03*
X34412Y99606D02*
D03*
X33515D02*
D03*
X37102D02*
D03*
X36205D02*
D03*
X35308D02*
D03*
X29032D02*
D03*
X31722D02*
D03*
X30825D02*
D03*
X29929D02*
D03*
X32619D02*
D03*
X32593Y101384D02*
D03*
X29903D02*
D03*
X30800D02*
D03*
X31696D02*
D03*
X29007D02*
D03*
X35283D02*
D03*
X36179D02*
D03*
X37076D02*
D03*
X33490D02*
D03*
X34386D02*
D03*
X34372Y102272D02*
D03*
X33475D02*
D03*
X37061D02*
D03*
X36165D02*
D03*
X35268D02*
D03*
X28992D02*
D03*
X31682D02*
D03*
X30785D02*
D03*
X29889D02*
D03*
X32578D02*
D03*
X116824Y76165D02*
D03*
X115061Y76160D02*
D03*
X87675Y13081D02*
D03*
X20320Y44196D02*
D03*
D147*
X153402Y21181D02*
D03*
X66352Y45261D02*
D03*
X59614Y36322D02*
D03*
X27566Y62856D02*
D03*
X42697Y65202D02*
D03*
X23175Y72345D02*
D03*
X98708Y73809D02*
D03*
X112064Y73165D02*
D03*
X24026Y74466D02*
D03*
X60630Y73406D02*
D03*
X60533Y75209D02*
D03*
X39167Y71580D02*
D03*
X34299Y74335D02*
D03*
X62216Y53159D02*
D03*
X64058Y51104D02*
D03*
X58066Y57097D02*
D03*
X52540Y62623D02*
D03*
X31334Y75798D02*
D03*
X105346Y77868D02*
D03*
X69317Y79256D02*
D03*
X64933Y21472D02*
D03*
X64706Y78793D02*
D03*
X76352Y73771D02*
D03*
X90525Y76359D02*
D03*
X51491Y27264D02*
D03*
X100010Y76793D02*
D03*
X151505Y51798D02*
D03*
X152598Y33063D02*
D03*
X68307Y47844D02*
D03*
X88265Y75692D02*
D03*
X40132Y67640D02*
D03*
X96901Y60579D02*
D03*
X101585Y78248D02*
D03*
X69511Y26856D02*
D03*
X68326Y27940D02*
D03*
X66724Y42129D02*
D03*
X20754Y25831D02*
D03*
X52586Y29425D02*
D03*
X63264Y30498D02*
D03*
X46274Y30822D02*
D03*
X59944Y25527D02*
D03*
X43180Y26924D02*
D03*
X27174Y77877D02*
D03*
X67304Y58104D02*
D03*
X62966Y57854D02*
D03*
X60481Y67356D02*
D03*
X110113Y75276D02*
D03*
X53818Y37149D02*
D03*
X55407Y32838D02*
D03*
X117381Y56930D02*
D03*
X116470Y61893D02*
D03*
X117587Y66867D02*
D03*
X31989Y56720D02*
D03*
X24180Y63621D02*
D03*
X49540Y32560D02*
D03*
X45180Y47341D02*
D03*
X57380Y39720D02*
D03*
X57340Y43840D02*
D03*
X56938Y38559D02*
D03*
X59101Y31877D02*
D03*
X61214Y34163D02*
D03*
X24130Y19558D02*
D03*
X42674Y35052D02*
D03*
X44394Y39729D02*
D03*
X46211Y41065D02*
D03*
X45432Y39729D02*
D03*
X7575Y19939D02*
D03*
X94691Y68148D02*
D03*
X52730Y43302D02*
D03*
X42591Y42389D02*
D03*
X72517Y36447D02*
D03*
X57135Y37005D02*
D03*
X71250Y67440D02*
D03*
X67188Y50424D02*
D03*
X46200Y37716D02*
D03*
X47706Y36159D02*
D03*
X42969Y40497D02*
D03*
X44719Y44945D02*
D03*
X51054Y44831D02*
D03*
X55318Y41310D02*
D03*
X57023Y42433D02*
D03*
X56007Y44798D02*
D03*
X49923Y36898D02*
D03*
X49705Y38707D02*
D03*
X46853Y60676D02*
D03*
X48179Y59494D02*
D03*
X55478Y48381D02*
D03*
X48794Y51727D02*
D03*
X48107Y53658D02*
D03*
X94107Y66167D02*
D03*
X94297Y61532D02*
D03*
X97409Y63500D02*
D03*
X48460Y68888D02*
D03*
X55141Y43304D02*
D03*
X60801Y40653D02*
D03*
X61504Y46863D02*
D03*
X42850Y63144D02*
D03*
X55957Y37669D02*
D03*
X50673Y39878D02*
D03*
X49530Y41196D02*
D03*
X24003Y65278D02*
D03*
X50927Y57531D02*
D03*
X52197Y44323D02*
D03*
X29337Y31750D02*
D03*
X55245Y25273D02*
D03*
X106325Y65304D02*
D03*
X52578Y16891D02*
D03*
X33020Y65278D02*
D03*
X55118Y49784D02*
D03*
X57186Y50546D02*
D03*
X56769Y51562D02*
D03*
X80137Y58928D02*
D03*
X75438Y61468D02*
D03*
X41021Y12573D02*
D03*
X43322Y16846D02*
D03*
X26207Y20828D02*
D03*
X38221Y37596D02*
D03*
X61214Y61722D02*
D03*
X108804Y67945D02*
D03*
X63145Y25400D02*
D03*
X61341Y16510D02*
D03*
X19812Y46863D02*
D03*
X80772Y68580D02*
D03*
X69977Y64897D02*
D03*
X71882Y66294D02*
D03*
X71755Y63485D02*
D03*
X85725Y66167D02*
D03*
X61976Y66294D02*
D03*
X37846Y42164D02*
D03*
X46482Y16764D02*
D03*
X45466Y57150D02*
D03*
D149*
X59799Y76886D02*
D03*
Y79866D02*
D03*
X129160Y82853D02*
D03*
Y79873D02*
D03*
X22860Y85598D02*
D03*
Y88578D02*
D03*
D150*
X78739Y79190D02*
D03*
X81719D02*
D03*
X41831Y91024D02*
D03*
X38851D02*
D03*
X98960Y78802D02*
D03*
X95980D02*
D03*
D151*
X95869Y79153D02*
X96061D01*
X95927Y79172D02*
X96056Y79300D01*
Y80382D01*
X98424Y82750D01*
X85088D02*
X85431Y82407D01*
Y81115D02*
Y82407D01*
Y81115D02*
X85723Y80823D01*
Y79363D02*
X85748Y79338D01*
X85723Y79363D02*
Y80823D01*
X63191Y80367D02*
X66212Y83387D01*
Y84316D01*
X127433Y82869D02*
X127441Y82861D01*
X129152D01*
X129160Y82853D01*
X124883Y82835D02*
Y82869D01*
X124858Y82810D02*
X124883Y82835D01*
X122740Y82810D02*
X124858D01*
X122680Y82750D02*
X122740Y82810D01*
X103146Y79914D02*
X105540D01*
X106130Y80504D01*
X85748Y79338D02*
X85773Y79363D01*
X81719Y79190D02*
X81793Y79264D01*
X83173D01*
X83198Y79289D01*
Y79338D01*
X78739Y79190D02*
X78949Y79400D01*
Y81587D01*
X79628Y82266D01*
Y82750D01*
X63115Y79386D02*
X63166D01*
X63191Y79411D01*
Y80367D01*
X62690Y76886D02*
X62740Y76836D01*
X59799Y76886D02*
X62690D01*
X62740Y76836D02*
X63115D01*
X60756Y82271D02*
Y82753D01*
X59685Y81200D02*
X60756Y82271D01*
X59685Y79980D02*
X59799Y79866D01*
X59685Y79980D02*
Y81200D01*
X60544Y82541D02*
X60756Y82753D01*
X94488Y43053D02*
X94669Y42872D01*
X108023Y43053D02*
X108204Y42872D01*
D152*
X59017Y92024D02*
X59105Y92112D01*
X59017Y89729D02*
Y92024D01*
Y92201D02*
X59105Y92112D01*
X59017Y92201D02*
Y96280D01*
X57387Y89809D02*
X57467Y89729D01*
X57387Y89809D02*
Y90346D01*
X57175Y90558D02*
X57387Y90346D01*
X57175Y90558D02*
Y91037D01*
X57005Y91162D02*
X57050D01*
X57175Y91037D01*
X56562Y95244D02*
X57064D01*
X56226Y95581D02*
Y96840D01*
Y95581D02*
X56562Y95244D01*
X53798Y96953D02*
Y97923D01*
X54088Y98213D01*
X57083D01*
X53686Y96840D02*
X53798Y96953D01*
X57083Y98213D02*
X59017Y96280D01*
X57180Y91782D02*
X58263Y92865D01*
X57180Y91287D02*
Y91782D01*
X57064Y95244D02*
X58263Y94045D01*
Y92865D02*
Y94045D01*
M02*
