M48
;Layer_Color=9474304
;FILE_FORMAT=4:3
METRIC,LZ
;TYPE=PLATED
T1F00S00C0.500
T2F00S00C0.800
T3F00S00C0.900
T4F00S00C1.000
T5F00S00C1.050
T6F00S00C1.240
T7F00S00C1.600
T8F00S00C1.860
T9F00S00C2.000
T10F00S00C2.670
;TYPE=NON_PLATED
T11F00S00C3.500
%
T01
X0007575Y0019939
X002413Y0019558
X0026207Y0020828
X0020754Y0025831
X0029337Y003175
X0042674Y0035052
X0046274Y0030822
X004954Y003256
X0051491Y0027264
X004318Y0026924
X0043322Y0016846
X0046482Y0016764
X0041021Y0012573
X0052578Y0016891
X0061341Y001651
X0064933Y0021472
X0063145Y00254
X0059944Y0025527
X0055245Y0025273
X0052586Y0029425
X0055407Y0032838
X0059101Y0031877
X0061214Y0034163
X0063264Y0030498
X0068326Y002794
X0069511Y0026856
X0087675Y0013081
X0153402Y0021181
X0152598Y0033063
X0151505Y0051798
X0117381Y005693
X011647Y0061893
X0117587Y0066867
X0117678Y0074624
X0116815Y0074615
X0115923Y0074596
X0115051Y007461
X011855Y0074586
X0112064Y0073165
X0108804Y0067945
X0106325Y0065304
X0097409Y00635
X0096901Y0060579
X0094297Y0061532
X0094107Y0066167
X0094691Y0068148
X0098708Y0073809
X0081114Y0074341
X0080281Y0074336
X007937Y0074307
X0078484Y0074336
X0077593
X0077977Y0073529
X0078869Y0073566
X0079789Y0073552
X0080705Y0073537
X0079784Y00751
X0078918Y0075115
X0078026
X0076352Y0073771
X0080772Y006858
X0085725Y0066167
X0080137Y0058928
X0075438Y0061468
X0071755Y0063485
X0071882Y0066294
X007125Y006744
X0069977Y0064897
X0061976Y0066294
X0060481Y0067356
X006063Y0073406
X0061214Y0061722
X0062966Y0057854
X0067304Y0058104
X0067188Y0050424
X0068307Y0047844
X0066352Y0045261
X0066724Y0042129
X0060801Y0040653
X005738Y003972
X0056938Y0038559
X0057135Y0037005
X0055957Y0037669
X0053818Y0037149
X0055318Y004131
X0055141Y0043304
X0056007Y0044798
X005734Y004384
X0057023Y0042433
X005273Y0043302
X0052197Y0044323
X0055478Y0048381
X0055118Y0049784
X0057186Y0050546
X0056769Y0051562
X0058066Y0057097
X0062216Y0053159
X0064058Y0051104
X0061504Y0046863
X0059614Y0036322
X0072517Y0036447
X005254Y0062623
X0050927Y0057531
X0048179Y0059494
X0046853Y0060676
X0045466Y005715
X0048107Y0053658
X0048794Y0051727
X004518Y0047341
X0044719Y0044945
X0042591Y0042389
X0042969Y0040497
X0044394Y0039729
X0045432
X0046211Y0041065
X00462Y0037716
X0047706Y0036159
X0049923Y0036898
X0049705Y0038707
X0050673Y0039878
X004953Y0041196
X0051054Y0044831
X0037846Y0042164
X0038221Y0037596
X002032Y0044196
X0019812Y0046863
X002418Y0063621
X0024003Y0065278
X0027566Y0062856
X003302Y0065278
X0040132Y006764
X0039167Y007158
X0034299Y0074335
X0024026Y0074466
X0023175Y0072345
X0031989Y005672
X004285Y0063144
X0042697Y0065202
X004846Y0068888
X0045388Y0076984
X0045377Y0077883
X0045395Y0078775
X0045358Y0079649
X0045365Y0080552
X0042809Y0078696
X0041969Y0078989
X0042154Y0078095
X0042414Y0077262
X0041535Y0077487
X004179Y0076638
X0040929Y007689
X0041134Y0076022
X0040289Y0076261
X0040508Y0075405
X0039663Y0075629
X0039413Y0076479
X0038586Y0076754
X0039198Y0077404
X0040043Y0077121
X0039853Y0078007
X0040654Y0077753
X0040482Y0078637
X0041317Y0078385
X0041132Y007924
X0043098Y0077849
X0031334Y0075798
X0027174Y0077877
X0029032Y0099606
X0029929
X0030825
X0031722
X0032619
X0033515
X0034412
X0035308
X0036205
X0037102
X0037087Y0100495
X003619
X0035294
X0034397
X0033501
X0032604
X0031707
X0030811
X0029914
X0029018
X0029007Y0101384
X0029903
X00308
X0031696
X0032593
X003349
X0034386
X0035283
X0036179
X0037076
X0037061Y0102272
X0036165
X0035268
X0034372
X0033475
X0032578
X0031682
X0030785
X0029889
X0028992
X0060533Y0075209
X0064706Y0078793
X0069317Y0079256
X0076697Y0075889
X0077568Y0075909
X007845Y0075885
X0079341Y0075909
X0080228Y007588
X0081168Y0075894
X0080695Y0075139
X0077145Y007513
X0088265Y0075692
X0090525Y0076359
X010001Y0076793
X0101585Y0078248
X0105346Y0077868
X0110113Y0075276
X0114605Y0075359
X0115487Y0075383
X011636Y0075369
X0117251Y0075388
X0118114Y0075397
X0118986Y0075359
X011856Y0076137
X0117687Y0076175
X0116824Y0076165
X0115933Y0076146
X0115061Y007616
X0115482Y0076947
X0116374Y0076914
X0117279Y0076938
X0118157Y0076914
X0118379Y0078561
X0119234Y0078582
X0118811Y0079348
X011967Y0079357
X0119268Y0080126
X0118374Y0080132
X0117934Y0079333
X0114579Y0076911
X0126161Y0078541
X0127056Y0078538
X0127491Y0079314
X0126613Y0079308
X0125711Y0079301
X0126181Y0080109
X0127065Y0080071
X0143175Y0078233
X0144076Y0078257
X014496Y0078218
X0145371Y0077446
X0144501Y0077437
X0143606Y0077449
X0142747Y007744
X014317Y0076674
X0144056Y0076689
X0144951Y0076686
T02
X0030734Y0014478
X0033274
X0035814
X0038354
Y0022098
X0035814
X0033274
X0030734
T03
X0035028Y0034067
X0040428Y0033927
X0068707Y0035179
Y0032639
Y0030099
X0101595Y0017604
Y0015064
Y0012524
X0068707Y0037719
Y0040259
X0040428Y0039007
Y0041547
Y0044087
Y0046627
X0035028Y0046767
Y0044227
Y0041687
Y0039147
Y0036607
X0040428Y0036467
X0039624Y005207
X0042164
Y0055118
X0039624
X0051146Y009684
X0053686
X0056226
T04
X0079226Y0002746
X0081766
X0084306
X0086846
X0086868Y0017907
X0084328
X0081788
X0079248
Y0028067
X0081788
X0084328
X0086868
X0091948
X0094488
X0097028
Y0017907
X0094488
X0091948
X0091926Y0002746
X0094466
X0097006
X0097028Y0038227
X0094488
X0091948
Y0048387
X0094488
X0097028
X0086868
X0084328
X0081788
X0079248
Y0038227
X0081788
X0084328
X0086868
T05
X0108204Y002572
Y003322
X012573Y0033347
Y0025847
X0142748
Y0033347
X0142765Y0043251
Y0050751
X0125476Y0050626
Y0043126
X0108204Y0042872
Y0050372
T06
X002032Y0096977
X00254
X0040386
X0045466
X006223Y0097003
X006731
X0080775Y009696
X0085855
X0098791Y0096955
X0103871
X0115517Y0096966
X0120597
T07
X0010902Y0005961
X0015982
X0021062
X0026142
X0031222
X0036302
X0041382
X0046462
X0051542
X0056622
X0061702
X0066782
X0132566Y000559
X0142726
Y001575
X0132566
X0138282Y0067147
X0148442
X0017128Y0067967
Y0057807
X0006968
Y0067967
X0138282Y0077307
X0148442
X0148493Y008854
X0138333
Y00987
X0148493
T08
X0014171Y0032894
Y0038354
Y0043814
X0015877Y008275
X0021337
X0026797
X0034419Y008275
X0039879
X0045339
X0055296Y0082753
X0060756
X0066216
X0074168Y008275
X0079628
X0085088
X0092964
X0098424
X0103884
X011176
X011722
X012268
T09
X0008988Y0030089
Y0048189
T10
X0003399Y0089993
X0049403Y0089989
X0053721
X0124747Y009001
T11
X0002482Y0002769
X0152918Y0002389
X0002749Y0106608
X0152782Y0107002
M30
