G04*
G04 #@! TF.GenerationSoftware,Altium Limited,Altium Designer,20.0.13 (296)*
G04*
G04 Layer_Color=32896*
%FSLAX43Y43*%
%MOMM*%
G71*
G01*
G75*
%ADD10C,0.200*%
%ADD12C,0.254*%
%ADD14C,0.152*%
%ADD15C,0.300*%
%ADD16C,0.220*%
D10*
X16814Y76700D02*
G03*
X16814Y76700I-53J0D01*
G01*
X126208Y82869D02*
G03*
X126208Y82869I-50J0D01*
G01*
X84523Y79338D02*
G03*
X84523Y79338I-50J0D01*
G01*
X24175Y90424D02*
G03*
X24175Y90424I-50J0D01*
G01*
X101921Y79914D02*
G03*
X101921Y79914I-50J0D01*
G01*
X63165Y78111D02*
G03*
X63165Y78111I-50J0D01*
G01*
X42029Y88018D02*
G03*
X42029Y88018I-50J0D01*
G01*
X16751Y78594D02*
G03*
X16751Y78594I-50J0D01*
G01*
X0Y-0D02*
X155414D01*
X59011Y77843D02*
Y78884D01*
X60586Y77855D02*
Y78897D01*
X16748Y75850D02*
X18348D01*
X16748Y77550D02*
X18348D01*
X129947Y80855D02*
Y81896D01*
X128373Y80842D02*
Y81884D01*
X79708Y79978D02*
X80750D01*
X79721Y78403D02*
X80763D01*
X39833Y90236D02*
X40875D01*
X39821Y91811D02*
X40862D01*
X22073Y86567D02*
Y87609D01*
X23647Y86580D02*
Y87621D01*
X96962Y78014D02*
X98003D01*
X96949Y79589D02*
X97991D01*
D12*
X169414Y46352D02*
Y45452D01*
X168965D01*
X168815Y45602D01*
Y45752D01*
X168965Y45902D01*
X169414D01*
X168965D01*
X168815Y46052D01*
Y46202D01*
X168965Y46352D01*
X169414D01*
X168365Y45452D02*
X168065D01*
X167915Y45602D01*
Y45902D01*
X168065Y46052D01*
X168365D01*
X168515Y45902D01*
Y45602D01*
X168365Y45452D01*
X167465Y46202D02*
Y46052D01*
X167615D01*
X167315D01*
X167465D01*
Y45602D01*
X167315Y45452D01*
X166715Y46202D02*
Y46052D01*
X166865D01*
X166565D01*
X166715D01*
Y45602D01*
X166565Y45452D01*
X165966D02*
X165666D01*
X165516Y45602D01*
Y45902D01*
X165666Y46052D01*
X165966D01*
X166116Y45902D01*
Y45602D01*
X165966Y45452D01*
X165216D02*
Y46052D01*
X165066D01*
X164916Y45902D01*
Y45452D01*
Y45902D01*
X164766Y46052D01*
X164616Y45902D01*
Y45452D01*
X162967Y46352D02*
X163266D01*
X163416Y46202D01*
Y45602D01*
X163266Y45452D01*
X162967D01*
X162817Y45602D01*
Y46202D01*
X162967Y46352D01*
X162517Y46052D02*
X162217Y45452D01*
X161917Y46052D01*
X161167Y45452D02*
X161467D01*
X161617Y45602D01*
Y45902D01*
X161467Y46052D01*
X161167D01*
X161017Y45902D01*
Y45752D01*
X161617D01*
X160717Y46052D02*
Y45452D01*
Y45752D01*
X160567Y45902D01*
X160417Y46052D01*
X160267D01*
X159818Y45452D02*
X159518D01*
X159668D01*
Y46352D01*
X159818D01*
X158918Y46052D02*
X158618D01*
X158468Y45902D01*
Y45452D01*
X158918D01*
X159068Y45602D01*
X158918Y45752D01*
X158468D01*
X158168Y46052D02*
Y45602D01*
X158018Y45452D01*
X157568D01*
Y45302D01*
X157718Y45153D01*
X157868D01*
X157568Y45452D02*
Y46052D01*
X171995Y44466D02*
X171395D01*
X171695D01*
Y43566D01*
X170645Y44466D02*
X170945D01*
X171095Y44316D01*
Y43716D01*
X170945Y43566D01*
X170645D01*
X170495Y43716D01*
Y44316D01*
X170645Y44466D01*
X170195Y43566D02*
Y44466D01*
X169745D01*
X169595Y44316D01*
Y44016D01*
X169745Y43866D01*
X170195D01*
X168396Y44466D02*
Y43866D01*
X168096Y43566D01*
X167796Y43866D01*
Y44466D01*
X167496D02*
X167196D01*
X167346D01*
Y43566D01*
X167496D01*
X167196D01*
X166147Y44466D02*
X166746D01*
Y43566D01*
X166147D01*
X166746Y44016D02*
X166446D01*
X165847Y44466D02*
Y43566D01*
X165547Y43866D01*
X165247Y43566D01*
Y44466D01*
X164047Y43566D02*
Y44466D01*
X163597D01*
X163447Y44316D01*
Y44016D01*
X163597Y43866D01*
X164047D01*
X162698Y44466D02*
X162998D01*
X163148Y44316D01*
Y43716D01*
X162998Y43566D01*
X162698D01*
X162548Y43716D01*
Y44316D01*
X162698Y44466D01*
X161648Y44316D02*
X161798Y44466D01*
X162098D01*
X162248Y44316D01*
Y44166D01*
X162098Y44016D01*
X161798D01*
X161648Y43866D01*
Y43716D01*
X161798Y43566D01*
X162098D01*
X162248Y43716D01*
X161348Y44466D02*
X161048D01*
X161198D01*
Y43566D01*
X161348D01*
X161048D01*
X160598Y44466D02*
X159999D01*
X160298D01*
Y43566D01*
X159699Y44466D02*
X159399D01*
X159549D01*
Y43566D01*
X159699D01*
X159399D01*
X158949Y44466D02*
Y43866D01*
X158649Y43566D01*
X158349Y43866D01*
Y44466D01*
X157449D02*
X158049D01*
Y43566D01*
X157449D01*
X158049Y44016D02*
X157749D01*
X52891Y38946D02*
X53041Y39096D01*
X53341D01*
X53491Y38946D01*
Y38346D01*
X53341Y38196D01*
X53041D01*
X52891Y38346D01*
X51991Y39096D02*
X52291Y38946D01*
X52591Y38646D01*
Y38346D01*
X52441Y38196D01*
X52141D01*
X51991Y38346D01*
Y38496D01*
X52141Y38646D01*
X52591D01*
X51692Y38946D02*
X51542Y39096D01*
X51242D01*
X51092Y38946D01*
Y38796D01*
X51242Y38646D01*
X51392D01*
X51242D01*
X51092Y38496D01*
Y38346D01*
X51242Y38196D01*
X51542D01*
X51692Y38346D01*
X40628Y87510D02*
Y88410D01*
X40178D01*
X40028Y88260D01*
Y87960D01*
X40178Y87810D01*
X40628D01*
X40328D02*
X40028Y87510D01*
X39128D02*
X39728D01*
X39128Y88110D01*
Y88260D01*
X39278Y88410D01*
X39578D01*
X39728Y88260D01*
X38828Y88410D02*
X38229D01*
Y88260D01*
X38828Y87660D01*
Y87510D01*
X57147Y79075D02*
X57297Y79225D01*
X57597D01*
X57747Y79075D01*
Y78476D01*
X57597Y78326D01*
X57297D01*
X57147Y78476D01*
X56847Y78326D02*
X56548D01*
X56698D01*
Y79225D01*
X56847Y79075D01*
X20419Y88496D02*
X20569Y88646D01*
X20869D01*
X21019Y88496D01*
Y87896D01*
X20869Y87746D01*
X20569D01*
X20419Y87896D01*
X20119Y88496D02*
X19969Y88646D01*
X19669D01*
X19519Y88496D01*
Y88346D01*
X19669Y88196D01*
X19819D01*
X19669D01*
X19519Y88046D01*
Y87896D01*
X19669Y87746D01*
X19969D01*
X20119Y87896D01*
X13991Y80578D02*
X14141Y80728D01*
X14441D01*
X14591Y80578D01*
Y79979D01*
X14441Y79829D01*
X14141D01*
X13991Y79979D01*
X13691Y79829D02*
X13392D01*
X13541D01*
Y80728D01*
X13691Y80578D01*
X12342Y80728D02*
X12942D01*
Y80279D01*
X12642Y80429D01*
X12492D01*
X12342Y80279D01*
Y79979D01*
X12492Y79829D01*
X12792D01*
X12942Y79979D01*
X66307Y76946D02*
Y77845D01*
X65857D01*
X65707Y77695D01*
Y77395D01*
X65857Y77245D01*
X66307D01*
X66007D02*
X65707Y76946D01*
X64957D02*
Y77845D01*
X65407Y77395D01*
X64808D01*
X102355Y77405D02*
Y78304D01*
X101905D01*
X101755Y78154D01*
Y77854D01*
X101905Y77704D01*
X102355D01*
X102055D02*
X101755Y77405D01*
X100855Y78304D02*
X101455D01*
Y77854D01*
X101155Y78004D01*
X101005D01*
X100855Y77854D01*
Y77555D01*
X101005Y77405D01*
X101305D01*
X101455Y77555D01*
X24976Y92396D02*
Y93295D01*
X24526D01*
X24376Y93145D01*
Y92845D01*
X24526Y92695D01*
X24976D01*
X24676D02*
X24376Y92396D01*
X23476Y93295D02*
X23776Y93145D01*
X24076Y92845D01*
Y92545D01*
X23926Y92396D01*
X23626D01*
X23476Y92545D01*
Y92695D01*
X23626Y92845D01*
X24076D01*
X14353Y78249D02*
Y79149D01*
X13903D01*
X13753Y78999D01*
Y78699D01*
X13903Y78549D01*
X14353D01*
X14053D02*
X13753Y78249D01*
X13453D02*
X13153D01*
X13303D01*
Y79149D01*
X13453Y78999D01*
X12703Y79149D02*
X12103D01*
Y78999D01*
X12703Y78399D01*
Y78249D01*
X85747Y77125D02*
Y78024D01*
X85298D01*
X85148Y77874D01*
Y77574D01*
X85298Y77424D01*
X85747D01*
X85447D02*
X85148Y77125D01*
X84248D02*
X84848D01*
X84248Y77724D01*
Y77874D01*
X84398Y78024D01*
X84698D01*
X84848Y77874D01*
X83348Y78024D02*
X83948D01*
Y77574D01*
X83648Y77724D01*
X83498D01*
X83348Y77574D01*
Y77274D01*
X83498Y77125D01*
X83798D01*
X83948Y77274D01*
X14365Y76943D02*
X13765D01*
Y76793D01*
X14365Y76193D01*
Y76043D01*
X13765D01*
X13466Y76793D02*
X13316Y76943D01*
X13016D01*
X12866Y76793D01*
Y76643D01*
X13016Y76493D01*
X13166D01*
X13016D01*
X12866Y76343D01*
Y76193D01*
X13016Y76043D01*
X13316D01*
X13466Y76193D01*
X40519Y93483D02*
X40669Y93633D01*
X40969D01*
X41119Y93483D01*
Y92883D01*
X40969Y92733D01*
X40669D01*
X40519Y92883D01*
X40219Y92733D02*
X39919D01*
X40069D01*
Y93633D01*
X40219Y93483D01*
X39469D02*
X39320Y93633D01*
X39020D01*
X38870Y93483D01*
Y93333D01*
X39020Y93183D01*
X38870Y93033D01*
Y92883D01*
X39020Y92733D01*
X39320D01*
X39469Y92883D01*
Y93033D01*
X39320Y93183D01*
X39469Y93333D01*
Y93483D01*
X39320Y93183D02*
X39020D01*
X76873Y79295D02*
X77023Y79445D01*
X77323D01*
X77473Y79295D01*
Y78695D01*
X77323Y78545D01*
X77023D01*
X76873Y78695D01*
X76573Y78545D02*
X76273D01*
X76423D01*
Y79445D01*
X76573Y79295D01*
X75224Y79445D02*
X75524Y79295D01*
X75823Y78995D01*
Y78695D01*
X75673Y78545D01*
X75374D01*
X75224Y78695D01*
Y78845D01*
X75374Y78995D01*
X75823D01*
X132500Y83216D02*
X132650Y83366D01*
X132950D01*
X133100Y83216D01*
Y82617D01*
X132950Y82467D01*
X132650D01*
X132500Y82617D01*
X132200Y82467D02*
X131900D01*
X132050D01*
Y83366D01*
X132200Y83216D01*
X131450Y83366D02*
X130851D01*
Y83216D01*
X131450Y82617D01*
Y82467D01*
X127077Y84542D02*
Y85441D01*
X126627D01*
X126477Y85291D01*
Y84991D01*
X126627Y84841D01*
X127077D01*
X126777D02*
X126477Y84542D01*
X125577D02*
X126177D01*
X125577Y85141D01*
Y85291D01*
X125727Y85441D01*
X126027D01*
X126177Y85291D01*
X124677Y85441D02*
X124977Y85291D01*
X125277Y84991D01*
Y84691D01*
X125127Y84542D01*
X124827D01*
X124677Y84691D01*
Y84841D01*
X124827Y84991D01*
X125277D01*
X58731Y88405D02*
X58881Y88555D01*
X59181D01*
X59331Y88405D01*
Y87805D01*
X59181Y87656D01*
X58881D01*
X58731Y87805D01*
X58431Y88405D02*
X58281Y88555D01*
X57981D01*
X57831Y88405D01*
Y88255D01*
X57981Y88105D01*
X58131D01*
X57981D01*
X57831Y87955D01*
Y87805D01*
X57981Y87656D01*
X58281D01*
X58431Y87805D01*
X57082Y87656D02*
Y88555D01*
X57532Y88105D01*
X56932D01*
X55494Y93714D02*
X54894D01*
X55194D01*
Y92814D01*
X53994Y93564D02*
X54144Y93714D01*
X54444D01*
X54594Y93564D01*
Y93414D01*
X54444Y93264D01*
X54144D01*
X53994Y93114D01*
Y92964D01*
X54144Y92814D01*
X54444D01*
X54594Y92964D01*
X53694Y92814D02*
X53394D01*
X53544D01*
Y93714D01*
X53694Y93564D01*
D14*
X54210Y39484D02*
X55010D01*
X55480Y39510D02*
X56280D01*
X16650Y79737D02*
Y80537D01*
X58242Y89329D02*
Y90129D01*
D15*
X57980Y90652D02*
X58130D01*
Y93572D01*
X57980D02*
X58130D01*
X57980Y90652D02*
Y93572D01*
X56380Y90612D02*
X57630D01*
D16*
X-0Y109503D02*
X155414Y109503D01*
X155414Y-0D01*
X-0Y109504D02*
X0Y0D01*
M02*
