G04*
G04 #@! TF.GenerationSoftware,Altium Limited,Altium Designer,20.0.13 (296)*
G04*
G04 Layer_Physical_Order=1*
G04 Layer_Color=255*
%FSLAX43Y43*%
%MOMM*%
G71*
G01*
G75*
%ADD12C,0.254*%
%ADD15C,0.300*%
%ADD22R,0.559X1.461*%
%ADD95R,1.450X0.950*%
%ADD96R,0.950X1.450*%
%ADD97R,0.650X1.580*%
%ADD98R,1.920X1.580*%
%ADD99R,0.910X1.220*%
%ADD100R,1.220X0.910*%
%ADD101R,1.800X1.050*%
%ADD102R,1.050X1.800*%
%ADD103R,0.850X0.850*%
%ADD104R,1.100X0.600*%
%ADD105R,1.300X1.500*%
%ADD106R,0.600X0.850*%
%ADD107R,1.300X0.600*%
%ADD108R,3.350X1.250*%
%ADD109R,2.250X4.800*%
%ADD110R,1.200X0.600*%
%ADD111R,3.150X12.500*%
%ADD112R,1.250X0.600*%
%ADD113R,1.590X4.440*%
%ADD114R,1.590X0.640*%
%ADD115R,1.300X2.700*%
%ADD116R,1.525X0.650*%
%ADD117R,1.524X1.016*%
%ADD118R,0.300X1.475*%
%ADD119R,1.475X0.300*%
%ADD120R,0.850X0.850*%
%ADD121R,1.016X1.524*%
%ADD122R,0.850X0.600*%
%ADD123C,0.500*%
%ADD124C,0.400*%
%ADD125C,2.000*%
%ADD126C,0.600*%
%ADD127C,1.500*%
%ADD128C,3.000*%
%ADD129C,6.000*%
%ADD130R,1.860X1.860*%
%ADD131C,1.860*%
%ADD132R,1.575X1.575*%
%ADD133C,1.575*%
%ADD134R,2.400X2.400*%
%ADD135C,2.400*%
%ADD136C,2.790*%
%ADD137R,1.500X1.500*%
%ADD138C,1.500*%
%ADD139R,1.500X1.500*%
%ADD140C,3.000*%
%ADD141C,1.300*%
%ADD142C,1.508*%
%ADD143R,1.508X1.508*%
%ADD144C,3.500*%
%ADD145C,4.000*%
%ADD146C,0.900*%
%ADD147C,0.800*%
G36*
X146264Y108759D02*
X150262Y105011D01*
X150262Y98165D01*
X149106Y97010D01*
X136725D01*
X135036Y98699D01*
X131247Y98699D01*
X23310Y98699D01*
X17741D01*
X16500Y99937D01*
X16500Y106460D01*
X18800Y108759D01*
X146264Y108759D01*
D02*
G37*
G36*
X124193Y80979D02*
X124550Y80543D01*
Y77460D01*
X123746Y76450D01*
Y75476D01*
X121923Y75476D01*
X121833Y75566D01*
X121833Y76478D01*
X120884Y77427D01*
X120884Y80638D01*
X121219Y80979D01*
X124193Y80979D01*
D02*
G37*
G36*
X86364Y81105D02*
X87063Y80252D01*
Y77374D01*
X85916Y76095D01*
X85916Y75269D01*
X84103Y75269D01*
X84014Y75359D01*
X84014Y76095D01*
X82864Y77245D01*
Y80297D01*
X83661Y81105D01*
X86364Y81105D01*
D02*
G37*
G36*
X119385Y76639D02*
Y74302D01*
X119162Y74079D01*
X114314D01*
Y74326D01*
X114051D01*
X114051Y75293D01*
X114023Y77109D01*
X114278Y77365D01*
X118659D01*
X119385Y76639D01*
D02*
G37*
G36*
X43664Y78515D02*
X43664Y74457D01*
X43256Y74050D01*
X37876Y74050D01*
X37786Y74140D01*
X37786Y75100D01*
Y76584D01*
X40682Y79480D01*
X42698D01*
X43664Y78515D01*
D02*
G37*
G36*
X81625Y76655D02*
Y73598D01*
X81053Y73026D01*
X77774D01*
X77528Y73272D01*
X77528Y73724D01*
X77216Y74035D01*
X77138Y74225D01*
X77132Y74231D01*
X77132Y74366D01*
X76719Y74780D01*
X75627Y74779D01*
X75525Y74881D01*
X75525Y76105D01*
X75604D01*
Y76534D01*
X75987Y76917D01*
Y76996D01*
X81284D01*
X81625Y76655D01*
D02*
G37*
G36*
X45282Y94986D02*
X45466Y94968D01*
X45650Y94986D01*
X131435Y94986D01*
X136265Y90155D01*
X136265Y64213D01*
X133948Y61896D01*
X129801D01*
X128345Y63352D01*
X128345Y78893D01*
X128416Y79066D01*
X128449Y79314D01*
X128416Y79562D01*
X128345Y79734D01*
Y80327D01*
X123859Y84813D01*
X13938Y84813D01*
X13599Y84468D01*
X13599Y77396D01*
X19121Y71874D01*
Y65739D01*
X18546Y65165D01*
X5772D01*
X5080Y65857D01*
X5080Y87750D01*
X6081Y88751D01*
X6081Y93865D01*
X7202Y94986D01*
X12316Y94986D01*
X45282Y94986D01*
D02*
G37*
G36*
X136828Y59219D02*
X136828Y54285D01*
X143702Y47411D01*
X145817Y45296D01*
X145817Y31295D01*
X144076Y29554D01*
X126852Y29554D01*
X120299Y23001D01*
Y5667D01*
X118376Y3908D01*
X109628D01*
Y28525D01*
X105364Y32789D01*
X105364Y43571D01*
X109204Y47411D01*
X125008Y47411D01*
X128586Y50990D01*
X128586Y59761D01*
X129770Y60892D01*
X135144Y60903D01*
X136828Y59219D01*
D02*
G37*
G36*
X131668Y12913D02*
X144758D01*
X145345Y12325D01*
X145345Y4370D01*
X144897Y3922D01*
X128188Y3922D01*
X128188Y16227D01*
X128306Y16275D01*
X131668Y12913D01*
D02*
G37*
%LPC*%
G36*
X53721Y92501D02*
X53231Y92453D01*
X52760Y92310D01*
X52325Y92078D01*
X51945Y91765D01*
X51812Y91603D01*
X51312D01*
X51179Y91765D01*
X50799Y92078D01*
X50364Y92310D01*
X49893Y92453D01*
X49403Y92501D01*
X48913Y92453D01*
X48442Y92310D01*
X48007Y92078D01*
X47627Y91765D01*
X47314Y91385D01*
X47082Y90950D01*
X46939Y90479D01*
X46891Y89989D01*
X46939Y89499D01*
X47082Y89028D01*
X47314Y88593D01*
X47627Y88213D01*
X48007Y87900D01*
X48442Y87668D01*
X48913Y87525D01*
X49403Y87477D01*
X49893Y87525D01*
X50364Y87668D01*
X50799Y87900D01*
X51179Y88213D01*
X51312Y88375D01*
X51812D01*
X51945Y88213D01*
X52325Y87900D01*
X52760Y87668D01*
X53231Y87525D01*
X53721Y87477D01*
X54211Y87525D01*
X54682Y87668D01*
X55117Y87900D01*
X55497Y88213D01*
X55810Y88593D01*
X56042Y89028D01*
X56185Y89499D01*
X56233Y89989D01*
X56185Y90479D01*
X56042Y90950D01*
X55810Y91385D01*
X55497Y91765D01*
X55117Y92078D01*
X54682Y92310D01*
X54211Y92453D01*
X53721Y92501D01*
D02*
G37*
G36*
X124747Y92522D02*
X124257Y92474D01*
X123786Y92331D01*
X123352Y92099D01*
X122971Y91786D01*
X122659Y91406D01*
X122427Y90971D01*
X122284Y90500D01*
X122235Y90010D01*
X122284Y89520D01*
X122427Y89049D01*
X122659Y88614D01*
X122971Y88234D01*
X123352Y87921D01*
X123786Y87689D01*
X124257Y87546D01*
X124747Y87498D01*
X125237Y87546D01*
X125709Y87689D01*
X126143Y87921D01*
X126524Y88234D01*
X126836Y88614D01*
X127068Y89049D01*
X127211Y89520D01*
X127259Y90010D01*
X127211Y90500D01*
X127068Y90971D01*
X126836Y91406D01*
X126524Y91786D01*
X126143Y92099D01*
X125709Y92331D01*
X125237Y92474D01*
X124747Y92522D01*
D02*
G37*
%LPD*%
D12*
X157896Y29700D02*
X158496D01*
X158196D01*
Y28801D01*
X159246Y29700D02*
X158946D01*
X158796Y29550D01*
Y28951D01*
X158946Y28801D01*
X159246D01*
X159396Y28951D01*
Y29550D01*
X159246Y29700D01*
X159696Y28801D02*
Y29700D01*
X160146D01*
X160296Y29550D01*
Y29251D01*
X160146Y29101D01*
X159696D01*
X161495Y29700D02*
Y28801D01*
X162095D01*
X162545Y29401D02*
X162845D01*
X162995Y29251D01*
Y28801D01*
X162545D01*
X162395Y28951D01*
X162545Y29101D01*
X162995D01*
X163295Y29401D02*
Y28951D01*
X163445Y28801D01*
X163894D01*
Y28651D01*
X163745Y28501D01*
X163595D01*
X163894Y28801D02*
Y29401D01*
X164644Y28801D02*
X164344D01*
X164194Y28951D01*
Y29251D01*
X164344Y29401D01*
X164644D01*
X164794Y29251D01*
Y29101D01*
X164194D01*
X165094Y29401D02*
Y28801D01*
Y29101D01*
X165244Y29251D01*
X165394Y29401D01*
X165544D01*
X158253Y27775D02*
X158853D01*
X158553D01*
Y26875D01*
X159603Y27775D02*
X159303D01*
X159153Y27625D01*
Y27025D01*
X159303Y26875D01*
X159603D01*
X159753Y27025D01*
Y27625D01*
X159603Y27775D01*
X160053Y26875D02*
Y27775D01*
X160503D01*
X160653Y27625D01*
Y27325D01*
X160503Y27175D01*
X160053D01*
X161852Y27775D02*
Y27175D01*
X162152Y26875D01*
X162452Y27175D01*
Y27775D01*
X162752D02*
X163052D01*
X162902D01*
Y26875D01*
X162752D01*
X163052D01*
X164101Y27775D02*
X163502D01*
Y26875D01*
X164101D01*
X163502Y27325D02*
X163802D01*
X164401Y27775D02*
Y26875D01*
X164701Y27175D01*
X165001Y26875D01*
Y27775D01*
X166201Y26875D02*
Y27775D01*
X166651D01*
X166801Y27625D01*
Y27325D01*
X166651Y27175D01*
X166201D01*
X167550Y27775D02*
X167250D01*
X167100Y27625D01*
Y27025D01*
X167250Y26875D01*
X167550D01*
X167700Y27025D01*
Y27625D01*
X167550Y27775D01*
X168600Y27625D02*
X168450Y27775D01*
X168150D01*
X168000Y27625D01*
Y27475D01*
X168150Y27325D01*
X168450D01*
X168600Y27175D01*
Y27025D01*
X168450Y26875D01*
X168150D01*
X168000Y27025D01*
X168900Y27775D02*
X169200D01*
X169050D01*
Y26875D01*
X168900D01*
X169200D01*
X169650Y27775D02*
X170249D01*
X169950D01*
Y26875D01*
X170549Y27775D02*
X170849D01*
X170699D01*
Y26875D01*
X170549D01*
X170849D01*
X171299Y27775D02*
Y27175D01*
X171599Y26875D01*
X171899Y27175D01*
Y27775D01*
X172799D02*
X172199D01*
Y26875D01*
X172799D01*
X172199Y27325D02*
X172499D01*
D15*
X117381Y56950D02*
X118775D01*
X112025Y57448D02*
Y57562D01*
X122160Y67042D02*
Y69480D01*
X121984Y66867D02*
X122160Y67042D01*
X117587Y66867D02*
X121984D01*
X65336Y64367D02*
X66203Y63500D01*
X65336Y64367D02*
Y66541D01*
X65512Y66717D01*
X66578D01*
X66778Y66917D01*
X59614Y35828D02*
Y36322D01*
Y35828D02*
X59976Y35466D01*
X59753Y35243D02*
X59976Y35466D01*
X59753Y35243D02*
X59817Y35179D01*
X60404Y37155D02*
X61087Y36472D01*
X59760Y37155D02*
X60404D01*
X61087Y36449D02*
Y36472D01*
X26758Y62413D02*
X27957Y61214D01*
X26758Y64731D02*
X27940Y65913D01*
X26758Y62413D02*
Y64731D01*
X26249Y62144D02*
Y66059D01*
X26668Y66478D02*
Y66929D01*
X26249Y66059D02*
X26668Y66478D01*
X26249Y62144D02*
X27814Y60579D01*
X27957Y61214D02*
X43925D01*
X27814Y60579D02*
X42697D01*
X47857Y64411D02*
X49657Y62611D01*
X31034Y64411D02*
X47857D01*
X30828Y64617D02*
X31034Y64411D01*
X43813Y65202D02*
X44628Y66017D01*
X42697Y65202D02*
X43813D01*
X99715Y68188D02*
X102490D01*
X88714Y57186D02*
X99715Y68188D01*
X102490D02*
X102741Y68438D01*
Y69793D01*
X72426Y57186D02*
X88714D01*
X70022Y54782D02*
X72426Y57186D01*
X67439Y50421D02*
X73495Y56477D01*
X99022D01*
X101981Y59436D01*
X68011Y49342D02*
X74461Y55792D01*
X100044D02*
X107879Y63626D01*
X74461Y55792D02*
X100044D01*
X73782Y51938D02*
X76890Y55046D01*
X100301D01*
X107954Y62699D01*
X57658Y55880D02*
X57741D01*
X52528Y62611D02*
X52540Y62623D01*
X64008Y51054D02*
X64058Y51104D01*
X57741Y55880D02*
X58066Y56205D01*
X49657Y62611D02*
X52528D01*
X58066Y56205D02*
Y57097D01*
X68163Y43698D02*
Y46506D01*
X66003Y48667D02*
X68163Y46506D01*
X67900Y43434D02*
X68163Y43698D01*
X49149Y45466D02*
X52782Y41833D01*
X64353Y20162D02*
Y21027D01*
X64797Y21472D02*
X64933D01*
X64353Y21027D02*
X64797Y21472D01*
X51390Y25781D02*
X51491Y25882D01*
Y27264D01*
X64828Y48667D02*
X66003D01*
X116012Y65856D02*
Y66592D01*
X118905Y69485D02*
X119615D01*
X116012Y66592D02*
X118905Y69485D01*
X121314Y67774D02*
X121385Y67703D01*
X119877Y67774D02*
X121314D01*
X119615Y68036D02*
Y69485D01*
Y68036D02*
X119877Y67774D01*
X122155Y69485D02*
X122160Y69480D01*
X118730Y64565D02*
X118750Y64545D01*
X108058Y64565D02*
X118730D01*
X102235Y63754D02*
X107247D01*
X108058Y64565D01*
X117188Y62699D02*
X117740Y62147D01*
X107954Y62699D02*
X117188D01*
X107879Y63626D02*
X109358D01*
X101981Y59436D02*
Y60706D01*
X96901Y60579D02*
X99904D01*
X100031Y60706D01*
X47706Y36159D02*
Y37155D01*
X64933Y21472D02*
Y22402D01*
X41529Y25273D02*
X43180Y26924D01*
X18587Y21082D02*
X18714Y21209D01*
X59944Y25527D02*
Y28194D01*
X67760Y57104D02*
X68503Y57847D01*
X88668D01*
X62656Y57104D02*
X67760D01*
X61913Y57847D02*
X62656Y57104D01*
X62966Y57854D02*
Y58902D01*
X62992Y58928D01*
X56813Y57847D02*
X61913D01*
X64876Y22458D02*
X64933Y22402D01*
X60481Y67356D02*
Y68525D01*
X60426Y68580D02*
X60481Y68525D01*
X53818Y37149D02*
X54228Y36740D01*
X55165Y32596D02*
X55407Y32838D01*
X54681Y32596D02*
X55165D01*
X17968Y39045D02*
X18822D01*
X18923Y38944D01*
X17272Y39742D02*
X17968Y39045D01*
X17272Y39742D02*
Y49784D01*
X19573Y12715D02*
X23665D01*
X23918Y12969D01*
X24213D01*
X19558Y12700D02*
X19573Y12715D01*
X24268Y12913D02*
Y13265D01*
Y12562D02*
Y12913D01*
X24213Y12969D02*
X24268Y12913D01*
X24668Y13665D02*
X30133D01*
X24268Y13265D02*
X24668Y13665D01*
X24268Y12562D02*
X30869Y5961D01*
X30133Y13665D02*
X31225Y12573D01*
X118765Y56940D02*
X118775Y56950D01*
X116054D02*
X117381D01*
X116361Y61893D02*
X116470D01*
X111971Y61876D02*
X112114Y62020D01*
X116234D02*
X116361Y61893D01*
X111971Y60909D02*
Y61876D01*
X111939Y60877D02*
X111971Y60909D01*
X112114Y62020D02*
X116234D01*
X116063Y61379D02*
X116470Y61785D01*
X67183Y26670D02*
Y29464D01*
X28884Y48387D02*
X30435D01*
X64876Y22458D02*
X64897Y22479D01*
X64770Y22606D02*
X64897Y22479D01*
X54573Y55607D02*
X56813Y57847D01*
X88668D02*
X99533Y68713D01*
X43678Y32268D02*
X44136Y31810D01*
X49851D01*
X50290Y32256D02*
X51816Y33782D01*
X50290Y32249D02*
Y32256D01*
X49851Y31810D02*
X50290Y32249D01*
X57036Y32037D02*
X57137Y31937D01*
X56388Y32030D02*
X56395Y32037D01*
X57036D01*
X57137Y31561D02*
X57342Y31356D01*
X57137Y31561D02*
Y31937D01*
X56386Y32032D02*
X56388Y32030D01*
X55955Y33579D02*
X56386Y33149D01*
Y32032D02*
Y33149D01*
X57228Y35179D02*
X58267D01*
X54228Y34035D02*
Y35167D01*
X57380Y39609D02*
X58334Y38655D01*
X57380Y39609D02*
Y39720D01*
X58334Y42655D02*
X59216D01*
X58128Y42860D02*
Y43051D01*
Y42860D02*
X58334Y42655D01*
X57340Y43840D02*
X58128Y43051D01*
X56938Y38559D02*
X57073D01*
X57377Y38255D01*
X57618Y36159D02*
X59720D01*
X57523Y36255D02*
X57618Y36159D01*
X56728Y36049D02*
X56933Y36255D01*
X57523D01*
X56728Y35167D02*
Y36049D01*
X54228Y35167D02*
Y36740D01*
X60513Y43155D02*
X61173Y43815D01*
X61823D01*
X61061Y44410D02*
Y44577D01*
X60306Y43655D02*
X61061Y44410D01*
X60098Y44155D02*
X60561Y44618D01*
Y45422D02*
X60732Y45593D01*
X60561Y44618D02*
Y45422D01*
X61061Y44577D02*
X62738Y46254D01*
Y48159D01*
X58065Y31978D02*
X59000D01*
X59101Y31877D01*
X57912Y32131D02*
X58065Y31978D01*
X55726Y33579D02*
X55955D01*
X55228Y34077D02*
X55726Y33579D01*
X55933Y34079D02*
X56471D01*
X55728Y34285D02*
X55933Y34079D01*
X57531Y32652D02*
Y33020D01*
X56471Y34079D02*
X57531Y33020D01*
X54728Y32723D02*
Y35167D01*
X52508Y33036D02*
X52508D01*
X52031Y32559D02*
X52508Y33036D01*
X52508D02*
X53728Y34256D01*
X53268Y32460D02*
Y33075D01*
X54228Y34035D01*
X53728Y34256D02*
Y34671D01*
X51816Y33782D02*
X52547D01*
X52728Y33963D02*
Y35167D01*
X52547Y33782D02*
X52728Y33963D01*
X55728Y34285D02*
Y35167D01*
X57342Y31356D02*
X57342Y31356D01*
X58482D02*
X58729Y31109D01*
X57342Y31356D02*
X58482D01*
X58729Y30661D02*
Y31109D01*
Y30661D02*
X58977Y30413D01*
X59675D01*
X59944Y30144D01*
X61214Y34087D02*
Y34163D01*
X55228Y34077D02*
Y35167D01*
X51390Y32467D02*
X51689D01*
X57531Y32652D02*
X57658Y32525D01*
X59221Y42155D02*
X60715D01*
X61087Y41783D02*
X63288D01*
X60715Y42155D02*
X61087Y41783D01*
X116054Y56950D02*
X116063Y56960D01*
X115962Y56858D02*
X116054Y56950D01*
X116063Y56960D02*
Y58718D01*
X113928Y57489D02*
X114178D01*
X114611Y57056D01*
Y57034D02*
Y57056D01*
Y57034D02*
X114787Y56858D01*
X115962D01*
X113682Y57391D02*
X113803D01*
X112025Y55924D02*
Y57448D01*
X110120Y57067D02*
X110374Y56813D01*
X110120Y57067D02*
Y58591D01*
X110374Y56025D02*
X110475Y55924D01*
X110374Y56025D02*
Y56813D01*
X110234Y55683D02*
X111009Y54908D01*
X113576Y59212D02*
X113889Y59525D01*
X115962Y54908D02*
X118502D01*
X111009D02*
X115962D01*
X118502D02*
X120153Y56559D01*
X18587Y22270D02*
X18796Y22479D01*
X18587Y21082D02*
Y22270D01*
X18796Y22479D02*
X20574D01*
X4289Y22667D02*
X5522D01*
X6223Y23368D02*
X8083D01*
X5522Y22667D02*
X6223Y23368D01*
X11176Y17814D02*
Y23192D01*
X10033Y23368D02*
X11000D01*
X11176Y23192D01*
X2413Y22434D02*
X2589Y22610D01*
X2413Y14450D02*
X10902Y5961D01*
X2589Y22610D02*
X4232D01*
X2413Y14450D02*
Y22434D01*
X16510Y15494D02*
X17272Y16256D01*
X23413D02*
X23622Y16465D01*
X17272Y16256D02*
X23413D01*
X15113Y16764D02*
X15113Y16764D01*
X16150D01*
X16304Y16918D01*
X17004D01*
X17272Y17186D01*
X19240Y17227D02*
X19273Y17260D01*
X17444Y17227D02*
X19240D01*
X17018Y19067D02*
Y19177D01*
X22020Y20574D02*
X22688D01*
X17018Y18296D02*
Y19067D01*
X21285D02*
X21844Y19626D01*
Y20398D02*
X22020Y20574D01*
X21844Y19626D02*
Y20398D01*
X21285Y17450D02*
Y19067D01*
Y17450D02*
X21463Y17272D01*
X17018Y19177D02*
X17128Y19067D01*
X21285D01*
X23622Y18333D02*
X25863D01*
X23622Y18415D02*
X23805D01*
X24130Y18740D01*
Y19558D01*
X24937Y20955D02*
X25064Y21082D01*
X24937Y20955D02*
X25064Y20828D01*
X26207D01*
X27379Y22479D02*
X29157Y20701D01*
X20574Y22479D02*
X27379D01*
X25863Y18333D02*
X25908Y18288D01*
X40677Y35650D02*
X42971Y33356D01*
X40677Y35650D02*
Y36218D01*
X42971Y33356D02*
X43434D01*
X40428Y36467D02*
X40677Y36218D01*
X52051Y18580D02*
X52270D01*
X50901D02*
X52051D01*
X56582Y14153D02*
X56952D01*
X56526Y14097D02*
X56582Y14153D01*
X51992Y14097D02*
X56526D01*
X51816Y14273D02*
X51992Y14097D01*
X51816Y14273D02*
Y18126D01*
X66203Y63500D02*
X71740D01*
X46336Y41065D02*
X46745Y40655D01*
X46067Y40155D02*
X47740D01*
X41275Y40259D02*
X42555Y38979D01*
X45743Y40479D02*
X46067Y40155D01*
X45488Y39729D02*
X45543Y39674D01*
X44394Y39751D02*
X45122Y40479D01*
X42555Y38979D02*
X45771D01*
X46211Y41065D02*
X46336D01*
X45432Y39729D02*
X45488D01*
X45122Y40479D02*
X45743D01*
X45771Y38979D02*
X45947Y39155D01*
X44394Y39729D02*
Y39751D01*
X45543Y39674D02*
X45827D01*
X46745Y40655D02*
X47740D01*
X46502Y41849D02*
X46696Y41655D01*
X42969Y40497D02*
X44321Y41849D01*
X46502D01*
X45118Y42477D02*
X45297Y42655D01*
X42591Y42389D02*
X42678Y42477D01*
X45118D01*
X29204Y63627D02*
X37405D01*
X37887Y63144D01*
X29028Y63803D02*
X29204Y63627D01*
X29028Y63803D02*
Y64667D01*
X64999Y20218D02*
X66446D01*
X66196Y20327D02*
X66424Y20555D01*
X52730Y43302D02*
Y43387D01*
X54728Y45385D01*
X41377Y43155D02*
X47735D01*
X41013Y42791D02*
X41377Y43155D01*
X45297Y42655D02*
X47740D01*
X52782Y40336D02*
Y41833D01*
X50320Y37874D02*
X52782Y40336D01*
X49838Y37874D02*
X50320D01*
X72517Y36447D02*
Y41316D01*
X37846Y42164D02*
X38473Y42791D01*
X41013D01*
X57929Y38255D02*
X58028Y38155D01*
Y37655D02*
X59216D01*
X57135Y37005D02*
X57177D01*
X58028Y38155D02*
X59216D01*
X55957Y37669D02*
X56042Y37755D01*
X57545Y37655D02*
X58028D01*
X58028Y37655D01*
X57177Y37005D02*
X57224Y36957D01*
X57446Y37755D02*
X57545Y37655D01*
X57377Y38255D02*
X57929D01*
X56042Y37755D02*
X57446D01*
X73025Y62357D02*
Y63414D01*
X68534Y66911D02*
X69527D01*
X73025Y63414D01*
X68197Y67248D02*
X68534Y66911D01*
X67190Y50421D02*
X67439D01*
X67188Y50424D02*
X67190Y50421D01*
X102235Y63754D02*
Y65278D01*
X52782Y42005D02*
X55257Y44481D01*
X45947Y39155D02*
X47740D01*
X46154Y38655D02*
X47740D01*
X45968Y38469D02*
X46154Y38655D01*
X45581Y38469D02*
X45968D01*
X45085Y37973D02*
X45581Y38469D01*
X46200Y37716D02*
X46639Y38155D01*
X47706Y36159D02*
X47772Y36093D01*
X47630Y36159D02*
X47706D01*
X47281Y36508D02*
X47630Y36159D01*
X45928Y36508D02*
X47281D01*
X43180Y37973D02*
X45085D01*
X46696Y41655D02*
X47740D01*
X45235Y45695D02*
X45775Y45155D01*
X41861Y45695D02*
X45235D01*
X41693Y45527D02*
X41861Y45695D01*
X46639Y38155D02*
X47740D01*
X45106Y44945D02*
X45396Y44655D01*
X40496Y44155D02*
X47740D01*
X45396Y44655D02*
X47740D01*
X45775Y45155D02*
X48622D01*
X44719Y44945D02*
X45106D01*
X50228Y45657D02*
X51054Y44831D01*
X50228Y45657D02*
Y46643D01*
X56273Y42123D02*
Y42129D01*
X56007Y42395D02*
X56273Y42129D01*
X56007Y42395D02*
Y44798D01*
X55141Y42547D02*
Y43304D01*
Y42547D02*
X56533Y41155D01*
X56312Y40655D02*
X59216D01*
X55540Y41427D02*
X56312Y40655D01*
X56273Y42123D02*
X56741Y41655D01*
X58801D01*
X55318Y41310D02*
X55423D01*
X55540Y41427D01*
X56533Y41155D02*
X58333D01*
X57023Y42433D02*
X57135D01*
X58334Y41155D02*
X59216D01*
X58333Y41155D02*
X58334Y41155D01*
X55257Y44481D02*
Y45109D01*
X52782Y41833D02*
Y42005D01*
X55257Y45109D02*
X55696Y45548D01*
X56400Y45466D02*
X59055D01*
X56318Y45548D02*
X56400Y45466D01*
X55696Y45548D02*
X56318D01*
X57135Y42433D02*
X57413Y42155D01*
X48290Y36093D02*
X48641Y35742D01*
X47772Y36093D02*
X48290D01*
X48641Y34925D02*
Y35742D01*
X45847Y36589D02*
X45928Y36508D01*
X45834Y36576D02*
X45847Y36589D01*
X49119Y37155D02*
X49838Y37874D01*
X49923Y36810D02*
X50228Y36505D01*
X49923Y36810D02*
Y36898D01*
X48831Y37655D02*
X49705Y38529D01*
Y38707D01*
X38039Y45527D02*
X41693D01*
X46199Y61405D02*
X46853Y60751D01*
Y60676D02*
Y60751D01*
X46979Y59494D02*
X48179D01*
X46794Y59309D02*
X46979Y59494D01*
X55478Y48381D02*
X55528Y48331D01*
X54661Y48137D02*
Y49212D01*
X54161Y48443D02*
Y50346D01*
X54661Y49212D02*
X55118Y49669D01*
X54661Y48137D02*
X55228Y47570D01*
X53728Y48010D02*
X54161Y48443D01*
X55118Y49669D02*
Y49784D01*
X55528Y48152D02*
Y48331D01*
X57228Y48211D02*
X58461Y49444D01*
X56228Y50999D02*
X56769Y51540D01*
X56228Y46643D02*
Y50999D01*
X56728Y46643D02*
Y50088D01*
X55728Y46643D02*
Y47952D01*
X57228Y46643D02*
Y48211D01*
X56728Y50088D02*
X57186Y50546D01*
X56769Y51540D02*
Y51562D01*
X55528Y48152D02*
X55728Y47952D01*
X47282Y51727D02*
X48794D01*
X47117Y51562D02*
X47282Y51727D01*
X46482Y53594D02*
X48043D01*
X48107Y53658D01*
X49022Y53594D02*
X50419Y52197D01*
X49022Y53594D02*
Y56896D01*
X49668Y57542D01*
X51664D01*
X50419Y51226D02*
Y52197D01*
X78994Y10914D02*
X79494Y10414D01*
X78994Y10914D02*
Y11049D01*
X74394D02*
X74775Y11430D01*
X75311D01*
X75565Y11684D01*
X72136Y28702D02*
X75565Y25273D01*
Y11684D02*
Y25273D01*
X69215Y28702D02*
X72136D01*
X68707Y29210D02*
X69215Y28702D01*
X68707Y29210D02*
Y30099D01*
X94297Y61532D02*
X99070Y66304D01*
X97409Y63500D02*
X99990D01*
X99070Y66304D02*
X105371D01*
X99990Y63500D02*
X100117Y63373D01*
X57413Y42155D02*
X59216D01*
X60752Y40653D02*
X60801D01*
X60303Y40155D02*
X60752Y40604D01*
X59216Y40155D02*
X60303D01*
X60752Y40711D02*
X61553D01*
X60752Y40604D02*
Y40711D01*
X37887Y63144D02*
X42850D01*
X49489Y41155D02*
X49530Y41196D01*
X49399Y41152D02*
X49403Y41155D01*
X49444Y41196D01*
X49530D01*
X49403Y41155D02*
X49489D01*
X47740D02*
X49403D01*
X65659Y30099D02*
X65694Y30064D01*
X66583D02*
X67183Y29464D01*
X65694Y30064D02*
X66583D01*
X58334Y38655D02*
X59216D01*
X49149Y45466D02*
Y46482D01*
X49395Y46728D01*
X61912Y33389D02*
X62496D01*
X62611Y33274D01*
X61214Y34087D02*
X61912Y33389D01*
X62611Y33274D02*
X63683D01*
X64008Y32949D01*
Y32893D02*
Y32949D01*
X50673Y39878D02*
Y41529D01*
X47745Y42155D02*
X50047D01*
X50673Y41529D01*
X50228Y35167D02*
Y36505D01*
X41529Y23114D02*
Y25273D01*
X29157Y20701D02*
X39116D01*
X41529Y23114D01*
X50387Y31464D02*
X51390Y32467D01*
X50292Y30734D02*
X50387Y30829D01*
Y31464D01*
X45847Y39655D02*
X47740D01*
X45827Y39674D02*
X45847Y39655D01*
X36799Y46767D02*
X38039Y45527D01*
X40428Y44087D02*
X40496Y44155D01*
X47740Y43655D02*
X48735D01*
X48963Y43883D02*
Y44814D01*
X48735Y43655D02*
X48963Y43883D01*
X63729Y39368D02*
X64478Y40117D01*
X61284Y39655D02*
X61315Y39624D01*
X64478Y40117D02*
Y40367D01*
X61103Y39655D02*
X61284D01*
X63729Y39143D02*
Y39368D01*
X63435Y38849D02*
X63729Y39143D01*
X62090Y38849D02*
X63435D01*
X59216Y43155D02*
X60513D01*
X59958Y43655D02*
X60306D01*
X50927Y57531D02*
X51652D01*
X51664Y57542D01*
X27940Y30353D02*
X29337Y31750D01*
X27940Y29509D02*
Y30353D01*
X30869Y5961D02*
X31222D01*
X31225Y12573D02*
X41021D01*
X13716Y20447D02*
X20828Y27559D01*
X13716Y16940D02*
Y20447D01*
X13892Y16764D02*
X15113D01*
X13716Y16940D02*
X13892Y16764D01*
X10126D02*
X11176Y17814D01*
X25568Y13015D02*
X29248D01*
X36302Y5961D02*
Y5961D01*
X29248Y13015D02*
X36302Y5961D01*
X99533Y68713D02*
X101297D01*
X47905Y47117D02*
X49022D01*
X42697Y60579D02*
X43967Y59309D01*
X50241Y54362D02*
X50362Y54483D01*
X52705D02*
X52959Y54737D01*
X50362Y54483D02*
X52705D01*
X72063Y44857D02*
X72420Y44500D01*
Y43362D02*
X72517Y43266D01*
X72420Y43362D02*
Y44500D01*
X55001Y17155D02*
Y18580D01*
X48026Y25780D02*
X48260Y25546D01*
Y9243D02*
Y25546D01*
X62738Y48159D02*
X63921Y49342D01*
X68011D01*
X59216Y44155D02*
X60098D01*
X59216Y42655D02*
X61806D01*
X54728Y45385D02*
Y46643D01*
X52197Y44323D02*
X52959D01*
X54228Y45592D01*
X47905Y45974D02*
Y47117D01*
X49395Y46728D02*
Y46744D01*
X49022Y47117D02*
X49395Y46744D01*
X55372Y51557D02*
Y52832D01*
X54161Y50346D02*
X55372Y51557D01*
X55228Y46648D02*
Y47570D01*
X55372Y52832D02*
X55499Y52959D01*
X58461Y50546D02*
Y51876D01*
Y49444D02*
Y50546D01*
X59055Y45466D02*
X59182Y45593D01*
X54228Y45592D02*
Y46643D01*
X48622Y45155D02*
X48963Y44814D01*
X61103Y39655D02*
X61284D01*
X62090Y38849D01*
X61214Y37973D02*
Y38328D01*
Y37146D02*
X61390Y36970D01*
X61214Y37146D02*
Y37973D01*
X61390Y36970D02*
X63228D01*
X63858Y37600D01*
X101471Y69793D02*
X101546Y69718D01*
Y68961D02*
Y69718D01*
X101297Y68713D02*
X101546Y68961D01*
X114428Y59493D02*
X118121D01*
X117740Y62147D02*
X118658D01*
X118775Y62030D01*
X51728Y46643D02*
Y53506D01*
X51943Y53721D02*
X52705D01*
X51728Y53506D02*
X51943Y53721D01*
X50762Y48167D02*
X51228Y47701D01*
X51228Y46643D02*
X51228Y46643D01*
Y47701D01*
X54297Y55402D02*
X54502Y55607D01*
X54573D01*
X52959Y52787D02*
X54121D01*
X54297Y52963D01*
Y55402D01*
X51664Y57542D02*
X54367D01*
X64387Y67562D02*
Y68834D01*
X54367Y57542D02*
X64387Y67562D01*
X52728Y46643D02*
Y47526D01*
X53212Y48010D01*
X53728D01*
X52228Y48455D02*
X52836Y49063D01*
X53086D01*
X52228Y46643D02*
Y48455D01*
X80137Y58928D02*
Y65278D01*
X81126Y66267D02*
X82328D01*
X80137Y65278D02*
X81126Y66267D01*
X75438Y60021D02*
Y61468D01*
X15113Y15494D02*
X15176Y15557D01*
X15240Y15494D02*
X16510D01*
X15113Y18034D02*
X15199Y18120D01*
X16842D01*
X17018Y18296D01*
X20828Y27559D02*
X27940D01*
X5670Y18079D02*
X5688Y18097D01*
X9626D02*
X9689Y18034D01*
X5688Y18097D02*
X9626D01*
X51816Y18126D02*
X52051Y18361D01*
Y18430D01*
X52201Y18580D01*
X46482Y15285D02*
X46609Y15158D01*
X46482Y15285D02*
Y16764D01*
X43307Y15113D02*
X43322Y15128D01*
Y16846D01*
X46462Y13061D02*
X46609Y13208D01*
X46462Y5961D02*
Y13061D01*
X61074Y36195D02*
X61302D01*
X57224Y36957D02*
X57872D01*
X116470Y61785D02*
Y61893D01*
X35687Y57150D02*
X45466D01*
X59216Y37155D02*
X59700D01*
X58070D02*
X59216D01*
X37226Y36591D02*
X38221Y37586D01*
Y37596D01*
X61214Y61722D02*
X61277Y61659D01*
X61782D01*
X62992Y60878D02*
X65151D01*
X65278Y61005D01*
X116063Y60268D02*
Y61379D01*
X42138Y67046D02*
X46057D01*
X41544Y67640D02*
X42138Y67046D01*
X46057D02*
X47028Y68017D01*
X58394Y51943D02*
X58461Y51876D01*
X60786Y51054D02*
X64008D01*
X60411Y50679D02*
X60786Y51054D01*
X50834Y56229D02*
X50944Y56119D01*
X53960D02*
X65657Y67816D01*
X50944Y56119D02*
X53960D01*
X50834Y56229D02*
Y56286D01*
X57228Y35167D02*
Y35179D01*
X58267Y34036D02*
Y35179D01*
X63532Y29149D02*
X63559D01*
X63627Y29081D01*
X63332Y29349D02*
X63532Y29149D01*
X49643Y46728D02*
X49728Y46643D01*
X49395Y46728D02*
X49643D01*
X47740Y37155D02*
X49119D01*
X47740Y37655D02*
X48831D01*
X48641Y34925D02*
X48883Y35167D01*
X49728D01*
X116012Y65856D02*
X116038Y65830D01*
X43967Y59309D02*
X44844D01*
X46199Y61405D02*
Y61643D01*
X49976Y25780D02*
X51390D01*
X59216Y39655D02*
X61103D01*
X63858Y37600D02*
X64397D01*
X59216Y39155D02*
X60387D01*
X61214Y38328D01*
X57872Y36957D02*
X58070Y37155D01*
X17272Y49784D02*
X18161Y50673D01*
X19630D02*
X19884Y50927D01*
X18161Y50673D02*
X19630D01*
X27940Y29509D02*
X27940Y29509D01*
X41382Y5961D02*
X43307Y7886D01*
Y13026D01*
X5670Y14523D02*
Y16129D01*
Y14523D02*
X14232Y5961D01*
X15113Y19304D02*
Y20447D01*
X15748Y21082D02*
X16637D01*
X15113Y20447D02*
X15748Y21082D01*
X4232Y22610D02*
X4289Y22667D01*
X38533Y22187D02*
Y24500D01*
X35993Y22187D02*
Y24500D01*
X43434Y33356D02*
X43678Y33112D01*
Y32268D02*
Y33112D01*
X44805Y36606D02*
X44835Y36576D01*
X45834D01*
X102235Y60960D02*
Y63754D01*
X109358Y63626D02*
X117023D01*
X118750Y64545D02*
X118775Y64570D01*
X27940Y65913D02*
Y66927D01*
X27938Y66929D02*
X27940Y66927D01*
X35028Y46767D02*
X36799D01*
X117023Y63626D02*
X117439Y63210D01*
X112152Y57448D02*
X113500D01*
X113625D02*
X113682Y57391D01*
X113889Y59525D02*
Y60877D01*
X110120Y60541D02*
X111603D01*
X111764Y60702D01*
X112406Y59212D02*
X113576D01*
X55372Y54782D02*
X70022D01*
X101981Y60706D02*
X102235Y60960D01*
X73782Y51389D02*
Y51938D01*
X70252Y47397D02*
X72797D01*
X73660Y48260D02*
Y49317D01*
X72797Y47397D02*
X73660Y48260D01*
X117439Y63210D02*
X118685D01*
X118775Y63300D01*
X120153Y56559D02*
Y57829D01*
X118775Y58220D02*
X119762D01*
X120153Y57829D01*
X71628Y62021D02*
X71673Y61976D01*
X72644D01*
X73025Y62357D01*
X71740Y63500D02*
X71755Y63485D01*
X66778Y66967D02*
X66927Y67116D01*
X68707Y62484D02*
X69703Y61488D01*
X64307Y62484D02*
X68707D01*
X69703Y60071D02*
X73406D01*
X69703D02*
Y61488D01*
X73406Y60071D02*
X73406Y60071D01*
X65294Y61021D02*
X67203D01*
X65278Y61005D02*
X65294Y61021D01*
X33401Y26461D02*
Y26502D01*
X35249Y43364D02*
X38354Y40259D01*
X35249Y43364D02*
Y44006D01*
X38354Y40259D02*
X41275D01*
X35028Y44227D02*
X35249Y44006D01*
X35043Y36591D02*
X37226D01*
X35028Y36607D02*
X35043Y36591D01*
X65657Y67816D02*
Y68834D01*
X41382Y5961D02*
Y5961D01*
X4273Y20751D02*
X4289Y20767D01*
X4273Y16510D02*
Y20751D01*
X4654Y16129D02*
X5670D01*
X4273Y16510D02*
X4654Y16129D01*
X9689Y16764D02*
X10126D01*
X48260Y9243D02*
X51542Y5961D01*
X70252Y44857D02*
X72063D01*
X52270Y18580D02*
X52501D01*
X55001D02*
Y19530D01*
X54733Y22180D02*
X55001Y21912D01*
Y20480D02*
Y21912D01*
Y20480D02*
X57201D01*
X57301Y20380D01*
X52501Y20480D02*
Y21980D01*
X52701Y22180D01*
X50701Y18380D02*
X50901Y18580D01*
X30828Y64617D02*
X30988Y64777D01*
Y65405D01*
X30478Y65915D02*
X30988Y65405D01*
X30478Y65915D02*
Y66929D01*
X25328Y65117D02*
X25398Y65187D01*
Y66929D01*
X39624Y55118D02*
X39687Y55055D01*
X39560Y52133D02*
X39624Y52070D01*
X33991Y55290D02*
Y57277D01*
Y55290D02*
X34036Y55245D01*
Y53467D02*
Y55245D01*
X32136Y53467D02*
Y55195D01*
X32086Y55245D02*
X32136Y55195D01*
X28884Y50927D02*
X33046D01*
X33086Y50967D01*
X14232Y5961D02*
X15982D01*
X19949Y40748D02*
X20066Y40631D01*
X19069Y40748D02*
X19949D01*
X20066Y37846D02*
Y40631D01*
X18923Y40894D02*
X19069Y40748D01*
X14478Y33201D02*
Y34925D01*
X14859Y35306D01*
X17526D01*
X14171Y32894D02*
X14478Y33201D01*
X17526Y35306D02*
X20066Y37846D01*
X18923Y40894D02*
Y42373D01*
X42463Y55544D02*
X46482D01*
X42037Y55118D02*
X42463Y55544D01*
X45167Y51562D02*
Y51695D01*
X44792Y52070D02*
X45167Y51695D01*
X42164Y52070D02*
X44792D01*
X57658Y53076D02*
Y53930D01*
X55499Y52959D02*
X57541D01*
X57658Y53076D01*
X33453Y22187D02*
Y24500D01*
X33401Y24552D02*
X33453Y24500D01*
X35941Y24552D02*
X35993Y24500D01*
X38481Y24552D02*
X38533Y24500D01*
X30913Y22187D02*
Y24459D01*
X30861Y24511D02*
X30913Y24459D01*
X105371Y66304D02*
X105746Y66679D01*
Y66929D01*
X105664Y67011D02*
X105746Y66929D01*
X105664Y67011D02*
Y68072D01*
X105281Y68455D02*
X105664Y68072D01*
X105281Y68455D02*
Y69793D01*
X103923Y67396D02*
X104011Y67484D01*
X102235Y67396D02*
X103923D01*
X104011Y67484D02*
Y69793D01*
X61782Y61659D02*
X62357Y62234D01*
Y62484D01*
X52959Y51140D02*
Y52787D01*
Y51140D02*
X53086Y51013D01*
X50471Y49239D02*
X50762Y48948D01*
Y48167D02*
Y48948D01*
X52959Y53975D02*
Y54737D01*
X52705Y53721D02*
X52959Y53975D01*
X29208Y64847D02*
Y66929D01*
X29028Y64667D02*
X29208Y64847D01*
X68197Y67248D02*
Y68834D01*
X66927Y67116D02*
Y68834D01*
X70252Y44857D02*
Y46127D01*
X59216Y44655D02*
Y45559D01*
X59182Y45593D02*
X59216Y45559D01*
X59182Y45593D02*
Y46609D01*
X61553Y40711D02*
X61653Y40811D01*
X44704Y68043D02*
Y69658D01*
X44628Y67967D02*
X44704Y68043D01*
X84278Y66267D02*
Y68815D01*
X84328Y68865D01*
D22*
X25398Y72377D02*
D03*
X26668D02*
D03*
X27938D02*
D03*
X31748D02*
D03*
X33018D02*
D03*
X34288D02*
D03*
Y66929D02*
D03*
X33018D02*
D03*
X31748D02*
D03*
X30478D02*
D03*
X29208D02*
D03*
X27938D02*
D03*
X26668D02*
D03*
X25398D02*
D03*
X100201Y75241D02*
D03*
X101471D02*
D03*
X102741D02*
D03*
X106551D02*
D03*
X107821D02*
D03*
X109091D02*
D03*
Y69793D02*
D03*
X107821D02*
D03*
X106551D02*
D03*
X105281D02*
D03*
X104011D02*
D03*
X102741D02*
D03*
X101471D02*
D03*
X100201D02*
D03*
X63117Y74282D02*
D03*
X64387D02*
D03*
X65657D02*
D03*
X69467D02*
D03*
X70737D02*
D03*
X72007D02*
D03*
Y68834D02*
D03*
X70737D02*
D03*
X69467D02*
D03*
X68197D02*
D03*
X66927D02*
D03*
X65657D02*
D03*
X64387D02*
D03*
X63117D02*
D03*
D95*
X69299Y77948D02*
D03*
Y75998D02*
D03*
X37778Y73554D02*
D03*
Y71604D02*
D03*
X21769Y74355D02*
D03*
Y72405D02*
D03*
X56988Y73851D02*
D03*
Y75801D02*
D03*
X90532Y77639D02*
D03*
Y79589D02*
D03*
X112757Y78287D02*
D03*
Y80237D02*
D03*
X38214Y80601D02*
D03*
Y78651D02*
D03*
X77636Y78789D02*
D03*
Y76839D02*
D03*
X55222Y80024D02*
D03*
Y78074D02*
D03*
X17272Y17186D02*
D03*
Y19136D02*
D03*
X46482Y53594D02*
D03*
Y55544D02*
D03*
X71628Y62021D02*
D03*
Y60071D02*
D03*
X43307Y13163D02*
D03*
Y15113D02*
D03*
X46609Y15158D02*
D03*
Y13208D02*
D03*
X61844Y78080D02*
D03*
Y76130D02*
D03*
X65278Y61005D02*
D03*
Y59055D02*
D03*
X101727Y65278D02*
D03*
Y67228D02*
D03*
X62992Y60878D02*
D03*
Y58928D02*
D03*
X31115Y64561D02*
D03*
Y62611D02*
D03*
X29028Y64667D02*
D03*
Y62717D02*
D03*
X103759Y65278D02*
D03*
Y67228D02*
D03*
X66609Y66898D02*
D03*
Y64948D02*
D03*
X31031Y46472D02*
D03*
Y48422D02*
D03*
X64770Y24556D02*
D03*
Y22606D02*
D03*
X57277Y14478D02*
D03*
Y16428D02*
D03*
X50292Y20365D02*
D03*
Y18415D02*
D03*
X73660Y51267D02*
D03*
Y49317D02*
D03*
X44628Y67967D02*
D03*
Y66017D02*
D03*
X5670Y18079D02*
D03*
Y16129D02*
D03*
X71120Y27854D02*
D03*
Y29804D02*
D03*
X72517Y41316D02*
D03*
Y43266D02*
D03*
X59944Y30144D02*
D03*
Y28194D02*
D03*
X52959Y52787D02*
D03*
Y54737D02*
D03*
X57658Y53930D02*
D03*
Y55880D02*
D03*
X55372Y54782D02*
D03*
Y52832D02*
D03*
X53086Y49063D02*
D03*
Y51013D02*
D03*
X50241Y56312D02*
D03*
Y54362D02*
D03*
X50419Y49276D02*
D03*
Y51226D02*
D03*
X25908Y18288D02*
D03*
Y16338D02*
D03*
X20574Y24429D02*
D03*
Y22479D02*
D03*
X21463Y15322D02*
D03*
Y17272D02*
D03*
X113928Y57489D02*
D03*
Y59439D02*
D03*
X115962Y54908D02*
D03*
Y56858D02*
D03*
X110120Y58591D02*
D03*
Y60541D02*
D03*
X109358Y65576D02*
D03*
Y63626D02*
D03*
X18923Y44323D02*
D03*
Y42373D02*
D03*
Y38944D02*
D03*
Y40894D02*
D03*
X33344Y78187D02*
D03*
Y80137D02*
D03*
X59219Y76164D02*
D03*
Y78114D02*
D03*
X30861Y24511D02*
D03*
Y26461D02*
D03*
X33401Y26502D02*
D03*
Y24552D02*
D03*
X35941D02*
D03*
Y26502D02*
D03*
X38533Y26450D02*
D03*
Y24500D02*
D03*
X68528Y66917D02*
D03*
Y64967D02*
D03*
X42805Y37973D02*
D03*
Y36023D02*
D03*
X27940Y27559D02*
D03*
Y29509D02*
D03*
X19273Y17260D02*
D03*
Y15310D02*
D03*
X23622Y16465D02*
D03*
Y18415D02*
D03*
D96*
X115289Y73101D02*
D03*
X113339D02*
D03*
X98682Y75276D02*
D03*
X96732D02*
D03*
X68107Y18036D02*
D03*
X70057D02*
D03*
X53340Y25781D02*
D03*
X51390D02*
D03*
X45167Y51562D02*
D03*
X47117D02*
D03*
X62357Y62484D02*
D03*
X64307D02*
D03*
X73406Y60071D02*
D03*
X75356D02*
D03*
X49976Y25780D02*
D03*
X48026D02*
D03*
X66428Y40367D02*
D03*
X64478D02*
D03*
X64471Y37338D02*
D03*
X66421D02*
D03*
X24937Y20955D02*
D03*
X22987D02*
D03*
X16637Y21082D02*
D03*
X18587D02*
D03*
X32086Y55245D02*
D03*
X34036D02*
D03*
X35941Y57277D02*
D03*
X33991D02*
D03*
X107696Y66804D02*
D03*
X105746D02*
D03*
X67900Y43434D02*
D03*
X69850D02*
D03*
X10033Y23368D02*
D03*
X8083D02*
D03*
X60411Y50546D02*
D03*
X58461D02*
D03*
X46199Y61643D02*
D03*
X44249D02*
D03*
X44844Y59309D02*
D03*
X46794D02*
D03*
X45552Y33020D02*
D03*
X43602D02*
D03*
X111939Y60877D02*
D03*
X113889D02*
D03*
X102067Y63373D02*
D03*
X100117D02*
D03*
X84664Y10414D02*
D03*
X86614D02*
D03*
X90170Y10541D02*
D03*
X88220D02*
D03*
X31383Y77877D02*
D03*
X29433D02*
D03*
X109728Y77597D02*
D03*
X107778D02*
D03*
X70755Y76925D02*
D03*
X72705D02*
D03*
X107418Y81279D02*
D03*
X109368D02*
D03*
X19259Y78232D02*
D03*
X21209D02*
D03*
X97019Y79842D02*
D03*
X95069D02*
D03*
X19257Y75946D02*
D03*
X21207D02*
D03*
X97005Y77355D02*
D03*
X95055D02*
D03*
X70739Y78867D02*
D03*
X72689D02*
D03*
X48342Y30734D02*
D03*
X50292D02*
D03*
X84278Y66267D02*
D03*
X82328D02*
D03*
X84582Y13081D02*
D03*
X86532D02*
D03*
X101981Y60706D02*
D03*
X100031D02*
D03*
X65958Y32893D02*
D03*
X64008D02*
D03*
D97*
X45922Y69509D02*
D03*
X44652D02*
D03*
X43382D02*
D03*
X42112D02*
D03*
X85598Y68865D02*
D03*
X84328D02*
D03*
X83058D02*
D03*
X81788D02*
D03*
X119615Y69485D02*
D03*
X120885D02*
D03*
X122155D02*
D03*
X123425D02*
D03*
D98*
X42747Y75289D02*
D03*
X45287D02*
D03*
X82423Y74645D02*
D03*
X84963D02*
D03*
X122790Y75265D02*
D03*
X120250D02*
D03*
D99*
X28529Y79632D02*
D03*
X31799D02*
D03*
X106578Y79444D02*
D03*
X109848D02*
D03*
X61320Y80020D02*
D03*
X58050D02*
D03*
D100*
X93590Y80502D02*
D03*
Y77232D02*
D03*
X17670Y76528D02*
D03*
Y79798D02*
D03*
X74494Y80330D02*
D03*
Y77060D02*
D03*
X88709Y80737D02*
D03*
Y77467D02*
D03*
X114587Y78294D02*
D03*
Y81564D02*
D03*
X36401Y80617D02*
D03*
Y77347D02*
D03*
X79641Y80072D02*
D03*
Y76802D02*
D03*
X53341Y79922D02*
D03*
Y76652D02*
D03*
D101*
X152381Y39420D02*
D03*
Y41970D02*
D03*
X153342Y27060D02*
D03*
Y29610D02*
D03*
X153429Y22516D02*
D03*
Y25066D02*
D03*
X152468Y34573D02*
D03*
Y37123D02*
D03*
X151376Y53712D02*
D03*
Y56262D02*
D03*
X151290Y58083D02*
D03*
Y60633D02*
D03*
X69469Y19812D02*
D03*
Y22362D02*
D03*
D102*
X104157Y12386D02*
D03*
X106707D02*
D03*
X106775Y14960D02*
D03*
X104225D02*
D03*
X106788Y17575D02*
D03*
X104238D02*
D03*
D103*
X91944Y77677D02*
D03*
Y79227D02*
D03*
X111184Y78600D02*
D03*
Y80150D02*
D03*
X34822Y78600D02*
D03*
Y80150D02*
D03*
X76272Y76839D02*
D03*
Y78389D02*
D03*
X56765Y78553D02*
D03*
Y80103D02*
D03*
X62611Y34824D02*
D03*
Y33274D02*
D03*
X57912Y30581D02*
D03*
Y32131D02*
D03*
X51689Y30734D02*
D03*
Y32284D02*
D03*
X86995Y69167D02*
D03*
Y67617D02*
D03*
X47028Y69567D02*
D03*
Y68017D02*
D03*
X116063Y60268D02*
D03*
Y58718D02*
D03*
X54483Y30848D02*
D03*
Y32398D02*
D03*
X53086Y30594D02*
D03*
Y32144D02*
D03*
X44577Y36729D02*
D03*
Y35179D02*
D03*
X112025Y59112D02*
D03*
Y57562D02*
D03*
X45847Y36589D02*
D03*
Y35039D02*
D03*
X73282Y74743D02*
D03*
Y73193D02*
D03*
X111259Y76506D02*
D03*
Y74956D02*
D03*
X35927Y73189D02*
D03*
Y71639D02*
D03*
X7575Y18872D02*
D03*
Y17322D02*
D03*
X56388Y30480D02*
D03*
Y32030D02*
D03*
X64528Y42167D02*
D03*
Y43717D02*
D03*
X25328Y63567D02*
D03*
Y65117D02*
D03*
D104*
X25568Y13015D02*
D03*
X23368Y12065D02*
D03*
Y13965D02*
D03*
X17358Y13650D02*
D03*
Y11750D02*
D03*
X19558Y12700D02*
D03*
D105*
X28884Y48387D02*
D03*
Y50927D02*
D03*
X19884D02*
D03*
Y48387D02*
D03*
D106*
X33086Y50967D02*
D03*
X32136Y53467D02*
D03*
X34036D02*
D03*
D107*
X63559Y29149D02*
D03*
X65659Y30099D02*
D03*
Y28199D02*
D03*
D108*
X91247Y75038D02*
D03*
Y69038D02*
D03*
D109*
X57301Y20380D02*
D03*
X61301D02*
D03*
D110*
X52501Y20480D02*
D03*
Y19530D02*
D03*
Y18580D02*
D03*
X55001D02*
D03*
Y19530D02*
D03*
Y20480D02*
D03*
D111*
X126801Y10160D02*
D03*
X111451D02*
D03*
D112*
X4289Y22667D02*
D03*
Y20767D02*
D03*
X6289Y21717D02*
D03*
D113*
X130565Y58845D02*
D03*
Y63945D02*
D03*
D114*
X118775Y65840D02*
D03*
Y64570D02*
D03*
Y63300D02*
D03*
Y62030D02*
D03*
Y60760D02*
D03*
Y59490D02*
D03*
Y58220D02*
D03*
Y56950D02*
D03*
D115*
X78994Y11049D02*
D03*
X74394D02*
D03*
X74267Y14224D02*
D03*
X78867D02*
D03*
D116*
X9689Y15494D02*
D03*
Y16764D02*
D03*
Y18034D02*
D03*
Y19304D02*
D03*
X15113D02*
D03*
Y18034D02*
D03*
Y16764D02*
D03*
Y15494D02*
D03*
X64828Y44857D02*
D03*
Y46127D02*
D03*
Y47397D02*
D03*
Y48667D02*
D03*
X70252D02*
D03*
Y47397D02*
D03*
Y46127D02*
D03*
Y44857D02*
D03*
D117*
X74843Y75278D02*
D03*
Y73246D02*
D03*
X112722Y74596D02*
D03*
Y76628D02*
D03*
X64353Y18130D02*
D03*
Y20162D02*
D03*
X66369Y18186D02*
D03*
Y20218D02*
D03*
D118*
X49728Y35167D02*
D03*
X50228D02*
D03*
X50728D02*
D03*
X51228D02*
D03*
X51728D02*
D03*
X52228D02*
D03*
X52728D02*
D03*
X53228D02*
D03*
X53728D02*
D03*
X54228D02*
D03*
X54728D02*
D03*
X55228D02*
D03*
X55728D02*
D03*
X56228D02*
D03*
X56728D02*
D03*
X57228D02*
D03*
Y46643D02*
D03*
X56728D02*
D03*
X56228D02*
D03*
X55728D02*
D03*
X55228D02*
D03*
X54728D02*
D03*
X54228D02*
D03*
X53728D02*
D03*
X53228D02*
D03*
X52728D02*
D03*
X52228D02*
D03*
X51728D02*
D03*
X51228D02*
D03*
X50728D02*
D03*
X50228D02*
D03*
X49728D02*
D03*
D119*
X59216Y37155D02*
D03*
Y37655D02*
D03*
Y38155D02*
D03*
Y38655D02*
D03*
Y39155D02*
D03*
Y39655D02*
D03*
Y40155D02*
D03*
Y40655D02*
D03*
Y41155D02*
D03*
Y41655D02*
D03*
Y42155D02*
D03*
Y42655D02*
D03*
Y43155D02*
D03*
Y43655D02*
D03*
Y44155D02*
D03*
Y44655D02*
D03*
X47740D02*
D03*
Y44155D02*
D03*
Y43655D02*
D03*
Y43155D02*
D03*
Y42655D02*
D03*
Y42155D02*
D03*
Y41655D02*
D03*
Y41155D02*
D03*
Y40655D02*
D03*
Y40155D02*
D03*
Y39655D02*
D03*
Y39155D02*
D03*
Y38655D02*
D03*
Y38155D02*
D03*
Y37655D02*
D03*
Y37155D02*
D03*
D120*
X58902Y11811D02*
D03*
X60452D02*
D03*
X59970Y52197D02*
D03*
X58420D02*
D03*
X62624Y36195D02*
D03*
X61074D02*
D03*
X122935Y67703D02*
D03*
X121385D02*
D03*
X46355Y45974D02*
D03*
X47905D02*
D03*
X46977Y33528D02*
D03*
X48527D02*
D03*
X60706Y46863D02*
D03*
X59156D02*
D03*
X51689Y33655D02*
D03*
X50139D02*
D03*
X47091Y34925D02*
D03*
X48641D02*
D03*
X62624Y37846D02*
D03*
X61074D02*
D03*
X61836Y43942D02*
D03*
X63386D02*
D03*
X60732Y45593D02*
D03*
X59182D02*
D03*
X59817Y35179D02*
D03*
X58267D02*
D03*
X47892Y47244D02*
D03*
X46342D02*
D03*
X61836Y42672D02*
D03*
X63386D02*
D03*
X110475Y55924D02*
D03*
X112025D02*
D03*
X67310Y76073D02*
D03*
X65760D02*
D03*
X104405Y77074D02*
D03*
X102855D02*
D03*
X29617Y74422D02*
D03*
X28067D02*
D03*
X53441Y17145D02*
D03*
X54991D02*
D03*
X59817Y33782D02*
D03*
X58267D02*
D03*
X68326Y23876D02*
D03*
X69876D02*
D03*
X68326Y25273D02*
D03*
X69876D02*
D03*
X60426Y68580D02*
D03*
X61976D02*
D03*
X97178Y69567D02*
D03*
X98728D02*
D03*
X61315Y39624D02*
D03*
X62865D02*
D03*
X61653Y40811D02*
D03*
X63203D02*
D03*
D121*
X67691Y77851D02*
D03*
X65659D02*
D03*
X104775Y78740D02*
D03*
X102743D02*
D03*
X30099Y76073D02*
D03*
X28067D02*
D03*
X37770Y74843D02*
D03*
X35738D02*
D03*
X65024Y26670D02*
D03*
X67056D02*
D03*
X52701Y22180D02*
D03*
X54733D02*
D03*
X54991Y15240D02*
D03*
X52959D02*
D03*
D122*
X67203Y61021D02*
D03*
Y59121D02*
D03*
X69703Y60071D02*
D03*
D123*
X27566Y62856D02*
X29028D01*
X153402Y22489D02*
X153429Y22516D01*
X153402Y21181D02*
Y22489D01*
X122977Y64292D02*
Y67661D01*
X118845Y60830D02*
X119514D01*
X122977Y64292D01*
X118775Y60760D02*
X118845Y60830D01*
X118300Y60760D02*
X118775D01*
X56765Y79971D02*
X58001D01*
X55222D02*
X56765D01*
X47028Y69567D02*
X47147Y69448D01*
X47819D02*
X48379Y68888D01*
X47147Y69448D02*
X47819D01*
X46065Y69567D02*
X47028D01*
X25375Y66952D02*
Y68021D01*
Y66952D02*
X25398Y66929D01*
X25375Y68021D02*
X25607Y68253D01*
X31514D01*
X31748Y66929D02*
Y68019D01*
X31514Y68253D02*
X31748Y68019D01*
X29028Y62717D02*
X29073Y62672D01*
X30823D02*
X30828Y62667D01*
X29073Y62672D02*
X30823D01*
X97012Y77363D02*
X97141Y77493D01*
X97004Y77356D02*
X97012Y77363D01*
Y79835D01*
Y77362D02*
Y77363D01*
X97005Y77355D02*
X97012Y77362D01*
Y79835D02*
X97019Y79842D01*
X94223Y80297D02*
X94243Y80277D01*
X93950Y80297D02*
X94223D01*
X93477Y80507D02*
X93740D01*
X93950Y80297D01*
X94243Y80277D02*
X94844D01*
X95069Y80052D01*
Y79842D02*
Y80052D01*
X29046Y79794D02*
X29339Y79501D01*
X28674Y79794D02*
X29046D01*
X29339Y78174D02*
Y79501D01*
X33344Y80152D02*
X34821D01*
X31799Y79632D02*
Y79707D01*
X32004Y79912D01*
X33119D01*
X33344Y80137D01*
X23778Y72391D02*
X25369D01*
X21783D02*
X23778D01*
X98682Y75276D02*
X98695Y75262D01*
Y73822D02*
Y75262D01*
Y73822D02*
X98708Y73809D01*
X100230Y74345D02*
X100523Y74052D01*
X103432D02*
X103725Y74345D01*
X100230D02*
Y75212D01*
X100523Y74052D02*
X103432D01*
X103725Y74345D02*
Y76163D01*
X104230Y76668D01*
Y76899D02*
X104405Y77074D01*
X104230Y76668D02*
Y76899D01*
X21769Y72405D02*
X21783Y72391D01*
X25369D02*
X25370Y72393D01*
Y72405D01*
X21880Y74466D02*
X24026D01*
X21769Y74355D02*
X21880Y74466D01*
X60630Y73406D02*
X60667Y73444D01*
X61989D01*
X62347Y73802D01*
X56988Y73851D02*
X57158Y73681D01*
X60549Y73406D02*
X60630D01*
X57158Y73681D02*
X60273D01*
X60549Y73406D01*
X62347Y73802D02*
X63088D01*
X63117Y73831D01*
X37651Y71583D02*
X37707Y71528D01*
X37778Y71604D02*
X37791Y71592D01*
X39154D01*
X39167Y71580D01*
X69299Y75998D02*
X69480Y75817D01*
X69467Y74282D02*
X69480Y74295D01*
Y75817D01*
X39198Y77404D02*
Y77918D01*
X38464Y78651D02*
X39198Y77918D01*
X36363Y77931D02*
X36867Y78435D01*
X38362D01*
X36401Y80617D02*
X36409Y80609D01*
X38206D02*
X38214Y80601D01*
X36409Y80609D02*
X38206D01*
X37738Y74812D02*
X37770Y74843D01*
X37738Y73509D02*
Y74812D01*
X35927Y71639D02*
X35983Y71583D01*
X37651D01*
X35752Y71464D02*
X35927Y71639D01*
X32229Y70990D02*
X34547D01*
X31777Y71441D02*
X32229Y70990D01*
X35021Y71464D02*
X35752D01*
X34547Y70990D02*
X35021Y71464D01*
X31777Y71441D02*
Y72348D01*
X31748Y72377D02*
X31777Y72348D01*
X62216Y53077D02*
Y53159D01*
X62006Y52867D02*
X62216Y53077D01*
X62006Y52735D02*
Y52867D01*
X61697Y52426D02*
X62006Y52735D01*
X21503Y74545D02*
X22000D01*
X22035Y74580D01*
X63146Y73831D02*
Y74253D01*
X96732Y75276D02*
X96957Y75501D01*
Y75887D02*
X97250Y76180D01*
X96957Y75501D02*
Y75887D01*
X97250Y76180D02*
X97750D01*
X112722Y74596D02*
X112729Y74603D01*
X115044D01*
X115051Y74610D01*
X115128Y73263D02*
X115289Y73101D01*
X115128Y73263D02*
Y74533D01*
X115051Y74610D02*
X115128Y74533D01*
X96712Y75295D02*
X96732Y75276D01*
X95730Y75295D02*
X96712D01*
X94845Y76180D02*
X95730Y75295D01*
X94386Y76187D02*
X94393Y76180D01*
X94845D01*
X97750D02*
X98363Y76793D01*
X98367Y77493D02*
X98852Y77978D01*
X97141Y77493D02*
X98367D01*
X98363Y76793D02*
X100010D01*
X98852Y77978D02*
X100609D01*
X100201Y75241D02*
Y75355D01*
X100172Y75385D02*
X100201Y75355D01*
X98699Y75385D02*
X100172D01*
X100201Y75241D02*
X100230Y75212D01*
X105533Y77874D02*
Y77982D01*
X105526Y77868D02*
X105533Y77874D01*
X105346Y77868D02*
X105526D01*
X104775Y78740D02*
X105533Y77982D01*
X69299Y77948D02*
X69308Y77958D01*
Y79247D01*
X69317Y79256D01*
X73107Y73018D02*
X73282Y73193D01*
X72832Y73018D02*
X73107D01*
X72745Y72930D02*
X72832Y73018D01*
X69832Y72930D02*
X72745D01*
X69496Y73266D02*
Y74253D01*
Y73266D02*
X69832Y72930D01*
X69467Y74282D02*
X69496Y74253D01*
X63439Y73029D02*
X66083D01*
X66692Y73638D01*
Y75455D02*
X67310Y76073D01*
X66692Y73638D02*
Y75455D01*
X63146Y73322D02*
Y73831D01*
Y73322D02*
X63439Y73029D01*
X63117Y74282D02*
X63146Y74253D01*
X63117Y73831D02*
Y73880D01*
X68709Y20885D02*
X68883Y20711D01*
X63859Y23531D02*
X66063D01*
X68709Y20885D01*
Y20885D02*
Y20885D01*
X69158Y19812D02*
X69782D01*
X68883Y20087D02*
X69158Y19812D01*
X68883Y20087D02*
Y20711D01*
X69782Y19812D02*
X70057Y19537D01*
X62846Y23531D02*
X63859D01*
X63859Y23531D01*
X61836Y24541D02*
X62846Y23531D01*
X28448Y46355D02*
X32385D01*
X33401Y26461D02*
X38440D01*
X70057Y18036D02*
Y19537D01*
Y16765D02*
Y18036D01*
X61341Y16510D02*
X61378Y16473D01*
X69764D01*
X70057Y16765D01*
X64717Y78793D02*
X65659Y77851D01*
X64706Y78793D02*
X64717D01*
X76352Y73708D02*
Y73771D01*
X75832Y73189D02*
X76352Y73708D01*
X75234Y73246D02*
X75291Y73189D01*
X75832D01*
X74843Y75278D02*
X74854Y75288D01*
X109788Y79384D02*
X109848Y79444D01*
X109788Y77924D02*
Y79384D01*
X107799Y75263D02*
Y77829D01*
X109368Y81029D02*
Y81279D01*
X107778Y79439D02*
X109368Y81029D01*
X107778Y77851D02*
Y79439D01*
X107452Y81144D02*
X107526Y81218D01*
Y82326D01*
X107193Y81054D02*
X107418Y81279D01*
X107193Y80214D02*
Y81054D01*
X106578Y79599D02*
X107193Y80214D01*
X106578Y79444D02*
Y79599D01*
X107950Y82750D02*
X111760D01*
X107526Y82326D02*
X107950Y82750D01*
X90525Y75068D02*
Y76359D01*
X90475Y75017D02*
X90525Y75068D01*
X32996Y78180D02*
X33215D01*
X74422Y80330D02*
Y82496D01*
X74283Y79271D02*
X74422Y79410D01*
X54309Y28114D02*
X57950Y24473D01*
X41829Y28114D02*
X54309D01*
X40158Y26442D02*
X41829Y28114D01*
X100609Y77978D02*
X101471Y77116D01*
Y75241D02*
Y77116D01*
X92236Y76187D02*
X94386D01*
X91944Y76480D02*
X92236Y76187D01*
X93531Y80560D02*
X93590Y80502D01*
X93385Y80707D02*
X93531Y80560D01*
X92596Y80707D02*
X93385D01*
X92549Y80754D02*
X92596Y80707D01*
X92549Y82335D02*
X92964Y82750D01*
X92549Y80754D02*
Y82335D01*
X91944Y79227D02*
Y80149D01*
X92549Y80754D01*
X91944Y76480D02*
Y77677D01*
X90197Y75038D02*
X91247D01*
X63288Y41827D02*
Y42672D01*
Y43730D01*
X68315Y47636D02*
X68893Y47058D01*
X68307Y47844D02*
X68315Y47836D01*
Y47636D02*
Y47836D01*
X112507Y80237D02*
X112757D01*
X112282Y80462D02*
X112507Y80237D01*
X112282Y80462D02*
Y80712D01*
X112198Y80796D02*
X112282Y80712D01*
X112198Y80796D02*
Y82312D01*
X111760Y82750D02*
X112198Y82312D01*
X114583Y78290D02*
X114587Y78294D01*
X114583Y78290D02*
X114583Y78290D01*
X114583Y76915D02*
Y78290D01*
X114579Y76911D02*
X114583Y76915D01*
X112757Y78287D02*
X112761Y78290D01*
X114583D01*
X111184Y78600D02*
X111341Y78443D01*
X112601D01*
X112757Y78287D01*
X114587Y80530D02*
Y81564D01*
X112757Y80237D02*
X114294D01*
X114587Y80530D01*
X112714Y80193D02*
X112757Y80237D01*
X111227Y80193D02*
X112714D01*
X111184Y80150D02*
X111227Y80193D01*
X36363Y77385D02*
X36401Y77347D01*
X36363Y77385D02*
Y77931D01*
X34822Y78600D02*
X34997Y78425D01*
X35870D01*
X36363Y77931D01*
X53390Y79971D02*
X55222D01*
X59171Y78162D02*
X59219Y78114D01*
X58316Y78162D02*
X59171D01*
X58050Y78427D02*
Y80020D01*
Y78427D02*
X58316Y78162D01*
X64387Y74282D02*
Y75563D01*
X61844Y76130D02*
X63820D01*
X64387Y75563D01*
X59219Y76164D02*
X59236Y76147D01*
X61827D01*
X61844Y76130D01*
Y78126D02*
X61982Y77988D01*
X61791Y78179D02*
X61844Y78126D01*
X55222Y80024D02*
X55259Y80061D01*
Y82716D01*
X55296Y82753D01*
X58001Y79971D02*
X58050Y80020D01*
X53341Y79922D02*
X53390Y79971D01*
X90532Y79589D02*
X90719Y79402D01*
X91769D01*
X91944Y79227D01*
X88878Y79882D02*
Y80795D01*
X89171Y79589D02*
X90532D01*
X88878Y79882D02*
X89171Y79589D01*
X77636Y78789D02*
Y79643D01*
X78065Y80072D02*
X79641D01*
X77636Y79643D02*
X78065Y80072D01*
X76272Y78389D02*
X76447Y78564D01*
X77411D01*
X77636Y78789D01*
X74422Y79410D02*
Y80330D01*
X76259Y78402D02*
X76272Y78389D01*
X75151Y78402D02*
X76259D01*
X74422Y79131D02*
X75151Y78402D01*
X74422Y79131D02*
Y79410D01*
X74129Y79117D02*
X74283Y79271D01*
X72689Y79117D02*
X74129D01*
X17670Y76528D02*
X17875Y76323D01*
X19032D01*
X19257Y76098D01*
Y75946D02*
Y76098D01*
X19118Y78373D02*
X19249Y78504D01*
Y79277D01*
X17875Y79593D02*
X18933D01*
X19249Y79277D01*
X17670Y79798D02*
X17875Y79593D01*
X34419Y82750D02*
X35039D01*
X36401Y80617D02*
Y81928D01*
X35039Y82750D02*
X35568Y82221D01*
X36108D01*
X36401Y81928D01*
X34419Y82750D02*
X34819Y82350D01*
X34821Y80152D02*
X34822Y80150D01*
X34819Y80153D02*
X34821Y80152D01*
X34819Y80153D02*
Y82350D01*
X31791Y79634D02*
X31793Y79633D01*
X32996Y77962D02*
X33215Y78180D01*
X33338D01*
X31296D02*
X32996D01*
X33338D02*
X33344Y78187D01*
X31289Y78174D02*
X31296Y78180D01*
X32996Y72399D02*
Y77962D01*
X61387Y52197D02*
X61615Y52426D01*
X61697D01*
X59970Y52197D02*
X61387D01*
X101595Y12524D02*
X101733Y12386D01*
X104157D01*
X104775Y78740D02*
Y79883D01*
X122935Y67703D02*
X123425Y68193D01*
Y69485D01*
X122935Y67703D02*
X122977Y67661D01*
X107471Y66704D02*
X107633Y66867D01*
X107696Y66804D02*
X107730Y66770D01*
Y65654D02*
Y66770D01*
X106382Y65361D02*
X107438D01*
X107730Y65654D01*
X106325Y65304D02*
X106382Y65361D01*
X107696Y66804D02*
X109065D01*
X109358Y65576D02*
Y66511D01*
X109065Y66804D02*
X109358Y66511D01*
X66863Y64932D02*
X69942D01*
X47905Y47117D02*
Y47273D01*
X48419Y33560D02*
X48594Y33735D01*
X48419Y33052D02*
Y33560D01*
X45466Y32950D02*
X45777Y32639D01*
X30861Y26461D02*
X33401D01*
X20728Y25751D02*
X21438Y26461D01*
X20728Y25751D02*
Y25805D01*
Y24583D02*
Y25751D01*
X12700Y11684D02*
X23193D01*
X106855Y12330D02*
Y24371D01*
X108204Y25720D01*
X70738Y77089D02*
Y78613D01*
Y78866D01*
X59219Y78114D02*
X59351Y78247D01*
X59571Y78266D01*
X59219Y78114D02*
X59571Y78266D01*
X68326Y25273D02*
Y27940D01*
X66724Y42129D02*
Y42183D01*
X66135Y42772D02*
X66724Y42183D01*
X66135Y42772D02*
Y43307D01*
X64528Y43717D02*
X65725D01*
X66135Y43307D01*
X20574Y24429D02*
X20728Y24583D01*
Y25805D02*
X20754Y25831D01*
X21438Y26461D02*
X30861D01*
X51689Y30734D02*
X54538D01*
X63803Y25400D02*
X64835Y24368D01*
X66773Y24130D02*
X68326D01*
X63373Y42672D02*
Y43815D01*
X51875Y29425D02*
X52586D01*
X51689Y29611D02*
X51875Y29425D01*
X51689Y29611D02*
Y30734D01*
X68326Y24130D02*
Y25273D01*
X63195Y30429D02*
X63321Y30555D01*
Y31037D01*
X69876Y25398D02*
X69939Y25336D01*
X69876Y25398D02*
Y26491D01*
X69511Y26856D02*
X69876Y26491D01*
X46274Y30822D02*
X46318Y30778D01*
X48298D01*
X48342Y30734D01*
X57950Y24473D02*
X61836D01*
X38533Y26450D02*
X38645D01*
X61836Y24473D02*
Y30806D01*
X67691Y77851D02*
Y78867D01*
Y77597D02*
Y77851D01*
X116470Y61893D02*
X116508Y61855D01*
X116956D01*
X63653Y31369D02*
X71247D01*
X63321Y31037D02*
X63653Y31369D01*
X46977Y33528D02*
X47119Y33670D01*
X47091Y34925D02*
X47119Y34896D01*
Y33670D02*
Y34896D01*
X46994Y34982D02*
X47091Y34925D01*
X45904Y34982D02*
X46994D01*
X45838Y35048D02*
X45904Y34982D01*
X23330Y64550D02*
X24003Y65224D01*
X23330Y57696D02*
Y64550D01*
Y57696D02*
X27432Y53594D01*
X65658Y74283D02*
Y77596D01*
X54551Y30780D02*
X55326D01*
X56314Y30554D02*
X56388Y30480D01*
X55552Y30554D02*
X56314D01*
X55326Y30780D02*
X55552Y30554D01*
X64528Y42167D02*
X64703Y41992D01*
X64023Y42672D02*
X64528Y42167D01*
X63386Y42672D02*
X64023D01*
X63373D02*
X63386D01*
X65183Y36214D02*
X65405Y36436D01*
X65132Y36163D02*
X65183Y36214D01*
X64528Y43717D02*
Y44782D01*
X64603Y44857D01*
X64828D01*
X58636Y32893D02*
X59749D01*
X58267Y33782D02*
X58442Y33607D01*
Y33087D02*
X58636Y32893D01*
X58442Y33087D02*
Y33607D01*
X59749Y32893D02*
X61836Y30806D01*
X56388Y30480D02*
X57658D01*
X45777Y32639D02*
X48006D01*
X48419Y33052D01*
X107540Y67085D02*
Y67909D01*
X106551Y68619D02*
X106844Y68326D01*
X107123D01*
X107540Y67909D01*
X106551Y68619D02*
Y69793D01*
X9689Y14695D02*
X12700Y11684D01*
X23318Y12015D02*
X23368Y12065D01*
X23068Y12015D02*
X23318D01*
X43198Y46627D02*
X45085Y48514D01*
X47593D01*
X40428Y46627D02*
X43198D01*
X47886Y47292D02*
Y48221D01*
X47593Y48514D02*
X47886Y48221D01*
Y47292D02*
X47905Y47273D01*
X69876Y22637D02*
Y23876D01*
X69601Y22362D02*
X69876Y22637D01*
X69469Y22362D02*
X69601D01*
X54996Y17155D02*
Y18580D01*
Y19525D01*
X63195Y30429D02*
X63332Y30292D01*
X24003Y65224D02*
Y65278D01*
X16802Y78373D02*
X19118D01*
X69876Y25273D02*
X69939Y25336D01*
X68893Y42359D02*
Y47058D01*
Y42359D02*
X68970Y42282D01*
X71194Y66294D02*
X71882D01*
X69496Y68148D02*
Y68805D01*
X69546Y67941D02*
Y68099D01*
X69467Y68834D02*
X69496Y68805D01*
Y68148D02*
X69546Y68099D01*
Y67941D02*
X71194Y66294D01*
X79494Y10414D02*
X84664D01*
X71247Y31369D02*
Y43141D01*
Y29931D02*
Y31369D01*
X68580Y32766D02*
X68707Y32639D01*
X66085Y32766D02*
X68580D01*
X65958Y32893D02*
X66085Y32766D01*
X68516Y37528D02*
X68707Y37719D01*
X66611Y37528D02*
X68516D01*
X66421Y37338D02*
X66611Y37528D01*
X68653Y40313D02*
X68707Y40259D01*
X66482Y40313D02*
X68653D01*
X66428Y40367D02*
X66482Y40313D01*
X69247Y42005D02*
X70485Y40767D01*
X68724Y35196D02*
X70192D01*
X70485Y35489D02*
Y40767D01*
X70192Y35196D02*
X70485Y35489D01*
X70954Y43434D02*
X71247Y43141D01*
X71120Y29804D02*
X71247Y29931D01*
X66218Y35179D02*
X68707D01*
X68724Y35196D01*
X65183Y36214D02*
X66218Y35179D01*
X73886Y14351D02*
X74013Y14478D01*
X71120Y14351D02*
X73886D01*
X69088D02*
X71120D01*
X68036Y15403D02*
X69088Y14351D01*
X74013Y14478D02*
X74267Y14224D01*
X56366Y15403D02*
X68036D01*
X54991Y15367D02*
Y15621D01*
X55249Y15109D02*
X55511D01*
X55542Y15078D01*
X56041D01*
X56366Y15403D01*
X54991Y15367D02*
X55249Y15109D01*
X54996Y15626D02*
Y17155D01*
X94107Y66167D02*
X94996Y67056D01*
X96901D01*
X48379Y68888D02*
X48460D01*
X90170Y10541D02*
X90297Y10414D01*
X91821D01*
X94488Y13081D01*
Y17907D01*
X62617Y36188D02*
X62624Y36195D01*
X62617Y34831D02*
Y36188D01*
X62611Y34824D02*
X62617Y34831D01*
X64703Y41992D02*
X65112D01*
X65405Y41699D01*
Y36436D02*
Y41699D01*
X63744Y28194D02*
X65327D01*
X65282Y28149D02*
X65327Y28194D01*
X65282Y26928D02*
Y28149D01*
X65024Y26670D02*
X65282Y26928D01*
X63288Y40896D02*
Y41783D01*
X24060Y65221D02*
X25224D01*
X8255Y15494D02*
X9689D01*
X7620Y16129D02*
X8255Y15494D01*
X7575Y17322D02*
X7620Y17277D01*
Y16129D02*
Y17277D01*
X38653Y26442D02*
X40158D01*
X38645Y26450D02*
X38653Y26442D01*
X53340Y25781D02*
X54683D01*
X55191Y25273D01*
X55245D01*
X32385Y46355D02*
Y48387D01*
Y41790D02*
Y46355D01*
X27432Y47371D02*
X28448Y46355D01*
X27432Y47371D02*
Y53594D01*
X32385Y41790D02*
X35028Y39147D01*
X33401Y26502D02*
Y37520D01*
X35028Y39147D01*
X104022Y65278D02*
X106299D01*
X106325Y65304D01*
X107471Y66450D02*
Y66704D01*
X98615Y69454D02*
X98728Y69567D01*
X98615Y68770D02*
Y69454D01*
X96901Y67056D02*
X98615Y68770D01*
X69850Y43434D02*
X70954D01*
X68970Y42269D02*
X69234Y42005D01*
X69247D01*
X68970Y42269D02*
Y42282D01*
X69146Y48667D02*
X70252D01*
X68215Y47736D02*
X69146Y48667D01*
X61836Y43942D02*
X61880Y43986D01*
X60452Y7469D02*
Y11811D01*
Y7469D02*
X61702Y6219D01*
Y5961D02*
Y6219D01*
X63034Y40642D02*
X63203Y40811D01*
X63034Y39793D02*
Y40642D01*
X62865Y39624D02*
X63034Y39793D01*
X63203Y40811D02*
X63288Y40896D01*
Y43730D02*
X63373Y43815D01*
X62624Y36195D02*
X62656Y36163D01*
X65132D01*
X32385Y48387D02*
X38668D01*
X40428Y46627D01*
X117162Y60841D02*
Y61649D01*
X116956Y61855D02*
X117162Y61649D01*
X63145Y25400D02*
X63803D01*
X58902Y8241D02*
Y11811D01*
X56622Y5961D02*
X58902Y8241D01*
X63627Y28311D02*
X63744Y28194D01*
X63627Y28311D02*
Y29081D01*
X63332Y29349D02*
Y30292D01*
X45974Y69658D02*
X46065Y69567D01*
X102742Y77074D02*
Y78485D01*
X64897Y24429D02*
X66474D01*
X66773Y24130D01*
X9689Y14695D02*
Y15494D01*
X48641Y33782D02*
Y34925D01*
X44813Y35048D02*
X45838D01*
X44805Y35056D02*
X44813Y35048D01*
X23368Y8735D02*
Y12065D01*
Y8735D02*
X26142Y5961D01*
X117162Y60841D02*
X118219D01*
X118300Y60760D01*
X69876Y24130D02*
Y25273D01*
X54996Y19525D02*
X55001Y19530D01*
X54991Y15621D02*
X54996Y15626D01*
X66828Y64967D02*
X66863Y64932D01*
X69942D02*
X69977Y64897D01*
X98728Y69567D02*
X100122D01*
X100201Y69646D01*
Y69793D01*
X85598Y68865D02*
Y69042D01*
X85723Y69167D01*
X86728D01*
X85598Y66375D02*
Y68865D01*
Y66375D02*
X85725Y66248D01*
Y66167D02*
Y66248D01*
X61976Y66294D02*
Y68580D01*
X63038D01*
X63117Y68659D01*
Y68834D01*
X25224Y65221D02*
X25328Y65117D01*
X24003Y65278D02*
X24060Y65221D01*
X102742Y75242D02*
Y77074D01*
X27940Y76200D02*
X28067Y76073D01*
X25146Y75946D02*
X26668Y74424D01*
Y72377D02*
Y74424D01*
X21207Y75946D02*
X25146D01*
X65866Y80692D02*
X67691Y78867D01*
X65866Y82378D02*
X66206Y82718D01*
X65866Y80692D02*
Y82378D01*
X67485Y77391D02*
X67691Y77597D01*
X65657Y74282D02*
X65658Y74283D01*
Y77596D02*
X65659Y77597D01*
X102742Y78485D02*
X102743Y78486D01*
X104053Y80605D02*
X104775Y79883D01*
X103884Y82750D02*
X104053Y82581D01*
Y80605D02*
Y82581D01*
X102741Y75241D02*
X102742Y75242D01*
X15877Y79298D02*
Y82750D01*
Y79298D02*
X16802Y78373D01*
X21207Y75946D02*
X21208Y75947D01*
Y78231D01*
X21209Y78232D01*
X32996Y72399D02*
X33018Y72377D01*
X55286Y82718D02*
X55753Y82251D01*
X59003Y76380D02*
X59218Y76165D01*
X74168Y82750D02*
X74422Y82496D01*
X70738Y74283D02*
Y77089D01*
X70737Y74282D02*
X70738Y74283D01*
Y78866D02*
X70739Y78867D01*
X70715Y74304D02*
X70737Y74282D01*
X70821Y78613D02*
X70842Y78591D01*
X107799Y75263D02*
X107821Y75241D01*
X107778Y77851D02*
X107799Y77829D01*
D124*
X66352Y45269D02*
X66391Y45307D01*
X66352Y45261D02*
Y45269D01*
X25477Y71467D02*
X25712Y71232D01*
X25477Y71467D02*
Y72298D01*
X25712Y71232D02*
X28720D01*
X25370Y72405D02*
X25398Y72377D01*
X25477Y72298D01*
X60491Y75168D02*
X60533Y75209D01*
X57871Y75168D02*
X60491D01*
X57085Y75953D02*
X57871Y75168D01*
X35738Y74643D02*
Y74843D01*
X35430Y74335D02*
X35738Y74643D01*
X34299Y74335D02*
X35430D01*
X34299Y72432D02*
Y74335D01*
Y72432D02*
X34321Y72410D01*
X34288Y72377D02*
X34321Y72410D01*
X64828Y46127D02*
X66156D01*
X66391Y45893D01*
Y45307D02*
Y45893D01*
X28720Y71232D02*
X28954Y71467D01*
Y73759D01*
X29617Y74422D01*
X106567Y74199D02*
X106801Y73965D01*
X106551Y75241D02*
X106567Y75225D01*
Y74199D02*
Y75225D01*
X106801Y73965D02*
X111252D01*
X111259Y73971D01*
X112129Y73101D02*
X113339D01*
X111259Y73971D02*
Y74956D01*
Y73971D02*
X112129Y73101D01*
X110776Y76628D02*
X112722D01*
X110190Y76042D02*
X110776Y76628D01*
X110113Y75276D02*
X110190Y75353D01*
Y76042D01*
X74985Y73279D02*
X75048D01*
X74877D02*
X74985D01*
X74843D02*
X74877D01*
X73282Y74743D02*
X74281Y73743D01*
Y73554D02*
Y73743D01*
Y73554D02*
X74589Y73246D01*
X74843D01*
X72007Y74282D02*
X72821D01*
X73282Y74743D01*
X56765Y75953D02*
X57085D01*
X56595Y78384D02*
X56765Y78553D01*
Y78384D02*
Y78553D01*
Y75953D02*
Y78384D01*
X55497Y78349D02*
X55947D01*
X55981Y78384D02*
X56595D01*
X55947Y78349D02*
X55981Y78384D01*
X54962Y77813D02*
X55497Y78349D01*
X74843Y73246D02*
X75234D01*
X88878Y77525D02*
X88935Y77582D01*
X90475D01*
X90532Y77639D01*
X94780Y77435D02*
X94975D01*
X151505Y51798D02*
Y51879D01*
X61844Y78126D02*
Y79342D01*
Y78080D02*
Y78126D01*
X61320Y79865D02*
Y80020D01*
Y79865D02*
X61844Y79342D01*
X53341Y76652D02*
X53536Y76848D01*
X54727D01*
X54962Y77082D02*
Y77813D01*
X54727Y76848D02*
X54962Y77082D01*
X93581Y77488D02*
X93728D01*
X94780Y76830D02*
Y77355D01*
X93675Y77435D02*
X94780D01*
X94975D02*
X95055Y77355D01*
X90532Y77601D02*
X91868D01*
X94780Y77355D02*
X95055D01*
X93609Y77369D02*
X93728Y77488D01*
X93581Y77341D02*
X93602Y77362D01*
X91868Y77601D02*
X91944Y77677D01*
X72705Y76925D02*
X72840Y77060D01*
X74494D01*
X40132Y67640D02*
X41544D01*
X151376Y52008D02*
Y53712D01*
Y52008D02*
X151505Y51879D01*
X152598Y33063D02*
Y34443D01*
X104209Y17604D02*
X104238Y17575D01*
X101595Y17604D02*
X104209D01*
X104121Y15064D02*
X104225Y14960D01*
X101595Y15064D02*
X104121D01*
X152468Y34573D02*
X152598Y34443D01*
X104225Y14960D02*
X104432Y15167D01*
X153342Y25152D02*
Y27060D01*
Y25152D02*
X153429Y25066D01*
X152381Y37210D02*
Y39420D01*
Y37210D02*
X152468Y37123D01*
X151290Y56349D02*
Y58083D01*
Y56349D02*
X151376Y56262D01*
X148525Y77287D02*
X151290Y74523D01*
Y60633D02*
Y74523D01*
X148493Y88540D02*
X153612Y83421D01*
X152388Y44321D02*
X153612Y45545D01*
Y83421D01*
X153280Y31255D02*
X154560Y32535D01*
Y92633D01*
X148493Y98700D02*
X154560Y92633D01*
X152381Y41970D02*
X152388Y41978D01*
Y44321D01*
X153280Y29673D02*
X153342Y29610D01*
X153280Y29673D02*
Y31255D01*
X108804Y67945D02*
X110176D01*
X112291Y65830D01*
X67388Y58188D02*
Y59021D01*
X67304Y58104D02*
X67388Y58188D01*
X67203Y59121D02*
X67288D01*
X67388Y59021D01*
X110078Y75241D02*
X110113Y75276D01*
X59817Y35179D02*
X59865Y35131D01*
X23433Y14030D02*
X24201D01*
X23368Y13965D02*
X23433Y14030D01*
X24201D02*
X25383Y15212D01*
Y16063D01*
X31989Y55342D02*
X32086Y55245D01*
X31989Y55342D02*
Y56720D01*
X25274Y63621D02*
X25328Y63567D01*
X24180Y63621D02*
X25274D01*
X49540Y33056D02*
X50139Y33655D01*
X49540Y32560D02*
Y33056D01*
X46245Y47341D02*
X46342Y47244D01*
X45180Y47341D02*
X46245D01*
X59817Y34036D02*
Y35179D01*
X42799Y35052D02*
X44801D01*
X29210Y16256D02*
X30861Y14605D01*
X25576Y16256D02*
X29210D01*
X19093Y15269D02*
X19203Y15379D01*
X19273Y15310D02*
X19342Y15240D01*
X19203Y15379D02*
X19273Y15310D01*
Y15310D01*
Y14447D02*
Y15310D01*
X17358Y13650D02*
X17419Y13589D01*
X18415D01*
X19273Y14447D01*
X7575Y18872D02*
Y19939D01*
X21463Y15322D02*
X22672D01*
X23363Y14631D01*
X19342Y15240D02*
X21209D01*
X25383Y16063D02*
X25576Y16256D01*
X23394Y13991D02*
Y14631D01*
X42674Y35892D02*
X42805Y36023D01*
X42674Y35052D02*
Y35892D01*
X50701Y20206D02*
X50789Y20118D01*
X51782Y19630D02*
X52401D01*
X51294Y20118D02*
X51782Y19630D01*
X50789Y20118D02*
X51294D01*
X52401Y19630D02*
X52501Y19530D01*
X7575Y18872D02*
X7763Y19060D01*
X8570D01*
X9564Y19179D02*
X9689Y19304D01*
X8689Y19179D02*
X9564D01*
X8570Y19060D02*
X8689Y19179D01*
X6720Y20794D02*
X7575Y19939D01*
X86614Y10414D02*
X88093D01*
X88220Y10541D01*
X84582Y13081D02*
X84623Y13040D01*
Y10455D02*
Y13040D01*
Y10455D02*
X84664Y10414D01*
X93772Y69067D02*
X94691Y68148D01*
X89768Y69067D02*
X93772D01*
X94691Y68148D02*
X96110Y69567D01*
X109091Y75241D02*
X110078D01*
X71190Y67500D02*
Y67931D01*
Y67500D02*
X71250Y67440D01*
X70737Y68383D02*
Y68834D01*
Y68383D02*
X71190Y67931D01*
X86532Y13081D02*
X87675D01*
X60706Y46863D02*
X61504D01*
X63366Y38002D02*
X64106Y38742D01*
X62624Y37846D02*
X62780Y38002D01*
X64106Y38742D02*
X65113D01*
X62780Y38002D02*
X63366D01*
X65113Y38742D02*
X65115Y38744D01*
X46355Y45974D02*
Y47117D01*
X52651Y15929D02*
Y16737D01*
X52578Y16810D02*
Y16891D01*
Y16810D02*
X52651Y16737D01*
X52578Y16891D02*
X52635Y16948D01*
X64828Y46127D02*
Y47397D01*
X62119Y44857D02*
X64528D01*
X61867Y43859D02*
Y44606D01*
X62119Y44857D01*
X33020Y65278D02*
Y66927D01*
X33018Y66929D02*
X33020Y66927D01*
X107900Y68848D02*
X108804Y67945D01*
X107900Y68848D02*
Y69713D01*
X96110Y69567D02*
X97178D01*
X116038Y65830D02*
X118765D01*
X112291D02*
X116038D01*
X42164Y68260D02*
Y69658D01*
X41544Y67640D02*
X42164Y68260D01*
X118765Y65830D02*
X118775Y65840D01*
X53441Y17145D02*
X53594Y17298D01*
X52501Y19530D02*
X53360D01*
X53594Y19296D01*
Y17298D02*
Y19296D01*
X53244Y16948D02*
X53441Y17145D01*
X52635Y16948D02*
X53244D01*
X60732Y45593D02*
Y46609D01*
X107821Y69793D02*
X107900Y69713D01*
X81788Y68705D02*
Y68865D01*
X81663Y68580D02*
X81788Y68705D01*
X80772Y68580D02*
X81663D01*
X88318Y67617D02*
X89768Y69067D01*
X86995Y67617D02*
X88318D01*
X67170Y59088D02*
X67203Y59121D01*
X65311Y59088D02*
X67170D01*
X6463Y21051D02*
Y21617D01*
X6720Y20794D02*
X6720D01*
X6363Y21717D02*
X6463Y21617D01*
X6289Y21717D02*
X6363D01*
X6463Y21051D02*
X6720Y20794D01*
X23363Y14631D02*
X23394D01*
X23368Y13965D02*
X23394Y13991D01*
X44801Y35052D02*
X44805Y35056D01*
X72007Y73831D02*
Y74282D01*
D125*
X103871Y93206D02*
Y96955D01*
X122680Y82750D02*
X122777Y82653D01*
X67310Y93611D02*
Y97003D01*
X25400Y94321D02*
Y96977D01*
Y94321D02*
X25438Y94283D01*
D126*
X30099Y76045D02*
Y76073D01*
Y76045D02*
X30307Y75837D01*
X31296D01*
X31334Y75798D01*
X35833Y73284D02*
X35927Y73189D01*
X35833Y73284D02*
Y74748D01*
X35738Y74843D02*
X35833Y74748D01*
X27938Y74422D02*
Y76200D01*
Y77380D01*
X74877Y73279D02*
X74931Y73333D01*
X74843Y73246D02*
X74877Y73279D01*
X74985D02*
X75006Y73259D01*
X74931Y73333D02*
X74985Y73279D01*
X64353Y18078D02*
X66620D01*
X66369Y18186D02*
X66444Y18111D01*
X68032D01*
X68107Y18036D01*
X64180Y18251D02*
X64353Y18078D01*
X62126Y18367D02*
X63015D01*
X63131Y18251D01*
X64180D01*
X61301Y19192D02*
X62126Y18367D01*
X61301Y19192D02*
Y20380D01*
X102522Y78286D02*
X102743Y78507D01*
X101585Y78248D02*
X101623Y78286D01*
X102743Y78507D02*
Y78740D01*
X101623Y78286D02*
X102522D01*
X27174Y77877D02*
X27441D01*
X27938Y77380D01*
Y72377D02*
Y74422D01*
X87122Y14859D02*
X88519Y16256D01*
X78867Y14224D02*
Y14509D01*
X79217Y14859D01*
X87122D01*
X71120Y14351D02*
Y27854D01*
Y6350D02*
Y14351D01*
Y6350D02*
X76581Y889D01*
X82550D01*
X84328Y2667D01*
X88519Y16256D02*
Y19304D01*
X84328Y23495D02*
Y28067D01*
Y23495D02*
X88519Y19304D01*
X19884Y46962D02*
Y48387D01*
X19812Y46890D02*
X19884Y46962D01*
X19812Y46863D02*
Y46890D01*
X19031Y44215D02*
X20301D01*
X18923Y44323D02*
X19031Y44215D01*
X20301D02*
X20320Y44196D01*
D127*
X45339Y75438D02*
X45339Y75438D01*
Y76984D01*
Y77883D01*
Y78775D02*
Y79649D01*
Y77883D02*
Y78775D01*
Y79649D02*
Y80552D01*
Y82750D01*
X82389Y74679D02*
X82423Y74645D01*
X85025Y82687D02*
X85088Y82750D01*
X84985Y74645D02*
X85025Y74685D01*
X84963Y74645D02*
X84985D01*
D128*
X20330Y97597D02*
Y100939D01*
X45466Y96977D02*
Y100319D01*
X122680Y80340D02*
Y82750D01*
X122541Y80200D02*
X122680Y80340D01*
X85030Y80591D02*
Y82692D01*
X85088Y82750D01*
X12638Y38354D02*
X14171D01*
D129*
X21261Y84350D02*
Y85445D01*
X98348Y84350D02*
Y85445D01*
X60756Y84350D02*
Y85445D01*
X3636Y43735D02*
X9017Y38354D01*
X3636Y54475D02*
X6968Y57807D01*
X3636Y43735D02*
Y54475D01*
X9017Y38354D02*
X12638D01*
X6968Y57807D02*
X15516D01*
D130*
X120597Y96966D02*
D03*
X103871Y96955D02*
D03*
X85855Y96960D02*
D03*
X25400Y96977D02*
D03*
X67310Y97003D02*
D03*
X45466Y96977D02*
D03*
D131*
X115517Y96966D02*
D03*
X98791Y96955D02*
D03*
X80775Y96960D02*
D03*
X20320Y96977D02*
D03*
X62230Y97003D02*
D03*
X40386Y96977D02*
D03*
D132*
X142748Y33347D02*
D03*
X142765Y43251D02*
D03*
X125476Y43126D02*
D03*
X108204Y33220D02*
D03*
X125730Y33347D02*
D03*
X108204Y42872D02*
D03*
D133*
X142748Y25847D02*
D03*
X142765Y50751D02*
D03*
X125476Y50626D02*
D03*
X108204Y25720D02*
D03*
X125730Y25847D02*
D03*
X108204Y50372D02*
D03*
D134*
X148442Y67147D02*
D03*
X142726Y5590D02*
D03*
X148493Y88540D02*
D03*
X6968Y67967D02*
D03*
D135*
X138282Y67147D02*
D03*
X148442Y77307D02*
D03*
X138282D02*
D03*
X66782Y5961D02*
D03*
X61702D02*
D03*
X56622D02*
D03*
X51542D02*
D03*
X46462D02*
D03*
X41382D02*
D03*
X36302D02*
D03*
X31222D02*
D03*
X26142D02*
D03*
X21062D02*
D03*
X15982D02*
D03*
X10902D02*
D03*
X132566Y5590D02*
D03*
X142726Y15750D02*
D03*
X132566D02*
D03*
X138333Y88540D02*
D03*
X148493Y98700D02*
D03*
X138333D02*
D03*
X17128Y67967D02*
D03*
X6968Y57807D02*
D03*
X17128D02*
D03*
D136*
X74168Y82750D02*
D03*
X79628D02*
D03*
X85088D02*
D03*
X14171Y32894D02*
D03*
Y38354D02*
D03*
Y43814D02*
D03*
X45339Y82750D02*
D03*
X39879D02*
D03*
X34419D02*
D03*
X15877Y82750D02*
D03*
X21337D02*
D03*
X26797D02*
D03*
X111760D02*
D03*
X117220D02*
D03*
X122680D02*
D03*
X66216Y82753D02*
D03*
X60756D02*
D03*
X55296D02*
D03*
X92964Y82750D02*
D03*
X98424D02*
D03*
X103884D02*
D03*
D137*
X56226Y96840D02*
D03*
X42164Y52070D02*
D03*
Y55118D02*
D03*
D138*
X53686Y96840D02*
D03*
X51146D02*
D03*
X39624Y52070D02*
D03*
X68707Y32639D02*
D03*
Y35179D02*
D03*
Y37719D02*
D03*
Y40259D02*
D03*
X35028Y34067D02*
D03*
Y36607D02*
D03*
Y39147D02*
D03*
Y41687D02*
D03*
Y44227D02*
D03*
X101595Y17604D02*
D03*
Y15064D02*
D03*
X40428Y44087D02*
D03*
Y41547D02*
D03*
Y39007D02*
D03*
Y36467D02*
D03*
Y33927D02*
D03*
X39624Y55118D02*
D03*
D139*
X68707Y30099D02*
D03*
X35028Y46767D02*
D03*
X101595Y12524D02*
D03*
X40428Y46627D02*
D03*
D140*
X8988Y30089D02*
D03*
Y48189D02*
D03*
D141*
X38354Y14478D02*
D03*
X35814D02*
D03*
X33274D02*
D03*
X30734D02*
D03*
Y22098D02*
D03*
X33274D02*
D03*
X35814D02*
D03*
X38354D02*
D03*
D142*
X79226Y2746D02*
D03*
X81766D02*
D03*
X84306D02*
D03*
X86846D02*
D03*
X91926D02*
D03*
X94466D02*
D03*
X79248Y28067D02*
D03*
X81788D02*
D03*
X84328D02*
D03*
X86868D02*
D03*
X91948D02*
D03*
X94488D02*
D03*
X79248Y38227D02*
D03*
X81788D02*
D03*
X84328D02*
D03*
X86868D02*
D03*
X91948D02*
D03*
X94488D02*
D03*
Y48387D02*
D03*
X91948D02*
D03*
X86868D02*
D03*
X84328D02*
D03*
X81788D02*
D03*
X79248D02*
D03*
X94488Y17907D02*
D03*
X91948D02*
D03*
X86868D02*
D03*
X84328D02*
D03*
X81788D02*
D03*
X79248D02*
D03*
D143*
X97006Y2746D02*
D03*
X97028Y28067D02*
D03*
Y38227D02*
D03*
Y48387D02*
D03*
Y17907D02*
D03*
D144*
X2482Y2769D02*
D03*
X152918Y2389D02*
D03*
X152782Y107002D02*
D03*
X2749Y106608D02*
D03*
D145*
X53721Y89989D02*
D03*
X3399Y89993D02*
D03*
X49403Y89989D02*
D03*
X124747Y90010D02*
D03*
D146*
X41790Y76638D02*
D03*
X41535Y77487D02*
D03*
X39198Y77404D02*
D03*
X43098Y77849D02*
D03*
X41134Y76022D02*
D03*
X42809Y78696D02*
D03*
X42154Y78095D02*
D03*
X41969Y78989D02*
D03*
X40929Y76890D02*
D03*
X40289Y76261D02*
D03*
X39663Y75629D02*
D03*
X41317Y78385D02*
D03*
X40654Y77753D02*
D03*
X39413Y76479D02*
D03*
X40043Y77121D02*
D03*
X41132Y79240D02*
D03*
X40482Y78637D02*
D03*
X39853Y78007D02*
D03*
X38586Y76754D02*
D03*
X42414Y77262D02*
D03*
X40508Y75405D02*
D03*
X118157Y76914D02*
D03*
X117279Y76938D02*
D03*
X118560Y76137D02*
D03*
X117687Y76175D02*
D03*
X77977Y73529D02*
D03*
X45358Y79649D02*
D03*
X45395Y78775D02*
D03*
X45377Y77883D02*
D03*
X45388Y76984D02*
D03*
X45365Y80552D02*
D03*
X118550Y74586D02*
D03*
X78869Y73566D02*
D03*
X79789Y73552D02*
D03*
X80705Y73537D02*
D03*
X81114Y74341D02*
D03*
X79370Y74307D02*
D03*
X80281Y74336D02*
D03*
X78484D02*
D03*
X77593D02*
D03*
X77145Y75130D02*
D03*
X80695Y75139D02*
D03*
X79784Y75100D02*
D03*
X78918Y75115D02*
D03*
X78026D02*
D03*
X81168Y75894D02*
D03*
X80228Y75880D02*
D03*
X79341Y75909D02*
D03*
X78450Y75885D02*
D03*
X77568Y75909D02*
D03*
X76697Y75889D02*
D03*
X115051Y74610D02*
D03*
X116815Y74615D02*
D03*
X117678Y74624D02*
D03*
X115923Y74596D02*
D03*
X115487Y75383D02*
D03*
X118986Y75359D02*
D03*
X117251Y75388D02*
D03*
X118114Y75397D02*
D03*
X116360Y75369D02*
D03*
X114605Y75359D02*
D03*
X115933Y76146D02*
D03*
X116374Y76914D02*
D03*
X115482Y76947D02*
D03*
X125711Y79301D02*
D03*
X126161Y78541D02*
D03*
X145371Y77446D02*
D03*
X127491Y79314D02*
D03*
X126613Y79308D02*
D03*
X117934Y79333D02*
D03*
X118379Y78561D02*
D03*
X118374Y80132D02*
D03*
X119268Y80126D02*
D03*
X142747Y77440D02*
D03*
X143606Y77449D02*
D03*
X143170Y76674D02*
D03*
X144056Y76689D02*
D03*
X143175Y78233D02*
D03*
X144076Y78257D02*
D03*
X144960Y78218D02*
D03*
X144501Y77437D02*
D03*
X144951Y76686D02*
D03*
X126181Y80109D02*
D03*
X127065Y80071D02*
D03*
X127056Y78538D02*
D03*
X119234Y78582D02*
D03*
X119670Y79357D02*
D03*
X118811Y79348D02*
D03*
X114579Y76911D02*
D03*
X32604Y100495D02*
D03*
X29914D02*
D03*
X30811D02*
D03*
X31707D02*
D03*
X29018D02*
D03*
X35294D02*
D03*
X36190D02*
D03*
X37087D02*
D03*
X33501D02*
D03*
X34397D02*
D03*
X34412Y99606D02*
D03*
X33515D02*
D03*
X37102D02*
D03*
X36205D02*
D03*
X35308D02*
D03*
X29032D02*
D03*
X31722D02*
D03*
X30825D02*
D03*
X29929D02*
D03*
X32619D02*
D03*
X32593Y101384D02*
D03*
X29903D02*
D03*
X30800D02*
D03*
X31696D02*
D03*
X29007D02*
D03*
X35283D02*
D03*
X36179D02*
D03*
X37076D02*
D03*
X33490D02*
D03*
X34386D02*
D03*
X34372Y102272D02*
D03*
X33475D02*
D03*
X37061D02*
D03*
X36165D02*
D03*
X35268D02*
D03*
X28992D02*
D03*
X31682D02*
D03*
X30785D02*
D03*
X29889D02*
D03*
X32578D02*
D03*
X116824Y76165D02*
D03*
X115061Y76160D02*
D03*
X87675Y13081D02*
D03*
X20320Y44196D02*
D03*
D147*
X153402Y21181D02*
D03*
X66352Y45261D02*
D03*
X59614Y36322D02*
D03*
X27566Y62856D02*
D03*
X42697Y65202D02*
D03*
X23175Y72345D02*
D03*
X98708Y73809D02*
D03*
X112064Y73165D02*
D03*
X24026Y74466D02*
D03*
X60630Y73406D02*
D03*
X60533Y75209D02*
D03*
X39167Y71580D02*
D03*
X34299Y74335D02*
D03*
X62216Y53159D02*
D03*
X64058Y51104D02*
D03*
X58066Y57097D02*
D03*
X52540Y62623D02*
D03*
X31334Y75798D02*
D03*
X105346Y77868D02*
D03*
X69317Y79256D02*
D03*
X64933Y21472D02*
D03*
X64706Y78793D02*
D03*
X76352Y73771D02*
D03*
X90525Y76359D02*
D03*
X51491Y27264D02*
D03*
X100010Y76793D02*
D03*
X151505Y51798D02*
D03*
X152598Y33063D02*
D03*
X68307Y47844D02*
D03*
X88265Y75692D02*
D03*
X40132Y67640D02*
D03*
X96901Y60579D02*
D03*
X101585Y78248D02*
D03*
X69511Y26856D02*
D03*
X68326Y27940D02*
D03*
X66724Y42129D02*
D03*
X20754Y25831D02*
D03*
X52586Y29425D02*
D03*
X63264Y30498D02*
D03*
X46274Y30822D02*
D03*
X59944Y25527D02*
D03*
X43180Y26924D02*
D03*
X27174Y77877D02*
D03*
X67304Y58104D02*
D03*
X62966Y57854D02*
D03*
X60481Y67356D02*
D03*
X110113Y75276D02*
D03*
X53818Y37149D02*
D03*
X55407Y32838D02*
D03*
X117381Y56930D02*
D03*
X116470Y61893D02*
D03*
X117587Y66867D02*
D03*
X31989Y56720D02*
D03*
X24180Y63621D02*
D03*
X49540Y32560D02*
D03*
X45180Y47341D02*
D03*
X57380Y39720D02*
D03*
X57340Y43840D02*
D03*
X56938Y38559D02*
D03*
X59101Y31877D02*
D03*
X61214Y34163D02*
D03*
X24130Y19558D02*
D03*
X42674Y35052D02*
D03*
X44394Y39729D02*
D03*
X46211Y41065D02*
D03*
X45432Y39729D02*
D03*
X7575Y19939D02*
D03*
X94691Y68148D02*
D03*
X52730Y43302D02*
D03*
X42591Y42389D02*
D03*
X72517Y36447D02*
D03*
X57135Y37005D02*
D03*
X71250Y67440D02*
D03*
X67188Y50424D02*
D03*
X46200Y37716D02*
D03*
X47706Y36159D02*
D03*
X42969Y40497D02*
D03*
X44719Y44945D02*
D03*
X51054Y44831D02*
D03*
X55318Y41310D02*
D03*
X57023Y42433D02*
D03*
X56007Y44798D02*
D03*
X49923Y36898D02*
D03*
X49705Y38707D02*
D03*
X46853Y60676D02*
D03*
X48179Y59494D02*
D03*
X55478Y48381D02*
D03*
X48794Y51727D02*
D03*
X48107Y53658D02*
D03*
X94107Y66167D02*
D03*
X94297Y61532D02*
D03*
X97409Y63500D02*
D03*
X48460Y68888D02*
D03*
X55141Y43304D02*
D03*
X60801Y40653D02*
D03*
X61504Y46863D02*
D03*
X42850Y63144D02*
D03*
X55957Y37669D02*
D03*
X50673Y39878D02*
D03*
X49530Y41196D02*
D03*
X24003Y65278D02*
D03*
X50927Y57531D02*
D03*
X52197Y44323D02*
D03*
X29337Y31750D02*
D03*
X55245Y25273D02*
D03*
X106325Y65304D02*
D03*
X52578Y16891D02*
D03*
X33020Y65278D02*
D03*
X55118Y49784D02*
D03*
X57186Y50546D02*
D03*
X56769Y51562D02*
D03*
X80137Y58928D02*
D03*
X75438Y61468D02*
D03*
X41021Y12573D02*
D03*
X43322Y16846D02*
D03*
X26207Y20828D02*
D03*
X38221Y37596D02*
D03*
X61214Y61722D02*
D03*
X108804Y67945D02*
D03*
X63145Y25400D02*
D03*
X61341Y16510D02*
D03*
X19812Y46863D02*
D03*
X80772Y68580D02*
D03*
X69977Y64897D02*
D03*
X71882Y66294D02*
D03*
X71755Y63485D02*
D03*
X85725Y66167D02*
D03*
X61976Y66294D02*
D03*
X37846Y42164D02*
D03*
X46482Y16764D02*
D03*
X45466Y57150D02*
D03*
M02*
